%TF.GenerationSoftware,KiCad,Pcbnew,6.0.1-79c1e3a40b~116~ubuntu20.04.1*%
%TF.CreationDate,2022-10-25T16:13:21+09:00*%
%TF.ProjectId,Voltage-sensor-mother-board,566f6c74-6167-4652-9d73-656e736f722d,1.3*%
%TF.SameCoordinates,Original*%
%TF.FileFunction,Copper,L2,Bot*%
%TF.FilePolarity,Positive*%
%FSLAX46Y46*%
G04 Gerber Fmt 4.6, Leading zero omitted, Abs format (unit mm)*
G04 Created by KiCad (PCBNEW 6.0.1-79c1e3a40b~116~ubuntu20.04.1) date 2022-10-25 16:13:21*
%MOMM*%
%LPD*%
G01*
G04 APERTURE LIST*
G04 Aperture macros list*
%AMRoundRect*
0 Rectangle with rounded corners*
0 $1 Rounding radius*
0 $2 $3 $4 $5 $6 $7 $8 $9 X,Y pos of 4 corners*
0 Add a 4 corners polygon primitive as box body*
4,1,4,$2,$3,$4,$5,$6,$7,$8,$9,$2,$3,0*
0 Add four circle primitives for the rounded corners*
1,1,$1+$1,$2,$3*
1,1,$1+$1,$4,$5*
1,1,$1+$1,$6,$7*
1,1,$1+$1,$8,$9*
0 Add four rect primitives between the rounded corners*
20,1,$1+$1,$2,$3,$4,$5,0*
20,1,$1+$1,$4,$5,$6,$7,0*
20,1,$1+$1,$6,$7,$8,$9,0*
20,1,$1+$1,$8,$9,$2,$3,0*%
G04 Aperture macros list end*
%TA.AperFunction,ComponentPad*%
%ADD10C,6.000000*%
%TD*%
%TA.AperFunction,ComponentPad*%
%ADD11R,10.000000X3.000000*%
%TD*%
%TA.AperFunction,ComponentPad*%
%ADD12RoundRect,0.250000X0.600000X0.725000X-0.600000X0.725000X-0.600000X-0.725000X0.600000X-0.725000X0*%
%TD*%
%TA.AperFunction,ComponentPad*%
%ADD13O,1.700000X1.950000*%
%TD*%
%TA.AperFunction,ComponentPad*%
%ADD14C,2.000000*%
%TD*%
%TA.AperFunction,ComponentPad*%
%ADD15O,5.000000X2.000000*%
%TD*%
%TA.AperFunction,ComponentPad*%
%ADD16O,8.000000X3.000000*%
%TD*%
%TA.AperFunction,ComponentPad*%
%ADD17R,8.000000X3.000000*%
%TD*%
%TA.AperFunction,ComponentPad*%
%ADD18R,4.000000X8.000000*%
%TD*%
%TA.AperFunction,ComponentPad*%
%ADD19RoundRect,0.250000X-0.600000X-0.750000X0.600000X-0.750000X0.600000X0.750000X-0.600000X0.750000X0*%
%TD*%
%TA.AperFunction,ComponentPad*%
%ADD20O,1.700000X2.000000*%
%TD*%
%TA.AperFunction,ComponentPad*%
%ADD21O,1.700000X1.700000*%
%TD*%
%TA.AperFunction,ComponentPad*%
%ADD22R,1.700000X1.700000*%
%TD*%
%TA.AperFunction,ComponentPad*%
%ADD23C,2.700000*%
%TD*%
%TA.AperFunction,ComponentPad*%
%ADD24RoundRect,0.250001X1.099999X1.099999X-1.099999X1.099999X-1.099999X-1.099999X1.099999X-1.099999X0*%
%TD*%
%TA.AperFunction,ConnectorPad*%
%ADD25C,12.800000*%
%TD*%
%TA.AperFunction,ComponentPad*%
%ADD26C,6.800000*%
%TD*%
%TA.AperFunction,ViaPad*%
%ADD27C,0.800000*%
%TD*%
%TA.AperFunction,Conductor*%
%ADD28C,1.000000*%
%TD*%
%TA.AperFunction,Conductor*%
%ADD29C,2.000000*%
%TD*%
G04 APERTURE END LIST*
D10*
%TO.P,U2,*%
%TO.N,*%
X65500000Y-113620000D03*
X96500000Y-85620000D03*
X96500000Y-113620000D03*
X65500000Y-85620000D03*
D11*
%TO.P,U2,1,VCC1*%
%TO.N,Net-(M1-Pad1)*%
X98500000Y-107240000D03*
%TO.P,U2,2,SDA1*%
%TO.N,Net-(M1-Pad3)*%
X98500000Y-102160000D03*
%TO.P,U2,3,SCL1*%
%TO.N,Net-(M1-Pad2)*%
X98500000Y-97080000D03*
%TO.P,U2,4,GND1*%
%TO.N,HVGND*%
X98500000Y-92000000D03*
%TO.P,U2,5,VCC2*%
%TO.N,Net-(J6-Pad1)*%
X63500000Y-107240000D03*
%TO.P,U2,6,SDA2*%
%TO.N,Net-(J6-Pad3)*%
X63500000Y-102160000D03*
%TO.P,U2,7,SCL2*%
%TO.N,Net-(J6-Pad2)*%
X63500000Y-97080000D03*
%TO.P,U2,8,GND2*%
%TO.N,LVGND*%
X63500000Y-92000000D03*
%TD*%
D12*
%TO.P,J7,1,Pin_1*%
%TO.N,Net-(J6-Pad1)*%
X67000000Y-75000000D03*
D13*
%TO.P,J7,2,Pin_2*%
%TO.N,Net-(J6-Pad3)*%
X64500000Y-75000000D03*
%TO.P,J7,3,Pin_3*%
%TO.N,Net-(J6-Pad2)*%
X62000000Y-75000000D03*
%TO.P,J7,4,Pin_4*%
%TO.N,LVGND*%
X59500000Y-75000000D03*
%TO.P,J7,5,Pin_5*%
X57000000Y-75000000D03*
%TD*%
D14*
%TO.P,M1,*%
%TO.N,*%
X108825000Y-58380000D03*
X108825000Y-73620000D03*
X108825000Y-60920000D03*
X108825000Y-71080000D03*
D15*
%TO.P,M1,1,VSS*%
%TO.N,Net-(M1-Pad1)*%
X98935000Y-71080000D03*
%TO.P,M1,2,SCL*%
%TO.N,Net-(M1-Pad2)*%
X98935000Y-68540000D03*
%TO.P,M1,3,SDA*%
%TO.N,Net-(M1-Pad3)*%
X98935000Y-66000000D03*
%TO.P,M1,4,AL*%
%TO.N,Net-(J5-Pad1)*%
X98935000Y-63460000D03*
%TO.P,M1,5,GND*%
%TO.N,HVGND*%
X98935000Y-60920000D03*
D16*
%TO.P,M1,6,V-(GND)*%
%TO.N,VBAT-*%
X124525000Y-73620000D03*
D17*
%TO.P,M1,7,ISENSE-*%
%TO.N,unconnected-(M1-Pad7)*%
X124525000Y-68540000D03*
D18*
X113905000Y-74112000D03*
D17*
%TO.P,M1,8,ISENSE+*%
%TO.N,unconnected-(M1-Pad8)*%
X124525000Y-63460000D03*
D18*
X113905000Y-57888000D03*
D16*
%TO.P,M1,9,V+*%
%TO.N,VBAT+*%
X124525000Y-58380000D03*
%TD*%
D19*
%TO.P,J4,1,Pin_1*%
%TO.N,Net-(J4-Pad1)*%
X114000000Y-114000000D03*
D20*
%TO.P,J4,2,Pin_2*%
%TO.N,VBAT-*%
X116500000Y-114000000D03*
%TD*%
D21*
%TO.P,J6,5,Pin_5*%
%TO.N,LVGND*%
X52000000Y-94460000D03*
%TO.P,J6,4,Pin_4*%
X52000000Y-97000000D03*
%TO.P,J6,3,Pin_3*%
%TO.N,Net-(J6-Pad3)*%
X52000000Y-99540000D03*
%TO.P,J6,2,Pin_2*%
%TO.N,Net-(J6-Pad2)*%
X52000000Y-102080000D03*
D22*
%TO.P,J6,1,Pin_1*%
%TO.N,Net-(J6-Pad1)*%
X52000000Y-104620000D03*
%TD*%
%TO.P,J5,1,Pin_1*%
%TO.N,Net-(J5-Pad1)*%
X89905000Y-62888000D03*
%TD*%
D23*
%TO.P,J3,2,Pin_2*%
%TO.N,VBAT-*%
X125040000Y-113000000D03*
D24*
%TO.P,J3,1,Pin_1*%
%TO.N,VBAT+*%
X129000000Y-113000000D03*
%TD*%
D25*
%TO.P,J2,1,Pin_1*%
%TO.N,VBAT-*%
X143000000Y-103000000D03*
D26*
X143000000Y-103000000D03*
%TD*%
D25*
%TO.P,J1,1,Pin_1*%
%TO.N,VBAT+*%
X143000000Y-82000000D03*
D26*
X143000000Y-82000000D03*
%TD*%
D27*
%TO.N,HVGND*%
X105000000Y-79000000D03*
%TO.N,Net-(M1-Pad1)*%
X107000000Y-86000000D03*
X107000000Y-100000000D03*
X107000000Y-78000000D03*
%TO.N,VBAT-*%
X135500000Y-90000000D03*
%TO.N,LVGND*%
X57000000Y-100000000D03*
X60000000Y-118000000D03*
%TD*%
D28*
%TO.N,HVGND*%
X105000000Y-65621516D02*
X100298484Y-60920000D01*
X105000000Y-79000000D02*
X105000000Y-65621516D01*
%TO.N,Net-(M1-Pad1)*%
X107000000Y-78000000D02*
X107000000Y-86000000D01*
X107000000Y-86000000D02*
X107000000Y-100000000D01*
D29*
%TO.N,VBAT-*%
X125040000Y-113000000D02*
X125040000Y-111090812D01*
X125040000Y-111090812D02*
X133130812Y-103000000D01*
X133130812Y-103000000D02*
X143000000Y-103000000D01*
X135500000Y-95500000D02*
X143000000Y-103000000D01*
X135500000Y-90000000D02*
X135500000Y-95500000D01*
X143000000Y-103000000D02*
X121525000Y-81525000D01*
X121525000Y-81525000D02*
X121525000Y-73620000D01*
D28*
%TO.N,LVGND*%
X57000000Y-75000000D02*
X59500000Y-75000000D01*
X52000000Y-94460000D02*
X52000000Y-80000000D01*
X52000000Y-80000000D02*
X57000000Y-75000000D01*
%TO.N,Net-(J6-Pad3)*%
X64500000Y-75000000D02*
X64500000Y-76500000D01*
X64500000Y-76500000D02*
X71000000Y-83000000D01*
X71000000Y-83000000D02*
X71000000Y-99000000D01*
X71000000Y-99000000D02*
X67840000Y-102160000D01*
X67840000Y-102160000D02*
X66700000Y-102160000D01*
X52000000Y-99540000D02*
X53540000Y-99540000D01*
X53540000Y-99540000D02*
X56160000Y-102160000D01*
X56160000Y-102160000D02*
X66700000Y-102160000D01*
%TO.N,HVGND*%
X99935000Y-60920000D02*
X100298484Y-60920000D01*
%TD*%
%TA.AperFunction,Conductor*%
%TO.N,LVGND*%
G36*
X72942121Y-50528002D02*
G01*
X72988614Y-50581658D01*
X73000000Y-50634000D01*
X73000000Y-119366000D01*
X72979998Y-119434121D01*
X72926342Y-119480614D01*
X72874000Y-119492000D01*
X58126000Y-119492000D01*
X58057879Y-119471998D01*
X58011386Y-119418342D01*
X58000000Y-119366000D01*
X58000000Y-113620000D01*
X61986685Y-113620000D01*
X62005931Y-113987241D01*
X62063459Y-114350459D01*
X62158639Y-114705674D01*
X62290427Y-115048994D01*
X62457380Y-115376657D01*
X62657668Y-115685075D01*
X62889098Y-115970867D01*
X63149133Y-116230902D01*
X63434925Y-116462332D01*
X63743342Y-116662620D01*
X63746276Y-116664115D01*
X63746283Y-116664119D01*
X64068066Y-116828075D01*
X64071006Y-116829573D01*
X64414326Y-116961361D01*
X64769541Y-117056541D01*
X64962558Y-117087112D01*
X65129511Y-117113555D01*
X65129519Y-117113556D01*
X65132759Y-117114069D01*
X65500000Y-117133315D01*
X65867241Y-117114069D01*
X65870481Y-117113556D01*
X65870489Y-117113555D01*
X66037442Y-117087112D01*
X66230459Y-117056541D01*
X66585674Y-116961361D01*
X66928994Y-116829573D01*
X66931934Y-116828075D01*
X67253717Y-116664119D01*
X67253724Y-116664115D01*
X67256658Y-116662620D01*
X67565075Y-116462332D01*
X67850867Y-116230902D01*
X68110902Y-115970867D01*
X68342332Y-115685075D01*
X68542620Y-115376657D01*
X68709573Y-115048994D01*
X68841361Y-114705674D01*
X68936541Y-114350459D01*
X68994069Y-113987241D01*
X69013315Y-113620000D01*
X68994069Y-113252759D01*
X68936541Y-112889541D01*
X68841361Y-112534326D01*
X68709573Y-112191006D01*
X68708075Y-112188066D01*
X68544119Y-111866284D01*
X68544115Y-111866277D01*
X68542620Y-111863343D01*
X68342332Y-111554925D01*
X68110902Y-111269133D01*
X67850867Y-111009098D01*
X67565075Y-110777668D01*
X67256658Y-110577380D01*
X67253724Y-110575885D01*
X67253717Y-110575881D01*
X66931934Y-110411925D01*
X66928994Y-110410427D01*
X66585674Y-110278639D01*
X66230459Y-110183459D01*
X66037442Y-110152888D01*
X65870489Y-110126445D01*
X65870481Y-110126444D01*
X65867241Y-110125931D01*
X65500000Y-110106685D01*
X65132759Y-110125931D01*
X65129519Y-110126444D01*
X65129511Y-110126445D01*
X64962558Y-110152888D01*
X64769541Y-110183459D01*
X64414326Y-110278639D01*
X64071006Y-110410427D01*
X64068066Y-110411925D01*
X63746284Y-110575881D01*
X63746277Y-110575885D01*
X63743343Y-110577380D01*
X63434925Y-110777668D01*
X63149133Y-111009098D01*
X62889098Y-111269133D01*
X62657668Y-111554925D01*
X62457380Y-111863343D01*
X62455885Y-111866277D01*
X62455881Y-111866284D01*
X62291925Y-112188066D01*
X62290427Y-112191006D01*
X62158639Y-112534326D01*
X62063459Y-112889541D01*
X62005931Y-113252759D01*
X61986685Y-113620000D01*
X58000000Y-113620000D01*
X58000000Y-112000000D01*
X50634000Y-112000000D01*
X50565879Y-111979998D01*
X50519386Y-111926342D01*
X50508000Y-111874000D01*
X50508000Y-108788134D01*
X57991500Y-108788134D01*
X57998255Y-108850316D01*
X58049385Y-108986705D01*
X58136739Y-109103261D01*
X58253295Y-109190615D01*
X58389684Y-109241745D01*
X58451866Y-109248500D01*
X68548134Y-109248500D01*
X68610316Y-109241745D01*
X68746705Y-109190615D01*
X68863261Y-109103261D01*
X68950615Y-108986705D01*
X69001745Y-108850316D01*
X69008500Y-108788134D01*
X69008500Y-105691866D01*
X69001745Y-105629684D01*
X68950615Y-105493295D01*
X68863261Y-105376739D01*
X68746705Y-105289385D01*
X68610316Y-105238255D01*
X68548134Y-105231500D01*
X58451866Y-105231500D01*
X58389684Y-105238255D01*
X58253295Y-105289385D01*
X58136739Y-105376739D01*
X58049385Y-105493295D01*
X57998255Y-105629684D01*
X57991500Y-105691866D01*
X57991500Y-108788134D01*
X50508000Y-108788134D01*
X50508000Y-105839559D01*
X50528002Y-105771438D01*
X50581658Y-105724945D01*
X50651932Y-105714841D01*
X50716512Y-105744335D01*
X50734826Y-105763994D01*
X50786739Y-105833261D01*
X50903295Y-105920615D01*
X51039684Y-105971745D01*
X51101866Y-105978500D01*
X52898134Y-105978500D01*
X52960316Y-105971745D01*
X53096705Y-105920615D01*
X53213261Y-105833261D01*
X53300615Y-105716705D01*
X53351745Y-105580316D01*
X53358500Y-105518134D01*
X53358500Y-103721866D01*
X53351745Y-103659684D01*
X53300615Y-103523295D01*
X53213261Y-103406739D01*
X53096705Y-103319385D01*
X53084132Y-103314672D01*
X52978203Y-103274960D01*
X52921439Y-103232318D01*
X52896739Y-103165756D01*
X52911947Y-103096408D01*
X52933493Y-103067727D01*
X52955268Y-103046028D01*
X53038096Y-102963489D01*
X53057549Y-102936418D01*
X53165435Y-102786277D01*
X53168453Y-102782077D01*
X53227836Y-102661925D01*
X53265136Y-102586453D01*
X53265137Y-102586451D01*
X53267430Y-102581811D01*
X53317280Y-102417735D01*
X53330865Y-102373023D01*
X53330865Y-102373021D01*
X53332370Y-102368069D01*
X53361529Y-102146590D01*
X53363156Y-102080000D01*
X53344852Y-101857361D01*
X53290431Y-101640702D01*
X53201354Y-101435840D01*
X53080014Y-101248277D01*
X52929670Y-101083051D01*
X52925619Y-101079852D01*
X52925615Y-101079848D01*
X52758414Y-100947800D01*
X52758410Y-100947798D01*
X52754359Y-100944598D01*
X52713053Y-100921796D01*
X52663084Y-100871364D01*
X52648312Y-100801921D01*
X52673428Y-100735516D01*
X52700780Y-100708909D01*
X52875651Y-100584175D01*
X52879860Y-100581173D01*
X52882886Y-100578157D01*
X52947588Y-100549570D01*
X52963976Y-100548500D01*
X53070075Y-100548500D01*
X53138196Y-100568502D01*
X53159170Y-100585405D01*
X55403149Y-102829384D01*
X55412251Y-102839527D01*
X55435968Y-102869025D01*
X55474450Y-102901315D01*
X55478062Y-102904467D01*
X55479888Y-102906123D01*
X55482075Y-102908310D01*
X55484458Y-102910267D01*
X55484463Y-102910272D01*
X55515268Y-102935576D01*
X55516252Y-102936393D01*
X55587474Y-102996154D01*
X55592147Y-102998723D01*
X55596262Y-103002103D01*
X55601691Y-103005014D01*
X55601694Y-103005016D01*
X55678180Y-103046028D01*
X55679338Y-103046657D01*
X55705769Y-103061187D01*
X55760787Y-103091433D01*
X55765865Y-103093044D01*
X55770563Y-103095563D01*
X55859498Y-103122753D01*
X55860702Y-103123128D01*
X55949306Y-103151235D01*
X55954597Y-103151828D01*
X55959698Y-103153388D01*
X56052311Y-103162795D01*
X56053431Y-103162915D01*
X56103227Y-103168500D01*
X56106756Y-103168500D01*
X56107739Y-103168555D01*
X56113426Y-103169003D01*
X56133683Y-103171060D01*
X56150336Y-103172752D01*
X56150339Y-103172752D01*
X56156463Y-103173374D01*
X56202112Y-103169059D01*
X56213969Y-103168500D01*
X57865500Y-103168500D01*
X57933621Y-103188502D01*
X57980114Y-103242158D01*
X57991500Y-103294500D01*
X57991500Y-103708134D01*
X57998255Y-103770316D01*
X58049385Y-103906705D01*
X58136739Y-104023261D01*
X58253295Y-104110615D01*
X58389684Y-104161745D01*
X58451866Y-104168500D01*
X68548134Y-104168500D01*
X68610316Y-104161745D01*
X68746705Y-104110615D01*
X68863261Y-104023261D01*
X68950615Y-103906705D01*
X69001745Y-103770316D01*
X69008500Y-103708134D01*
X69008500Y-102469925D01*
X69028502Y-102401804D01*
X69045405Y-102380830D01*
X71669379Y-99756855D01*
X71679522Y-99747753D01*
X71704218Y-99727897D01*
X71709025Y-99724032D01*
X71741292Y-99685578D01*
X71744472Y-99681931D01*
X71746115Y-99680119D01*
X71748309Y-99677925D01*
X71775642Y-99644651D01*
X71776348Y-99643800D01*
X71832195Y-99577244D01*
X71836154Y-99572526D01*
X71838722Y-99567856D01*
X71842103Y-99563739D01*
X71885977Y-99481914D01*
X71886606Y-99480755D01*
X71928462Y-99404619D01*
X71928465Y-99404611D01*
X71931433Y-99399213D01*
X71933045Y-99394131D01*
X71935562Y-99389437D01*
X71962747Y-99300523D01*
X71963139Y-99299265D01*
X71989372Y-99216567D01*
X71991235Y-99210694D01*
X71991829Y-99205403D01*
X71993388Y-99200302D01*
X72002790Y-99107737D01*
X72002925Y-99106470D01*
X72004983Y-99088131D01*
X72008500Y-99056773D01*
X72008500Y-99053248D01*
X72008555Y-99052263D01*
X72009004Y-99046559D01*
X72012752Y-99009666D01*
X72012752Y-99009661D01*
X72013374Y-99003538D01*
X72009059Y-98957891D01*
X72008500Y-98946033D01*
X72008500Y-83061842D01*
X72009237Y-83048235D01*
X72012659Y-83016737D01*
X72012659Y-83016732D01*
X72013324Y-83010611D01*
X72008950Y-82960609D01*
X72008621Y-82955784D01*
X72008500Y-82953313D01*
X72008500Y-82950231D01*
X72004309Y-82907489D01*
X72004187Y-82906174D01*
X71996623Y-82819719D01*
X71996087Y-82813587D01*
X71994600Y-82808468D01*
X71994080Y-82803167D01*
X71967209Y-82714166D01*
X71966874Y-82713033D01*
X71942630Y-82629586D01*
X71942628Y-82629582D01*
X71940909Y-82623664D01*
X71938456Y-82618932D01*
X71936916Y-82613831D01*
X71893269Y-82531740D01*
X71892657Y-82530574D01*
X71852729Y-82453547D01*
X71849892Y-82448074D01*
X71846569Y-82443911D01*
X71844066Y-82439204D01*
X71785245Y-82367082D01*
X71784554Y-82366226D01*
X71753262Y-82327027D01*
X71750758Y-82324523D01*
X71750116Y-82323805D01*
X71746415Y-82319472D01*
X71719065Y-82285938D01*
X71683737Y-82256712D01*
X71674958Y-82248723D01*
X66103422Y-76677188D01*
X66069396Y-76614876D01*
X66074461Y-76544061D01*
X66117008Y-76487225D01*
X66183528Y-76462414D01*
X66232184Y-76468500D01*
X66245139Y-76472797D01*
X66251975Y-76473497D01*
X66251978Y-76473498D01*
X66287663Y-76477154D01*
X66349600Y-76483500D01*
X67650400Y-76483500D01*
X67653646Y-76483163D01*
X67653650Y-76483163D01*
X67749308Y-76473238D01*
X67749312Y-76473237D01*
X67756166Y-76472526D01*
X67762702Y-76470345D01*
X67762704Y-76470345D01*
X67916998Y-76418868D01*
X67923946Y-76416550D01*
X68074348Y-76323478D01*
X68199305Y-76198303D01*
X68231462Y-76146135D01*
X68288275Y-76053968D01*
X68288276Y-76053966D01*
X68292115Y-76047738D01*
X68342031Y-75897245D01*
X68345632Y-75886389D01*
X68345632Y-75886387D01*
X68347797Y-75879861D01*
X68350114Y-75857253D01*
X68353150Y-75827619D01*
X68358500Y-75775400D01*
X68358500Y-74224600D01*
X68354292Y-74184041D01*
X68348238Y-74125692D01*
X68348237Y-74125688D01*
X68347526Y-74118834D01*
X68340785Y-74098627D01*
X68293868Y-73958002D01*
X68291550Y-73951054D01*
X68198478Y-73800652D01*
X68073303Y-73675695D01*
X68042965Y-73656994D01*
X67928968Y-73586725D01*
X67928966Y-73586724D01*
X67922738Y-73582885D01*
X67809353Y-73545277D01*
X67761389Y-73529368D01*
X67761387Y-73529368D01*
X67754861Y-73527203D01*
X67748025Y-73526503D01*
X67748022Y-73526502D01*
X67704969Y-73522091D01*
X67650400Y-73516500D01*
X66349600Y-73516500D01*
X66346354Y-73516837D01*
X66346350Y-73516837D01*
X66250692Y-73526762D01*
X66250688Y-73526763D01*
X66243834Y-73527474D01*
X66237298Y-73529655D01*
X66237296Y-73529655D01*
X66105194Y-73573728D01*
X66076054Y-73583450D01*
X65925652Y-73676522D01*
X65800695Y-73801697D01*
X65727170Y-73920977D01*
X65710920Y-73947339D01*
X65658148Y-73994832D01*
X65588076Y-74006256D01*
X65522952Y-73977982D01*
X65512490Y-73968195D01*
X65407103Y-73857722D01*
X65403424Y-73853865D01*
X65218458Y-73716246D01*
X65213707Y-73713830D01*
X65213703Y-73713828D01*
X65095588Y-73653776D01*
X65012949Y-73611760D01*
X65007855Y-73610178D01*
X65007852Y-73610177D01*
X64797871Y-73544976D01*
X64792773Y-73543393D01*
X64787484Y-73542692D01*
X64569511Y-73513802D01*
X64569506Y-73513802D01*
X64564226Y-73513102D01*
X64558897Y-73513302D01*
X64558895Y-73513302D01*
X64449034Y-73517427D01*
X64333842Y-73521751D01*
X64328623Y-73522846D01*
X64306566Y-73527474D01*
X64108209Y-73569093D01*
X64103250Y-73571051D01*
X64103248Y-73571052D01*
X63898744Y-73651815D01*
X63898742Y-73651816D01*
X63893779Y-73653776D01*
X63889220Y-73656543D01*
X63889217Y-73656544D01*
X63794113Y-73714255D01*
X63696683Y-73773377D01*
X63692653Y-73776874D01*
X63599484Y-73857722D01*
X63522555Y-73924477D01*
X63503809Y-73947339D01*
X63379760Y-74098627D01*
X63379756Y-74098633D01*
X63376376Y-74102755D01*
X63358448Y-74134250D01*
X63307368Y-74183555D01*
X63237738Y-74197417D01*
X63171667Y-74171434D01*
X63144427Y-74142284D01*
X63117814Y-74102755D01*
X63062559Y-74020681D01*
X62903424Y-73853865D01*
X62718458Y-73716246D01*
X62713707Y-73713830D01*
X62713703Y-73713828D01*
X62595588Y-73653776D01*
X62512949Y-73611760D01*
X62507855Y-73610178D01*
X62507852Y-73610177D01*
X62297871Y-73544976D01*
X62292773Y-73543393D01*
X62287484Y-73542692D01*
X62069511Y-73513802D01*
X62069506Y-73513802D01*
X62064226Y-73513102D01*
X62058897Y-73513302D01*
X62058895Y-73513302D01*
X61949034Y-73517427D01*
X61833842Y-73521751D01*
X61828623Y-73522846D01*
X61806566Y-73527474D01*
X61608209Y-73569093D01*
X61603250Y-73571051D01*
X61603248Y-73571052D01*
X61398744Y-73651815D01*
X61398742Y-73651816D01*
X61393779Y-73653776D01*
X61389220Y-73656543D01*
X61389217Y-73656544D01*
X61294113Y-73714255D01*
X61196683Y-73773377D01*
X61192653Y-73776874D01*
X61099484Y-73857722D01*
X61022555Y-73924477D01*
X61003809Y-73947339D01*
X60879760Y-74098627D01*
X60879756Y-74098633D01*
X60876376Y-74102755D01*
X60873738Y-74107390D01*
X60873733Y-74107398D01*
X60858171Y-74134735D01*
X60807088Y-74184041D01*
X60737458Y-74197902D01*
X60671387Y-74171918D01*
X60644149Y-74142768D01*
X60565148Y-74025422D01*
X60558481Y-74017130D01*
X60406772Y-73858100D01*
X60398814Y-73851059D01*
X60222475Y-73719859D01*
X60213438Y-73714255D01*
X60017516Y-73614643D01*
X60007665Y-73610643D01*
X59797760Y-73545466D01*
X59787376Y-73543183D01*
X59771957Y-73541139D01*
X59757793Y-73543335D01*
X59754000Y-73556522D01*
X59754000Y-76441192D01*
X59757973Y-76454723D01*
X59768580Y-76456248D01*
X59886421Y-76431523D01*
X59896617Y-76428463D01*
X60101029Y-76347737D01*
X60110561Y-76343006D01*
X60298462Y-76228984D01*
X60307052Y-76222720D01*
X60473052Y-76078673D01*
X60480472Y-76071042D01*
X60619826Y-75901089D01*
X60625848Y-75892326D01*
X60641238Y-75865289D01*
X60692320Y-75815982D01*
X60761951Y-75802120D01*
X60828022Y-75828103D01*
X60855261Y-75857253D01*
X60884773Y-75901089D01*
X60937441Y-75979319D01*
X60941120Y-75983176D01*
X60941122Y-75983178D01*
X61002710Y-76047738D01*
X61096576Y-76146135D01*
X61281542Y-76283754D01*
X61286293Y-76286170D01*
X61286297Y-76286172D01*
X61349481Y-76318296D01*
X61487051Y-76388240D01*
X61492145Y-76389822D01*
X61492148Y-76389823D01*
X61647809Y-76438157D01*
X61707227Y-76456607D01*
X61712516Y-76457308D01*
X61930489Y-76486198D01*
X61930494Y-76486198D01*
X61935774Y-76486898D01*
X61941103Y-76486698D01*
X61941105Y-76486698D01*
X62050966Y-76482573D01*
X62166158Y-76478249D01*
X62188802Y-76473498D01*
X62386572Y-76432002D01*
X62391791Y-76430907D01*
X62396750Y-76428949D01*
X62396752Y-76428948D01*
X62601256Y-76348185D01*
X62601258Y-76348184D01*
X62606221Y-76346224D01*
X62611525Y-76343006D01*
X62798757Y-76229390D01*
X62798756Y-76229390D01*
X62803317Y-76226623D01*
X62843134Y-76192072D01*
X62973412Y-76079023D01*
X62973414Y-76079021D01*
X62977445Y-76075523D01*
X63039801Y-75999475D01*
X63120240Y-75901373D01*
X63120244Y-75901367D01*
X63123624Y-75897245D01*
X63141552Y-75865750D01*
X63192632Y-75816445D01*
X63262262Y-75802583D01*
X63328333Y-75828566D01*
X63355573Y-75857716D01*
X63434458Y-75974889D01*
X63434461Y-75974893D01*
X63437441Y-75979319D01*
X63441128Y-75983184D01*
X63456669Y-75999475D01*
X63489217Y-76062571D01*
X63491500Y-76086447D01*
X63491500Y-76438157D01*
X63490763Y-76451764D01*
X63488508Y-76472526D01*
X63486676Y-76489388D01*
X63487213Y-76495523D01*
X63491050Y-76539388D01*
X63491379Y-76544214D01*
X63491500Y-76546686D01*
X63491500Y-76549769D01*
X63491801Y-76552837D01*
X63495690Y-76592506D01*
X63495812Y-76593819D01*
X63499685Y-76638084D01*
X63503913Y-76686413D01*
X63505400Y-76691532D01*
X63505920Y-76696833D01*
X63532791Y-76785834D01*
X63533126Y-76786967D01*
X63559091Y-76876336D01*
X63561544Y-76881068D01*
X63563084Y-76886169D01*
X63565978Y-76891612D01*
X63606731Y-76968260D01*
X63607343Y-76969426D01*
X63650108Y-77051926D01*
X63653431Y-77056089D01*
X63655934Y-77060796D01*
X63714755Y-77132918D01*
X63715446Y-77133774D01*
X63746738Y-77172973D01*
X63749242Y-77175477D01*
X63749884Y-77176195D01*
X63753585Y-77180528D01*
X63780935Y-77214062D01*
X63785682Y-77217989D01*
X63785684Y-77217991D01*
X63816262Y-77243287D01*
X63825042Y-77251277D01*
X69954595Y-83380829D01*
X69988621Y-83443141D01*
X69991500Y-83469924D01*
X69991500Y-98530075D01*
X69971498Y-98598196D01*
X69954595Y-98619170D01*
X68459171Y-100114595D01*
X68396859Y-100148620D01*
X68370076Y-100151500D01*
X58451866Y-100151500D01*
X58389684Y-100158255D01*
X58253295Y-100209385D01*
X58136739Y-100296739D01*
X58049385Y-100413295D01*
X57998255Y-100549684D01*
X57991500Y-100611866D01*
X57991500Y-101025500D01*
X57971498Y-101093621D01*
X57917842Y-101140114D01*
X57865500Y-101151500D01*
X56629924Y-101151500D01*
X56561803Y-101131498D01*
X56540829Y-101114595D01*
X54296855Y-98870621D01*
X54287753Y-98860478D01*
X54267897Y-98835782D01*
X54264032Y-98830975D01*
X54225578Y-98798708D01*
X54221931Y-98795528D01*
X54220119Y-98793885D01*
X54217925Y-98791691D01*
X54184651Y-98764358D01*
X54183853Y-98763696D01*
X54112526Y-98703846D01*
X54107856Y-98701278D01*
X54103739Y-98697897D01*
X54021914Y-98654023D01*
X54020755Y-98653394D01*
X53974807Y-98628134D01*
X57991500Y-98628134D01*
X57998255Y-98690316D01*
X58049385Y-98826705D01*
X58136739Y-98943261D01*
X58253295Y-99030615D01*
X58389684Y-99081745D01*
X58451866Y-99088500D01*
X68548134Y-99088500D01*
X68610316Y-99081745D01*
X68746705Y-99030615D01*
X68863261Y-98943261D01*
X68950615Y-98826705D01*
X69001745Y-98690316D01*
X69008500Y-98628134D01*
X69008500Y-95531866D01*
X69001745Y-95469684D01*
X68950615Y-95333295D01*
X68863261Y-95216739D01*
X68746705Y-95129385D01*
X68610316Y-95078255D01*
X68548134Y-95071500D01*
X58451866Y-95071500D01*
X58389684Y-95078255D01*
X58253295Y-95129385D01*
X58136739Y-95216739D01*
X58049385Y-95333295D01*
X57998255Y-95469684D01*
X57991500Y-95531866D01*
X57991500Y-98628134D01*
X53974807Y-98628134D01*
X53944619Y-98611538D01*
X53944611Y-98611535D01*
X53939213Y-98608567D01*
X53934131Y-98606955D01*
X53929437Y-98604438D01*
X53840469Y-98577238D01*
X53839441Y-98576918D01*
X53750694Y-98548765D01*
X53745398Y-98548171D01*
X53740302Y-98546613D01*
X53647743Y-98537210D01*
X53646607Y-98537089D01*
X53612992Y-98533319D01*
X53600270Y-98531892D01*
X53600266Y-98531892D01*
X53596773Y-98531500D01*
X53593246Y-98531500D01*
X53592261Y-98531445D01*
X53586581Y-98530998D01*
X53557175Y-98528011D01*
X53549663Y-98527248D01*
X53549661Y-98527248D01*
X53543538Y-98526626D01*
X53501259Y-98530623D01*
X53497891Y-98530941D01*
X53486033Y-98531500D01*
X52958799Y-98531500D01*
X52890678Y-98511498D01*
X52880707Y-98504382D01*
X52758414Y-98407800D01*
X52758410Y-98407798D01*
X52754359Y-98404598D01*
X52712569Y-98381529D01*
X52662598Y-98331097D01*
X52647826Y-98261654D01*
X52672942Y-98195248D01*
X52700294Y-98168641D01*
X52875328Y-98043792D01*
X52883200Y-98037139D01*
X53034052Y-97886812D01*
X53040730Y-97878965D01*
X53165003Y-97706020D01*
X53170313Y-97697183D01*
X53264670Y-97506267D01*
X53268469Y-97496672D01*
X53330377Y-97292910D01*
X53332555Y-97282837D01*
X53333986Y-97271962D01*
X53331775Y-97257778D01*
X53318617Y-97254000D01*
X51872000Y-97254000D01*
X51803879Y-97233998D01*
X51757386Y-97180342D01*
X51746000Y-97128000D01*
X51746000Y-96727885D01*
X52254000Y-96727885D01*
X52258475Y-96743124D01*
X52259865Y-96744329D01*
X52267548Y-96746000D01*
X53318344Y-96746000D01*
X53331875Y-96742027D01*
X53333180Y-96732947D01*
X53291214Y-96565875D01*
X53287894Y-96556124D01*
X53202972Y-96360814D01*
X53198105Y-96351739D01*
X53082426Y-96172926D01*
X53076136Y-96164757D01*
X52932806Y-96007240D01*
X52925273Y-96000215D01*
X52758139Y-95868222D01*
X52749552Y-95862517D01*
X52712116Y-95841851D01*
X52662146Y-95791419D01*
X52647374Y-95721976D01*
X52672490Y-95655571D01*
X52699842Y-95628964D01*
X52875327Y-95503792D01*
X52883200Y-95497139D01*
X53034052Y-95346812D01*
X53040730Y-95338965D01*
X53165003Y-95166020D01*
X53170313Y-95157183D01*
X53264670Y-94966267D01*
X53268469Y-94956672D01*
X53330377Y-94752910D01*
X53332555Y-94742837D01*
X53333986Y-94731962D01*
X53331775Y-94717778D01*
X53318617Y-94714000D01*
X52272115Y-94714000D01*
X52256876Y-94718475D01*
X52255671Y-94719865D01*
X52254000Y-94727548D01*
X52254000Y-96727885D01*
X51746000Y-96727885D01*
X51746000Y-94187885D01*
X52254000Y-94187885D01*
X52258475Y-94203124D01*
X52259865Y-94204329D01*
X52267548Y-94206000D01*
X53318344Y-94206000D01*
X53331875Y-94202027D01*
X53333180Y-94192947D01*
X53291214Y-94025875D01*
X53287894Y-94016124D01*
X53202972Y-93820814D01*
X53198105Y-93811739D01*
X53082426Y-93632926D01*
X53076136Y-93624757D01*
X53003261Y-93544669D01*
X57992001Y-93544669D01*
X57992371Y-93551490D01*
X57997895Y-93602352D01*
X58001521Y-93617604D01*
X58046676Y-93738054D01*
X58055214Y-93753649D01*
X58131715Y-93855724D01*
X58144276Y-93868285D01*
X58246351Y-93944786D01*
X58261946Y-93953324D01*
X58382394Y-93998478D01*
X58397649Y-94002105D01*
X58448514Y-94007631D01*
X58455328Y-94008000D01*
X63227885Y-94008000D01*
X63243124Y-94003525D01*
X63244329Y-94002135D01*
X63246000Y-93994452D01*
X63246000Y-93989884D01*
X63754000Y-93989884D01*
X63758475Y-94005123D01*
X63759865Y-94006328D01*
X63767548Y-94007999D01*
X68544669Y-94007999D01*
X68551490Y-94007629D01*
X68602352Y-94002105D01*
X68617604Y-93998479D01*
X68738054Y-93953324D01*
X68753649Y-93944786D01*
X68855724Y-93868285D01*
X68868285Y-93855724D01*
X68944786Y-93753649D01*
X68953324Y-93738054D01*
X68998478Y-93617606D01*
X69002105Y-93602351D01*
X69007631Y-93551486D01*
X69008000Y-93544672D01*
X69008000Y-92272115D01*
X69003525Y-92256876D01*
X69002135Y-92255671D01*
X68994452Y-92254000D01*
X63772115Y-92254000D01*
X63756876Y-92258475D01*
X63755671Y-92259865D01*
X63754000Y-92267548D01*
X63754000Y-93989884D01*
X63246000Y-93989884D01*
X63246000Y-92272115D01*
X63241525Y-92256876D01*
X63240135Y-92255671D01*
X63232452Y-92254000D01*
X58010116Y-92254000D01*
X57994877Y-92258475D01*
X57993672Y-92259865D01*
X57992001Y-92267548D01*
X57992001Y-93544669D01*
X53003261Y-93544669D01*
X52932806Y-93467240D01*
X52925273Y-93460215D01*
X52758139Y-93328222D01*
X52749552Y-93322517D01*
X52563117Y-93219599D01*
X52553705Y-93215369D01*
X52352959Y-93144280D01*
X52342988Y-93141646D01*
X52271837Y-93128972D01*
X52258540Y-93130432D01*
X52254000Y-93144989D01*
X52254000Y-94187885D01*
X51746000Y-94187885D01*
X51746000Y-93143102D01*
X51742082Y-93129758D01*
X51727806Y-93127771D01*
X51689324Y-93133660D01*
X51679288Y-93136051D01*
X51476868Y-93202212D01*
X51467359Y-93206209D01*
X51278463Y-93304542D01*
X51269738Y-93310036D01*
X51099433Y-93437905D01*
X51091726Y-93444748D01*
X50944590Y-93598717D01*
X50938104Y-93606727D01*
X50818098Y-93782649D01*
X50813000Y-93791623D01*
X50748288Y-93931033D01*
X50701464Y-93984400D01*
X50633221Y-94003981D01*
X50565225Y-93983558D01*
X50519065Y-93929615D01*
X50508000Y-93877983D01*
X50508000Y-91727885D01*
X57992000Y-91727885D01*
X57996475Y-91743124D01*
X57997865Y-91744329D01*
X58005548Y-91746000D01*
X63227885Y-91746000D01*
X63243124Y-91741525D01*
X63244329Y-91740135D01*
X63246000Y-91732452D01*
X63246000Y-91727885D01*
X63754000Y-91727885D01*
X63758475Y-91743124D01*
X63759865Y-91744329D01*
X63767548Y-91746000D01*
X68989884Y-91746000D01*
X69005123Y-91741525D01*
X69006328Y-91740135D01*
X69007999Y-91732452D01*
X69007999Y-90455331D01*
X69007629Y-90448510D01*
X69002105Y-90397648D01*
X68998479Y-90382396D01*
X68953324Y-90261946D01*
X68944786Y-90246351D01*
X68868285Y-90144276D01*
X68855724Y-90131715D01*
X68753649Y-90055214D01*
X68738054Y-90046676D01*
X68617606Y-90001522D01*
X68602351Y-89997895D01*
X68551486Y-89992369D01*
X68544672Y-89992000D01*
X63772115Y-89992000D01*
X63756876Y-89996475D01*
X63755671Y-89997865D01*
X63754000Y-90005548D01*
X63754000Y-91727885D01*
X63246000Y-91727885D01*
X63246000Y-90010116D01*
X63241525Y-89994877D01*
X63240135Y-89993672D01*
X63232452Y-89992001D01*
X58455331Y-89992001D01*
X58448510Y-89992371D01*
X58397648Y-89997895D01*
X58382396Y-90001521D01*
X58261946Y-90046676D01*
X58246351Y-90055214D01*
X58144276Y-90131715D01*
X58131715Y-90144276D01*
X58055214Y-90246351D01*
X58046676Y-90261946D01*
X58001522Y-90382394D01*
X57997895Y-90397649D01*
X57992369Y-90448514D01*
X57992000Y-90455328D01*
X57992000Y-91727885D01*
X50508000Y-91727885D01*
X50508000Y-85620000D01*
X61986685Y-85620000D01*
X62005931Y-85987241D01*
X62063459Y-86350459D01*
X62158639Y-86705674D01*
X62290427Y-87048994D01*
X62457380Y-87376657D01*
X62657668Y-87685075D01*
X62889098Y-87970867D01*
X63149133Y-88230902D01*
X63434925Y-88462332D01*
X63743342Y-88662620D01*
X63746276Y-88664115D01*
X63746283Y-88664119D01*
X64068066Y-88828075D01*
X64071006Y-88829573D01*
X64414326Y-88961361D01*
X64769541Y-89056541D01*
X64962558Y-89087112D01*
X65129511Y-89113555D01*
X65129519Y-89113556D01*
X65132759Y-89114069D01*
X65500000Y-89133315D01*
X65867241Y-89114069D01*
X65870481Y-89113556D01*
X65870489Y-89113555D01*
X66037442Y-89087112D01*
X66230459Y-89056541D01*
X66585674Y-88961361D01*
X66928994Y-88829573D01*
X66931934Y-88828075D01*
X67253717Y-88664119D01*
X67253724Y-88664115D01*
X67256658Y-88662620D01*
X67565075Y-88462332D01*
X67850867Y-88230902D01*
X68110902Y-87970867D01*
X68342332Y-87685075D01*
X68542620Y-87376657D01*
X68709573Y-87048994D01*
X68841361Y-86705674D01*
X68936541Y-86350459D01*
X68994069Y-85987241D01*
X69013315Y-85620000D01*
X68994069Y-85252759D01*
X68936541Y-84889541D01*
X68841361Y-84534326D01*
X68709573Y-84191006D01*
X68542620Y-83863343D01*
X68342332Y-83554925D01*
X68110902Y-83269133D01*
X67850867Y-83009098D01*
X67565075Y-82777668D01*
X67461526Y-82710423D01*
X67259427Y-82579178D01*
X67259424Y-82579176D01*
X67256658Y-82577380D01*
X67253724Y-82575885D01*
X67253717Y-82575881D01*
X66931934Y-82411925D01*
X66928994Y-82410427D01*
X66702046Y-82323310D01*
X66588764Y-82279825D01*
X66588762Y-82279824D01*
X66585674Y-82278639D01*
X66230459Y-82183459D01*
X66037442Y-82152888D01*
X65870489Y-82126445D01*
X65870481Y-82126444D01*
X65867241Y-82125931D01*
X65500000Y-82106685D01*
X65132759Y-82125931D01*
X65129519Y-82126444D01*
X65129511Y-82126445D01*
X64962558Y-82152888D01*
X64769541Y-82183459D01*
X64414326Y-82278639D01*
X64411238Y-82279824D01*
X64411236Y-82279825D01*
X64297954Y-82323310D01*
X64071006Y-82410427D01*
X64068066Y-82411925D01*
X63746284Y-82575881D01*
X63746277Y-82575885D01*
X63743343Y-82577380D01*
X63740577Y-82579176D01*
X63740574Y-82579178D01*
X63662952Y-82629586D01*
X63434925Y-82777668D01*
X63149133Y-83009098D01*
X62889098Y-83269133D01*
X62657668Y-83554925D01*
X62457380Y-83863343D01*
X62290427Y-84191006D01*
X62158639Y-84534326D01*
X62063459Y-84889541D01*
X62005931Y-85252759D01*
X61986685Y-85620000D01*
X50508000Y-85620000D01*
X50508000Y-75270193D01*
X55649410Y-75270193D01*
X55656124Y-75349325D01*
X55657914Y-75359797D01*
X55713130Y-75572535D01*
X55716665Y-75582575D01*
X55806937Y-75782970D01*
X55812106Y-75792256D01*
X55934850Y-75974575D01*
X55941519Y-75982870D01*
X56093228Y-76141900D01*
X56101186Y-76148941D01*
X56277525Y-76280141D01*
X56286562Y-76285745D01*
X56482484Y-76385357D01*
X56492335Y-76389357D01*
X56702240Y-76454534D01*
X56712624Y-76456817D01*
X56728043Y-76458861D01*
X56742207Y-76456665D01*
X56746000Y-76443478D01*
X56746000Y-76441192D01*
X57254000Y-76441192D01*
X57257973Y-76454723D01*
X57268580Y-76456248D01*
X57386421Y-76431523D01*
X57396617Y-76428463D01*
X57601029Y-76347737D01*
X57610561Y-76343006D01*
X57798462Y-76228984D01*
X57807052Y-76222720D01*
X57973052Y-76078673D01*
X57980472Y-76071042D01*
X58119826Y-75901089D01*
X58125850Y-75892323D01*
X58141517Y-75864801D01*
X58192600Y-75815496D01*
X58262230Y-75801635D01*
X58328301Y-75827619D01*
X58355538Y-75856768D01*
X58434850Y-75974575D01*
X58441519Y-75982870D01*
X58593228Y-76141900D01*
X58601186Y-76148941D01*
X58777525Y-76280141D01*
X58786562Y-76285745D01*
X58982484Y-76385357D01*
X58992335Y-76389357D01*
X59202240Y-76454534D01*
X59212624Y-76456817D01*
X59228043Y-76458861D01*
X59242207Y-76456665D01*
X59246000Y-76443478D01*
X59246000Y-75272115D01*
X59241525Y-75256876D01*
X59240135Y-75255671D01*
X59232452Y-75254000D01*
X57272115Y-75254000D01*
X57256876Y-75258475D01*
X57255671Y-75259865D01*
X57254000Y-75267548D01*
X57254000Y-76441192D01*
X56746000Y-76441192D01*
X56746000Y-75272115D01*
X56741525Y-75256876D01*
X56740135Y-75255671D01*
X56732452Y-75254000D01*
X55666151Y-75254000D01*
X55651473Y-75258310D01*
X55649410Y-75270193D01*
X50508000Y-75270193D01*
X50508000Y-74728174D01*
X55646496Y-74728174D01*
X55647915Y-74741414D01*
X55662550Y-74746000D01*
X56727885Y-74746000D01*
X56743124Y-74741525D01*
X56744329Y-74740135D01*
X56746000Y-74732452D01*
X56746000Y-74727885D01*
X57254000Y-74727885D01*
X57258475Y-74743124D01*
X57259865Y-74744329D01*
X57267548Y-74746000D01*
X59227885Y-74746000D01*
X59243124Y-74741525D01*
X59244329Y-74740135D01*
X59246000Y-74732452D01*
X59246000Y-73558808D01*
X59242027Y-73545277D01*
X59231420Y-73543752D01*
X59113579Y-73568477D01*
X59103383Y-73571537D01*
X58898971Y-73652263D01*
X58889439Y-73656994D01*
X58701538Y-73771016D01*
X58692948Y-73777280D01*
X58526948Y-73921327D01*
X58519528Y-73928958D01*
X58380174Y-74098911D01*
X58374150Y-74107677D01*
X58358483Y-74135199D01*
X58307400Y-74184504D01*
X58237770Y-74198365D01*
X58171699Y-74172381D01*
X58144462Y-74143232D01*
X58065150Y-74025425D01*
X58058481Y-74017130D01*
X57906772Y-73858100D01*
X57898814Y-73851059D01*
X57722475Y-73719859D01*
X57713438Y-73714255D01*
X57517516Y-73614643D01*
X57507665Y-73610643D01*
X57297760Y-73545466D01*
X57287376Y-73543183D01*
X57271957Y-73541139D01*
X57257793Y-73543335D01*
X57254000Y-73556522D01*
X57254000Y-74727885D01*
X56746000Y-74727885D01*
X56746000Y-73558808D01*
X56742027Y-73545277D01*
X56731420Y-73543752D01*
X56613579Y-73568477D01*
X56603383Y-73571537D01*
X56398971Y-73652263D01*
X56389439Y-73656994D01*
X56201538Y-73771016D01*
X56192948Y-73777280D01*
X56026948Y-73921327D01*
X56019528Y-73928958D01*
X55880174Y-74098911D01*
X55874150Y-74107678D01*
X55765424Y-74298682D01*
X55760959Y-74308346D01*
X55685969Y-74514941D01*
X55683198Y-74525208D01*
X55646496Y-74728174D01*
X50508000Y-74728174D01*
X50508000Y-58126000D01*
X50528002Y-58057879D01*
X50581658Y-58011386D01*
X50634000Y-58000000D01*
X58000000Y-58000000D01*
X58000000Y-50634000D01*
X58020002Y-50565879D01*
X58073658Y-50519386D01*
X58126000Y-50508000D01*
X72874000Y-50508000D01*
X72942121Y-50528002D01*
G37*
%TD.AperFunction*%
%TD*%
%TA.AperFunction,Conductor*%
%TO.N,HVGND*%
G36*
X105942121Y-50020502D02*
G01*
X105988614Y-50074158D01*
X106000000Y-50126500D01*
X106000000Y-76000000D01*
X107084334Y-77084334D01*
X107118360Y-77146646D01*
X107113295Y-77217461D01*
X107070748Y-77274297D01*
X107004228Y-77299108D01*
X106994580Y-77299427D01*
X106948745Y-77299187D01*
X106918895Y-77299031D01*
X106911508Y-77300805D01*
X106911504Y-77300805D01*
X106768162Y-77335220D01*
X106754032Y-77338612D01*
X106747288Y-77342093D01*
X106747285Y-77342094D01*
X106610117Y-77412892D01*
X106603369Y-77416375D01*
X106475604Y-77527831D01*
X106378113Y-77666547D01*
X106316524Y-77824513D01*
X106299500Y-77953826D01*
X106299500Y-100042516D01*
X106314724Y-100168320D01*
X106374655Y-100326923D01*
X106470688Y-100466651D01*
X106476358Y-100471703D01*
X106476359Y-100471704D01*
X106591608Y-100574388D01*
X106591612Y-100574390D01*
X106597279Y-100579440D01*
X106747119Y-100658776D01*
X106911559Y-100700081D01*
X106919157Y-100700121D01*
X106919159Y-100700121D01*
X106996332Y-100700525D01*
X107081105Y-100700969D01*
X107088492Y-100699195D01*
X107088496Y-100699195D01*
X107238583Y-100663161D01*
X107245968Y-100661388D01*
X107252712Y-100657907D01*
X107252715Y-100657906D01*
X107389883Y-100587108D01*
X107389884Y-100587108D01*
X107396631Y-100583625D01*
X107524396Y-100472169D01*
X107621887Y-100333453D01*
X107683476Y-100175487D01*
X107700500Y-100046174D01*
X107700500Y-78004690D01*
X107720502Y-77936569D01*
X107774158Y-77890076D01*
X107844432Y-77879972D01*
X107909012Y-77909466D01*
X107915595Y-77915595D01*
X115963095Y-85963095D01*
X115997121Y-86025407D01*
X116000000Y-86052190D01*
X116000000Y-100947810D01*
X115979998Y-101015931D01*
X115963095Y-101036905D01*
X106000000Y-111000000D01*
X106000000Y-119873500D01*
X105979998Y-119941621D01*
X105926342Y-119988114D01*
X105874000Y-119999500D01*
X86126000Y-119999500D01*
X86057879Y-119979498D01*
X86011386Y-119925842D01*
X86000000Y-119873500D01*
X86000000Y-113575244D01*
X93294769Y-113575244D01*
X93309756Y-113932806D01*
X93364506Y-114286470D01*
X93458337Y-114631827D01*
X93590080Y-114964572D01*
X93591735Y-114967684D01*
X93591737Y-114967689D01*
X93756436Y-115277443D01*
X93756442Y-115277453D01*
X93758093Y-115280558D01*
X93760085Y-115283467D01*
X93958290Y-115572940D01*
X93958295Y-115572946D01*
X93960281Y-115575847D01*
X94194125Y-115846757D01*
X94456710Y-116089913D01*
X94744763Y-116302284D01*
X94747800Y-116304038D01*
X94747804Y-116304040D01*
X94911892Y-116398776D01*
X95054693Y-116481222D01*
X95183748Y-116537605D01*
X95379416Y-116623091D01*
X95379420Y-116623092D01*
X95382637Y-116624498D01*
X95385994Y-116625537D01*
X95385999Y-116625539D01*
X95528173Y-116669549D01*
X95724509Y-116730325D01*
X95727965Y-116730984D01*
X95727964Y-116730984D01*
X96072595Y-116796726D01*
X96072600Y-116796727D01*
X96076046Y-116797384D01*
X96272145Y-116812473D01*
X96429371Y-116824571D01*
X96429372Y-116824571D01*
X96432868Y-116824840D01*
X96656962Y-116817014D01*
X96787012Y-116812473D01*
X96787016Y-116812473D01*
X96790527Y-116812350D01*
X96794008Y-116811836D01*
X97141072Y-116760587D01*
X97141078Y-116760586D01*
X97144564Y-116760071D01*
X97147968Y-116759172D01*
X97147971Y-116759171D01*
X97487176Y-116669549D01*
X97487177Y-116669549D01*
X97490567Y-116668653D01*
X97824224Y-116539236D01*
X98141375Y-116373433D01*
X98438068Y-116173311D01*
X98536061Y-116089913D01*
X98707932Y-115943639D01*
X98707933Y-115943638D01*
X98710605Y-115941364D01*
X98713000Y-115938814D01*
X98713008Y-115938806D01*
X98953177Y-115683051D01*
X98953181Y-115683046D01*
X98955588Y-115680483D01*
X98957693Y-115677669D01*
X98957699Y-115677662D01*
X99167856Y-115396739D01*
X99169965Y-115393920D01*
X99351062Y-115085247D01*
X99377833Y-115025118D01*
X99495192Y-114761528D01*
X99495194Y-114761523D01*
X99496624Y-114758311D01*
X99604835Y-114417186D01*
X99674347Y-114066125D01*
X99704293Y-113709504D01*
X99705195Y-113644970D01*
X99705513Y-113622178D01*
X99705513Y-113622166D01*
X99705543Y-113620000D01*
X99685566Y-113262682D01*
X99659099Y-113106200D01*
X99626472Y-112913298D01*
X99626471Y-112913294D01*
X99625883Y-112909817D01*
X99607976Y-112847366D01*
X99528208Y-112569184D01*
X99527239Y-112565804D01*
X99479354Y-112449627D01*
X99392201Y-112238176D01*
X99392197Y-112238168D01*
X99390863Y-112234931D01*
X99218455Y-111921321D01*
X99012163Y-111628884D01*
X98774560Y-111361265D01*
X98508605Y-111121799D01*
X98505755Y-111119758D01*
X98505748Y-111119753D01*
X98220470Y-110915514D01*
X98220467Y-110915512D01*
X98217616Y-110913471D01*
X97905218Y-110738877D01*
X97575304Y-110600194D01*
X97571935Y-110599203D01*
X97571931Y-110599201D01*
X97420353Y-110554589D01*
X97231989Y-110499151D01*
X96950508Y-110449518D01*
X96883009Y-110437616D01*
X96883007Y-110437616D01*
X96879549Y-110437006D01*
X96876040Y-110436785D01*
X96876038Y-110436785D01*
X96525897Y-110414756D01*
X96525891Y-110414756D01*
X96522379Y-110414535D01*
X96420609Y-110419512D01*
X96168437Y-110431845D01*
X96168428Y-110431846D01*
X96164930Y-110432017D01*
X96161462Y-110432579D01*
X96161459Y-110432579D01*
X95815132Y-110488672D01*
X95815129Y-110488673D01*
X95811657Y-110489235D01*
X95466963Y-110585475D01*
X95135146Y-110719538D01*
X94820341Y-110889753D01*
X94526471Y-111093998D01*
X94523829Y-111096311D01*
X94523825Y-111096314D01*
X94270358Y-111318207D01*
X94257199Y-111329727D01*
X94015882Y-111594003D01*
X93805528Y-111883531D01*
X93628757Y-112194703D01*
X93487775Y-112523640D01*
X93449051Y-112651901D01*
X93403588Y-112802481D01*
X93384337Y-112866242D01*
X93376962Y-112906427D01*
X93329573Y-113164631D01*
X93319734Y-113218239D01*
X93294769Y-113575244D01*
X86000000Y-113575244D01*
X86000000Y-108759748D01*
X93299500Y-108759748D01*
X93311133Y-108818231D01*
X93355448Y-108884552D01*
X93421769Y-108928867D01*
X93433938Y-108931288D01*
X93433939Y-108931288D01*
X93474184Y-108939293D01*
X93480252Y-108940500D01*
X103519748Y-108940500D01*
X103525816Y-108939293D01*
X103566061Y-108931288D01*
X103566062Y-108931288D01*
X103578231Y-108928867D01*
X103644552Y-108884552D01*
X103688867Y-108818231D01*
X103700500Y-108759748D01*
X103700500Y-105720252D01*
X103688867Y-105661769D01*
X103644552Y-105595448D01*
X103578231Y-105551133D01*
X103566062Y-105548712D01*
X103566061Y-105548712D01*
X103525816Y-105540707D01*
X103519748Y-105539500D01*
X93480252Y-105539500D01*
X93474184Y-105540707D01*
X93433939Y-105548712D01*
X93433938Y-105548712D01*
X93421769Y-105551133D01*
X93355448Y-105595448D01*
X93311133Y-105661769D01*
X93299500Y-105720252D01*
X93299500Y-108759748D01*
X86000000Y-108759748D01*
X86000000Y-103679748D01*
X93299500Y-103679748D01*
X93311133Y-103738231D01*
X93355448Y-103804552D01*
X93421769Y-103848867D01*
X93433938Y-103851288D01*
X93433939Y-103851288D01*
X93474184Y-103859293D01*
X93480252Y-103860500D01*
X103519748Y-103860500D01*
X103525816Y-103859293D01*
X103566061Y-103851288D01*
X103566062Y-103851288D01*
X103578231Y-103848867D01*
X103644552Y-103804552D01*
X103688867Y-103738231D01*
X103700500Y-103679748D01*
X103700500Y-100640252D01*
X103688867Y-100581769D01*
X103644552Y-100515448D01*
X103578231Y-100471133D01*
X103566062Y-100468712D01*
X103566061Y-100468712D01*
X103525816Y-100460707D01*
X103519748Y-100459500D01*
X93480252Y-100459500D01*
X93474184Y-100460707D01*
X93433939Y-100468712D01*
X93433938Y-100468712D01*
X93421769Y-100471133D01*
X93355448Y-100515448D01*
X93311133Y-100581769D01*
X93299500Y-100640252D01*
X93299500Y-103679748D01*
X86000000Y-103679748D01*
X86000000Y-98599748D01*
X93299500Y-98599748D01*
X93311133Y-98658231D01*
X93355448Y-98724552D01*
X93421769Y-98768867D01*
X93433938Y-98771288D01*
X93433939Y-98771288D01*
X93474184Y-98779293D01*
X93480252Y-98780500D01*
X103519748Y-98780500D01*
X103525816Y-98779293D01*
X103566061Y-98771288D01*
X103566062Y-98771288D01*
X103578231Y-98768867D01*
X103644552Y-98724552D01*
X103688867Y-98658231D01*
X103700500Y-98599748D01*
X103700500Y-95560252D01*
X103688867Y-95501769D01*
X103644552Y-95435448D01*
X103578231Y-95391133D01*
X103566062Y-95388712D01*
X103566061Y-95388712D01*
X103525816Y-95380707D01*
X103519748Y-95379500D01*
X93480252Y-95379500D01*
X93474184Y-95380707D01*
X93433939Y-95388712D01*
X93433938Y-95388712D01*
X93421769Y-95391133D01*
X93355448Y-95435448D01*
X93311133Y-95501769D01*
X93299500Y-95560252D01*
X93299500Y-98599748D01*
X86000000Y-98599748D01*
X86000000Y-93544669D01*
X92992001Y-93544669D01*
X92992371Y-93551490D01*
X92997895Y-93602352D01*
X93001521Y-93617604D01*
X93046676Y-93738054D01*
X93055214Y-93753649D01*
X93131715Y-93855724D01*
X93144276Y-93868285D01*
X93246351Y-93944786D01*
X93261946Y-93953324D01*
X93382394Y-93998478D01*
X93397649Y-94002105D01*
X93448514Y-94007631D01*
X93455328Y-94008000D01*
X98227885Y-94008000D01*
X98243124Y-94003525D01*
X98244329Y-94002135D01*
X98246000Y-93994452D01*
X98246000Y-93989884D01*
X98754000Y-93989884D01*
X98758475Y-94005123D01*
X98759865Y-94006328D01*
X98767548Y-94007999D01*
X103544669Y-94007999D01*
X103551490Y-94007629D01*
X103602352Y-94002105D01*
X103617604Y-93998479D01*
X103738054Y-93953324D01*
X103753649Y-93944786D01*
X103855724Y-93868285D01*
X103868285Y-93855724D01*
X103944786Y-93753649D01*
X103953324Y-93738054D01*
X103998478Y-93617606D01*
X104002105Y-93602351D01*
X104007631Y-93551486D01*
X104008000Y-93544672D01*
X104008000Y-92272115D01*
X104003525Y-92256876D01*
X104002135Y-92255671D01*
X103994452Y-92254000D01*
X98772115Y-92254000D01*
X98756876Y-92258475D01*
X98755671Y-92259865D01*
X98754000Y-92267548D01*
X98754000Y-93989884D01*
X98246000Y-93989884D01*
X98246000Y-92272115D01*
X98241525Y-92256876D01*
X98240135Y-92255671D01*
X98232452Y-92254000D01*
X93010116Y-92254000D01*
X92994877Y-92258475D01*
X92993672Y-92259865D01*
X92992001Y-92267548D01*
X92992001Y-93544669D01*
X86000000Y-93544669D01*
X86000000Y-91727885D01*
X92992000Y-91727885D01*
X92996475Y-91743124D01*
X92997865Y-91744329D01*
X93005548Y-91746000D01*
X98227885Y-91746000D01*
X98243124Y-91741525D01*
X98244329Y-91740135D01*
X98246000Y-91732452D01*
X98246000Y-91727885D01*
X98754000Y-91727885D01*
X98758475Y-91743124D01*
X98759865Y-91744329D01*
X98767548Y-91746000D01*
X103989884Y-91746000D01*
X104005123Y-91741525D01*
X104006328Y-91740135D01*
X104007999Y-91732452D01*
X104007999Y-90455331D01*
X104007629Y-90448510D01*
X104002105Y-90397648D01*
X103998479Y-90382396D01*
X103953324Y-90261946D01*
X103944786Y-90246351D01*
X103868285Y-90144276D01*
X103855724Y-90131715D01*
X103753649Y-90055214D01*
X103738054Y-90046676D01*
X103617606Y-90001522D01*
X103602351Y-89997895D01*
X103551486Y-89992369D01*
X103544672Y-89992000D01*
X98772115Y-89992000D01*
X98756876Y-89996475D01*
X98755671Y-89997865D01*
X98754000Y-90005548D01*
X98754000Y-91727885D01*
X98246000Y-91727885D01*
X98246000Y-90010116D01*
X98241525Y-89994877D01*
X98240135Y-89993672D01*
X98232452Y-89992001D01*
X93455331Y-89992001D01*
X93448510Y-89992371D01*
X93397648Y-89997895D01*
X93382396Y-90001521D01*
X93261946Y-90046676D01*
X93246351Y-90055214D01*
X93144276Y-90131715D01*
X93131715Y-90144276D01*
X93055214Y-90246351D01*
X93046676Y-90261946D01*
X93001522Y-90382394D01*
X92997895Y-90397649D01*
X92992369Y-90448514D01*
X92992000Y-90455328D01*
X92992000Y-91727885D01*
X86000000Y-91727885D01*
X86000000Y-85575244D01*
X93294769Y-85575244D01*
X93309756Y-85932806D01*
X93364506Y-86286470D01*
X93458337Y-86631827D01*
X93590080Y-86964572D01*
X93591735Y-86967684D01*
X93591737Y-86967689D01*
X93756436Y-87277443D01*
X93756442Y-87277453D01*
X93758093Y-87280558D01*
X93760085Y-87283467D01*
X93958290Y-87572940D01*
X93958295Y-87572946D01*
X93960281Y-87575847D01*
X94194125Y-87846757D01*
X94456710Y-88089913D01*
X94744763Y-88302284D01*
X94747800Y-88304038D01*
X94747804Y-88304040D01*
X94911892Y-88398776D01*
X95054693Y-88481222D01*
X95183748Y-88537605D01*
X95379416Y-88623091D01*
X95379420Y-88623092D01*
X95382637Y-88624498D01*
X95385994Y-88625537D01*
X95385999Y-88625539D01*
X95528173Y-88669549D01*
X95724509Y-88730325D01*
X95727965Y-88730984D01*
X95727964Y-88730984D01*
X96072595Y-88796726D01*
X96072600Y-88796727D01*
X96076046Y-88797384D01*
X96272145Y-88812473D01*
X96429371Y-88824571D01*
X96429372Y-88824571D01*
X96432868Y-88824840D01*
X96656962Y-88817014D01*
X96787012Y-88812473D01*
X96787016Y-88812473D01*
X96790527Y-88812350D01*
X96794008Y-88811836D01*
X97141072Y-88760587D01*
X97141078Y-88760586D01*
X97144564Y-88760071D01*
X97147968Y-88759172D01*
X97147971Y-88759171D01*
X97487176Y-88669549D01*
X97487177Y-88669549D01*
X97490567Y-88668653D01*
X97824224Y-88539236D01*
X98141375Y-88373433D01*
X98438068Y-88173311D01*
X98536061Y-88089913D01*
X98707932Y-87943639D01*
X98707933Y-87943638D01*
X98710605Y-87941364D01*
X98713000Y-87938814D01*
X98713008Y-87938806D01*
X98953177Y-87683051D01*
X98953181Y-87683046D01*
X98955588Y-87680483D01*
X98957693Y-87677669D01*
X98957699Y-87677662D01*
X99167856Y-87396739D01*
X99169965Y-87393920D01*
X99351062Y-87085247D01*
X99352494Y-87082031D01*
X99495192Y-86761528D01*
X99495194Y-86761523D01*
X99496624Y-86758311D01*
X99604835Y-86417186D01*
X99674347Y-86066125D01*
X99704293Y-85709504D01*
X99705543Y-85620000D01*
X99685566Y-85262682D01*
X99625883Y-84909817D01*
X99527239Y-84565804D01*
X99479354Y-84449627D01*
X99392201Y-84238176D01*
X99392197Y-84238168D01*
X99390863Y-84234931D01*
X99218455Y-83921321D01*
X99012163Y-83628884D01*
X98774560Y-83361265D01*
X98508605Y-83121799D01*
X98505755Y-83119758D01*
X98505748Y-83119753D01*
X98220470Y-82915514D01*
X98220467Y-82915512D01*
X98217616Y-82913471D01*
X97905218Y-82738877D01*
X97575304Y-82600194D01*
X97571935Y-82599203D01*
X97571931Y-82599201D01*
X97420353Y-82554589D01*
X97231989Y-82499151D01*
X96950508Y-82449518D01*
X96883009Y-82437616D01*
X96883007Y-82437616D01*
X96879549Y-82437006D01*
X96876040Y-82436785D01*
X96876038Y-82436785D01*
X96525897Y-82414756D01*
X96525891Y-82414756D01*
X96522379Y-82414535D01*
X96420609Y-82419512D01*
X96168437Y-82431845D01*
X96168428Y-82431846D01*
X96164930Y-82432017D01*
X96161462Y-82432579D01*
X96161459Y-82432579D01*
X95815132Y-82488672D01*
X95815129Y-82488673D01*
X95811657Y-82489235D01*
X95466963Y-82585475D01*
X95135146Y-82719538D01*
X94820341Y-82889753D01*
X94526471Y-83093998D01*
X94523829Y-83096311D01*
X94523825Y-83096314D01*
X94270358Y-83318207D01*
X94257199Y-83329727D01*
X94015882Y-83594003D01*
X93805528Y-83883531D01*
X93628757Y-84194703D01*
X93487775Y-84523640D01*
X93384337Y-84866242D01*
X93319734Y-85218239D01*
X93294769Y-85575244D01*
X86000000Y-85575244D01*
X86000000Y-63757748D01*
X88854500Y-63757748D01*
X88866133Y-63816231D01*
X88910448Y-63882552D01*
X88976769Y-63926867D01*
X88988938Y-63929288D01*
X88988939Y-63929288D01*
X89029184Y-63937293D01*
X89035252Y-63938500D01*
X90774748Y-63938500D01*
X90780816Y-63937293D01*
X90821061Y-63929288D01*
X90821062Y-63929288D01*
X90833231Y-63926867D01*
X90899552Y-63882552D01*
X90943867Y-63816231D01*
X90955500Y-63757748D01*
X90955500Y-62018252D01*
X90943867Y-61959769D01*
X90899552Y-61893448D01*
X90833231Y-61849133D01*
X90821062Y-61846712D01*
X90821061Y-61846712D01*
X90780816Y-61838707D01*
X90774748Y-61837500D01*
X89035252Y-61837500D01*
X89029184Y-61838707D01*
X88988939Y-61846712D01*
X88988938Y-61846712D01*
X88976769Y-61849133D01*
X88910448Y-61893448D01*
X88866133Y-61959769D01*
X88854500Y-62018252D01*
X88854500Y-63757748D01*
X86000000Y-63757748D01*
X86000000Y-61191114D01*
X95948275Y-61191114D01*
X95950325Y-61208830D01*
X95952285Y-61218727D01*
X96015604Y-61442494D01*
X96019116Y-61451938D01*
X96117399Y-61662705D01*
X96122378Y-61671471D01*
X96253087Y-61863802D01*
X96259419Y-61871677D01*
X96419186Y-62040626D01*
X96426695Y-62047387D01*
X96611426Y-62188625D01*
X96619901Y-62194086D01*
X96738659Y-62257764D01*
X96789242Y-62307582D01*
X96804861Y-62376840D01*
X96780557Y-62443547D01*
X96754508Y-62469764D01*
X96628267Y-62564033D01*
X96478499Y-62726051D01*
X96360764Y-62912650D01*
X96279006Y-63117579D01*
X96235962Y-63333976D01*
X96235886Y-63339751D01*
X96235886Y-63339755D01*
X96235475Y-63371188D01*
X96233074Y-63554594D01*
X96234053Y-63560291D01*
X96234053Y-63560292D01*
X96238475Y-63586024D01*
X96270438Y-63772043D01*
X96346804Y-63979043D01*
X96459614Y-64168659D01*
X96605090Y-64334543D01*
X96778360Y-64471137D01*
X96973620Y-64573869D01*
X97088592Y-64609569D01*
X97147716Y-64648871D01*
X97176207Y-64713900D01*
X97165017Y-64784010D01*
X97117700Y-64836940D01*
X97085427Y-64851170D01*
X97002936Y-64874435D01*
X96805053Y-64972020D01*
X96800427Y-64975474D01*
X96800426Y-64975475D01*
X96777709Y-64992439D01*
X96628267Y-65104033D01*
X96478499Y-65266051D01*
X96360764Y-65452650D01*
X96279006Y-65657579D01*
X96235962Y-65873976D01*
X96235886Y-65879751D01*
X96235886Y-65879755D01*
X96235475Y-65911188D01*
X96233074Y-66094594D01*
X96234053Y-66100291D01*
X96234053Y-66100292D01*
X96238475Y-66126024D01*
X96270438Y-66312043D01*
X96346804Y-66519043D01*
X96459614Y-66708659D01*
X96605090Y-66874543D01*
X96778360Y-67011137D01*
X96973620Y-67113869D01*
X97088592Y-67149569D01*
X97147716Y-67188871D01*
X97176207Y-67253900D01*
X97165017Y-67324010D01*
X97117700Y-67376940D01*
X97085427Y-67391170D01*
X97002936Y-67414435D01*
X96805053Y-67512020D01*
X96800427Y-67515474D01*
X96800426Y-67515475D01*
X96777709Y-67532439D01*
X96628267Y-67644033D01*
X96478499Y-67806051D01*
X96360764Y-67992650D01*
X96279006Y-68197579D01*
X96235962Y-68413976D01*
X96235886Y-68419751D01*
X96235886Y-68419755D01*
X96235475Y-68451188D01*
X96233074Y-68634594D01*
X96234053Y-68640291D01*
X96234053Y-68640292D01*
X96238475Y-68666024D01*
X96270438Y-68852043D01*
X96346804Y-69059043D01*
X96459614Y-69248659D01*
X96605090Y-69414543D01*
X96778360Y-69551137D01*
X96973620Y-69653869D01*
X97088592Y-69689569D01*
X97147716Y-69728871D01*
X97176207Y-69793900D01*
X97165017Y-69864010D01*
X97117700Y-69916940D01*
X97085427Y-69931170D01*
X97002936Y-69954435D01*
X96805053Y-70052020D01*
X96800427Y-70055474D01*
X96800426Y-70055475D01*
X96777709Y-70072439D01*
X96628267Y-70184033D01*
X96478499Y-70346051D01*
X96360764Y-70532650D01*
X96279006Y-70737579D01*
X96235962Y-70953976D01*
X96235886Y-70959751D01*
X96235886Y-70959755D01*
X96235475Y-70991188D01*
X96233074Y-71174594D01*
X96234053Y-71180291D01*
X96234053Y-71180292D01*
X96265182Y-71361452D01*
X96270438Y-71392043D01*
X96346804Y-71599043D01*
X96459614Y-71788659D01*
X96605090Y-71954543D01*
X96778360Y-72091137D01*
X96973620Y-72193869D01*
X97184333Y-72259297D01*
X97190070Y-72259976D01*
X97359789Y-72280064D01*
X97359795Y-72280064D01*
X97363476Y-72280500D01*
X100490970Y-72280500D01*
X100654711Y-72265454D01*
X100660273Y-72263885D01*
X100660275Y-72263885D01*
X100792354Y-72226635D01*
X100867064Y-72205565D01*
X101064947Y-72107980D01*
X101087503Y-72091137D01*
X101237109Y-71979420D01*
X101237110Y-71979420D01*
X101241733Y-71975967D01*
X101391501Y-71813949D01*
X101509236Y-71627350D01*
X101590994Y-71422421D01*
X101603122Y-71361452D01*
X101632911Y-71211691D01*
X101632911Y-71211688D01*
X101634038Y-71206024D01*
X101634450Y-71174594D01*
X101636850Y-70991188D01*
X101636926Y-70985406D01*
X101635947Y-70979708D01*
X101600541Y-70773654D01*
X101600541Y-70773653D01*
X101599562Y-70767957D01*
X101523196Y-70560957D01*
X101410386Y-70371341D01*
X101264910Y-70205457D01*
X101091640Y-70068863D01*
X100896380Y-69966131D01*
X100781408Y-69930431D01*
X100722284Y-69891129D01*
X100693793Y-69826100D01*
X100704983Y-69755990D01*
X100752300Y-69703060D01*
X100784572Y-69688830D01*
X100816754Y-69679754D01*
X100867064Y-69665565D01*
X101064947Y-69567980D01*
X101087503Y-69551137D01*
X101237109Y-69439420D01*
X101237110Y-69439420D01*
X101241733Y-69435967D01*
X101391501Y-69273949D01*
X101509236Y-69087350D01*
X101590994Y-68882421D01*
X101634038Y-68666024D01*
X101634450Y-68634594D01*
X101636850Y-68451188D01*
X101636926Y-68445406D01*
X101635947Y-68439708D01*
X101600541Y-68233654D01*
X101600541Y-68233653D01*
X101599562Y-68227957D01*
X101523196Y-68020957D01*
X101410386Y-67831341D01*
X101264910Y-67665457D01*
X101091640Y-67528863D01*
X100896380Y-67426131D01*
X100781408Y-67390431D01*
X100722284Y-67351129D01*
X100693793Y-67286100D01*
X100704983Y-67215990D01*
X100752300Y-67163060D01*
X100784572Y-67148830D01*
X100816754Y-67139754D01*
X100867064Y-67125565D01*
X101064947Y-67027980D01*
X101087503Y-67011137D01*
X101237109Y-66899420D01*
X101237110Y-66899420D01*
X101241733Y-66895967D01*
X101391501Y-66733949D01*
X101509236Y-66547350D01*
X101590994Y-66342421D01*
X101634038Y-66126024D01*
X101634450Y-66094594D01*
X101636850Y-65911188D01*
X101636926Y-65905406D01*
X101635947Y-65899708D01*
X101600541Y-65693654D01*
X101600541Y-65693653D01*
X101599562Y-65687957D01*
X101523196Y-65480957D01*
X101410386Y-65291341D01*
X101264910Y-65125457D01*
X101091640Y-64988863D01*
X100896380Y-64886131D01*
X100781408Y-64850431D01*
X100722284Y-64811129D01*
X100693793Y-64746100D01*
X100704983Y-64675990D01*
X100752300Y-64623060D01*
X100784572Y-64608830D01*
X100816754Y-64599754D01*
X100867064Y-64585565D01*
X101064947Y-64487980D01*
X101087503Y-64471137D01*
X101237109Y-64359420D01*
X101237110Y-64359420D01*
X101241733Y-64355967D01*
X101391501Y-64193949D01*
X101509236Y-64007350D01*
X101590994Y-63802421D01*
X101634038Y-63586024D01*
X101634450Y-63554594D01*
X101636850Y-63371188D01*
X101636926Y-63365406D01*
X101635947Y-63359708D01*
X101600541Y-63153654D01*
X101600541Y-63153653D01*
X101599562Y-63147957D01*
X101523196Y-62940957D01*
X101410386Y-62751341D01*
X101264910Y-62585457D01*
X101118274Y-62469859D01*
X101077161Y-62411981D01*
X101073867Y-62341061D01*
X101109438Y-62279618D01*
X101137900Y-62259252D01*
X101140201Y-62258049D01*
X101336987Y-62134126D01*
X101345060Y-62128086D01*
X101519500Y-61974297D01*
X101526504Y-61967044D01*
X101674110Y-61787346D01*
X101679866Y-61779064D01*
X101796841Y-61578081D01*
X101801203Y-61568976D01*
X101884537Y-61351885D01*
X101887388Y-61342196D01*
X101918821Y-61191736D01*
X101917698Y-61177675D01*
X101907590Y-61174000D01*
X95964410Y-61174000D01*
X95950324Y-61178136D01*
X95948275Y-61191114D01*
X86000000Y-61191114D01*
X86000000Y-60648264D01*
X95951179Y-60648264D01*
X95952302Y-60662325D01*
X95962410Y-60666000D01*
X98662885Y-60666000D01*
X98678124Y-60661525D01*
X98679329Y-60660135D01*
X98681000Y-60652452D01*
X98681000Y-60647885D01*
X99189000Y-60647885D01*
X99193475Y-60663124D01*
X99194865Y-60664329D01*
X99202548Y-60666000D01*
X101905590Y-60666000D01*
X101919676Y-60661864D01*
X101921725Y-60648886D01*
X101919675Y-60631170D01*
X101917715Y-60621273D01*
X101854396Y-60397506D01*
X101850884Y-60388062D01*
X101752601Y-60177295D01*
X101747622Y-60168529D01*
X101616913Y-59976198D01*
X101610581Y-59968323D01*
X101450814Y-59799374D01*
X101443305Y-59792613D01*
X101258574Y-59651375D01*
X101250095Y-59645911D01*
X101045153Y-59536022D01*
X101035901Y-59531980D01*
X100816029Y-59456273D01*
X100806257Y-59453764D01*
X100576029Y-59413996D01*
X100568157Y-59413141D01*
X100544449Y-59412064D01*
X100541616Y-59412000D01*
X99207115Y-59412000D01*
X99191876Y-59416475D01*
X99190671Y-59417865D01*
X99189000Y-59425548D01*
X99189000Y-60647885D01*
X98681000Y-60647885D01*
X98681000Y-59430115D01*
X98676525Y-59414876D01*
X98675135Y-59413671D01*
X98667452Y-59412000D01*
X97376544Y-59412000D01*
X97371512Y-59412202D01*
X97198157Y-59426150D01*
X97188204Y-59427762D01*
X96962367Y-59483233D01*
X96952797Y-59486416D01*
X96738735Y-59577280D01*
X96729793Y-59581955D01*
X96533013Y-59705874D01*
X96524940Y-59711914D01*
X96350500Y-59865703D01*
X96343496Y-59872956D01*
X96195890Y-60052654D01*
X96190134Y-60060936D01*
X96073159Y-60261919D01*
X96068797Y-60271024D01*
X95985463Y-60488115D01*
X95982612Y-60497804D01*
X95951179Y-60648264D01*
X86000000Y-60648264D01*
X86000000Y-50126500D01*
X86020002Y-50058379D01*
X86073658Y-50011886D01*
X86126000Y-50000500D01*
X105874000Y-50000500D01*
X105942121Y-50020502D01*
G37*
%TD.AperFunction*%
%TD*%
%TA.AperFunction,NonConductor*%
G36*
X108196002Y-59403649D02*
G01*
X108249717Y-59439540D01*
X108255020Y-59441818D01*
X108255023Y-59441820D01*
X108352674Y-59483774D01*
X108452436Y-59526635D01*
X108458071Y-59527910D01*
X108458074Y-59527911D01*
X108459484Y-59528230D01*
X108460083Y-59528564D01*
X108463562Y-59529694D01*
X108463340Y-59530377D01*
X108521511Y-59562772D01*
X108555016Y-59625366D01*
X108549362Y-59696137D01*
X108506344Y-59752616D01*
X108475287Y-59769335D01*
X108311376Y-59829804D01*
X108311368Y-59829808D01*
X108305957Y-59831804D01*
X108198323Y-59895840D01*
X108190423Y-59900540D01*
X108121653Y-59918180D01*
X108054263Y-59895840D01*
X108009649Y-59840612D01*
X108000000Y-59792255D01*
X108000000Y-59508414D01*
X108020002Y-59440293D01*
X108073658Y-59393800D01*
X108143932Y-59383696D01*
X108196002Y-59403649D01*
G37*
%TD.AperFunction*%
%TA.AperFunction,NonConductor*%
G36*
X108196002Y-72103649D02*
G01*
X108249717Y-72139540D01*
X108255020Y-72141818D01*
X108255023Y-72141820D01*
X108442930Y-72222551D01*
X108452436Y-72226635D01*
X108458071Y-72227910D01*
X108458074Y-72227911D01*
X108459484Y-72228230D01*
X108460083Y-72228564D01*
X108463562Y-72229694D01*
X108463340Y-72230377D01*
X108521511Y-72262772D01*
X108555016Y-72325366D01*
X108549362Y-72396137D01*
X108506344Y-72452616D01*
X108475287Y-72469335D01*
X108311376Y-72529804D01*
X108311368Y-72529808D01*
X108305957Y-72531804D01*
X108198323Y-72595840D01*
X108190423Y-72600540D01*
X108121653Y-72618180D01*
X108054263Y-72595840D01*
X108009649Y-72540612D01*
X108000000Y-72492255D01*
X108000000Y-72208414D01*
X108020002Y-72140293D01*
X108073658Y-72093800D01*
X108143932Y-72083696D01*
X108196002Y-72103649D01*
G37*
%TD.AperFunction*%
%TA.AperFunction,NonConductor*%
G36*
X135942121Y-50020502D02*
G01*
X135988614Y-50074158D01*
X136000000Y-50126500D01*
X136000000Y-58000000D01*
X143873500Y-58000000D01*
X143941621Y-58020002D01*
X143988114Y-58073658D01*
X143999500Y-58126000D01*
X143999500Y-64874000D01*
X143979498Y-64942121D01*
X143925842Y-64988614D01*
X143873500Y-65000000D01*
X136000000Y-65000000D01*
X136000000Y-73000000D01*
X143873500Y-73000000D01*
X143941621Y-73020002D01*
X143988114Y-73073658D01*
X143999500Y-73126000D01*
X143999500Y-74999864D01*
X143999464Y-74999925D01*
X143999500Y-75000066D01*
X143999500Y-75000100D01*
X143999523Y-75000157D01*
X143999567Y-75000327D01*
X143999602Y-75000348D01*
X143999617Y-75000384D01*
X143999769Y-75000447D01*
X143999923Y-75000538D01*
X143999965Y-75000527D01*
X144000000Y-75000542D01*
X144000052Y-75000520D01*
X144124710Y-75022901D01*
X144234301Y-75042577D01*
X144234562Y-75042624D01*
X144500994Y-75091038D01*
X144509499Y-75092891D01*
X144633731Y-75124500D01*
X144756262Y-75155676D01*
X144757031Y-75155874D01*
X145005142Y-75220671D01*
X145013017Y-75223004D01*
X145257392Y-75304163D01*
X145258647Y-75304587D01*
X145302165Y-75319550D01*
X145498399Y-75387019D01*
X145505556Y-75389727D01*
X145744663Y-75488614D01*
X145746370Y-75489335D01*
X145978032Y-75589161D01*
X145984491Y-75592163D01*
X146100519Y-75650178D01*
X146216533Y-75708185D01*
X146218656Y-75709272D01*
X146441498Y-75826016D01*
X146447282Y-75829243D01*
X146670731Y-75961715D01*
X146673211Y-75963224D01*
X146843124Y-76069344D01*
X146886270Y-76096291D01*
X146891359Y-76099643D01*
X147104980Y-76247884D01*
X147107783Y-76249886D01*
X147309980Y-76398549D01*
X147314388Y-76401943D01*
X147439083Y-76502397D01*
X147472241Y-76529109D01*
X147516970Y-76565143D01*
X147520026Y-76567685D01*
X147710295Y-76731126D01*
X147714047Y-76734482D01*
X147904527Y-76911806D01*
X147907768Y-76914934D01*
X148085066Y-77092232D01*
X148088194Y-77095473D01*
X148265518Y-77285953D01*
X148268874Y-77289705D01*
X148432315Y-77479974D01*
X148434857Y-77483030D01*
X148598057Y-77685612D01*
X148601451Y-77690020D01*
X148750114Y-77892217D01*
X148752116Y-77895020D01*
X148900357Y-78108641D01*
X148903707Y-78113727D01*
X149022099Y-78303288D01*
X149036770Y-78326779D01*
X149038285Y-78329269D01*
X149170757Y-78552718D01*
X149173984Y-78558502D01*
X149290728Y-78781344D01*
X149291815Y-78783467D01*
X149407837Y-79015509D01*
X149410846Y-79021982D01*
X149510665Y-79253629D01*
X149511386Y-79255336D01*
X149610273Y-79494444D01*
X149612981Y-79501601D01*
X149661067Y-79641459D01*
X149695413Y-79741353D01*
X149695837Y-79742608D01*
X149776996Y-79986983D01*
X149779329Y-79994858D01*
X149844126Y-80242969D01*
X149844324Y-80243738D01*
X149907105Y-80490484D01*
X149908963Y-80499011D01*
X149957374Y-80765428D01*
X149957421Y-80765689D01*
X149997517Y-80989016D01*
X149999500Y-81011282D01*
X149999500Y-102997746D01*
X149999460Y-102999998D01*
X149999459Y-103000000D01*
X149999460Y-103000002D01*
X149999420Y-103002246D01*
X149990005Y-103265689D01*
X149989996Y-103265926D01*
X149981131Y-103501567D01*
X149980497Y-103510308D01*
X149952493Y-103770610D01*
X149952415Y-103771315D01*
X149925172Y-104011798D01*
X149923970Y-104019995D01*
X149878085Y-104274158D01*
X149877686Y-104276366D01*
X149877470Y-104277530D01*
X149831991Y-104516568D01*
X149830296Y-104524178D01*
X149765964Y-104776065D01*
X149765555Y-104777624D01*
X149753348Y-104822924D01*
X149702106Y-105013082D01*
X149699990Y-105020113D01*
X149617921Y-105266523D01*
X149617233Y-105268531D01*
X149608337Y-105293808D01*
X149536211Y-105498731D01*
X149533757Y-105505141D01*
X149434348Y-105744967D01*
X149433365Y-105747270D01*
X149391679Y-105842237D01*
X149335202Y-105970899D01*
X149332484Y-105976688D01*
X149216278Y-106208669D01*
X149214865Y-106211405D01*
X149100157Y-106427065D01*
X149097254Y-106432226D01*
X148964843Y-106655222D01*
X148962993Y-106658241D01*
X148879297Y-106790548D01*
X148832332Y-106864790D01*
X148829342Y-106869297D01*
X148725201Y-107019167D01*
X148681391Y-107082214D01*
X148679041Y-107085483D01*
X148621675Y-107162654D01*
X148533188Y-107281690D01*
X148530181Y-107285572D01*
X148466652Y-107364337D01*
X148367386Y-107487409D01*
X148364501Y-107490859D01*
X148204331Y-107675536D01*
X148201389Y-107678807D01*
X148024582Y-107868531D01*
X148021151Y-107872071D01*
X147847583Y-108044167D01*
X147844686Y-108046949D01*
X147661064Y-108217730D01*
X147654828Y-108223530D01*
X147650759Y-108227153D01*
X147464765Y-108385711D01*
X147462051Y-108387960D01*
X147338171Y-108487673D01*
X147260015Y-108550582D01*
X147255317Y-108554185D01*
X147159697Y-108624011D01*
X147058005Y-108698269D01*
X147055525Y-108700034D01*
X146842336Y-108847861D01*
X146836990Y-108851371D01*
X146629471Y-108980185D01*
X146627243Y-108981536D01*
X146495979Y-109059303D01*
X146403986Y-109113803D01*
X146398003Y-109117132D01*
X146181526Y-109229920D01*
X146179627Y-109230889D01*
X145947332Y-109346964D01*
X145940671Y-109350053D01*
X145853315Y-109387514D01*
X145716518Y-109446178D01*
X145715106Y-109446773D01*
X145550627Y-109514759D01*
X145474830Y-109546089D01*
X145467518Y-109548849D01*
X145237209Y-109627712D01*
X145236087Y-109628090D01*
X145088483Y-109677088D01*
X144988954Y-109710127D01*
X144981015Y-109712476D01*
X144746684Y-109773486D01*
X144746029Y-109773654D01*
X144492380Y-109838169D01*
X144483827Y-109840031D01*
X144400457Y-109855159D01*
X144251435Y-109882199D01*
X144251202Y-109882241D01*
X144138989Y-109902385D01*
X143990007Y-109929129D01*
X143989948Y-109929105D01*
X143989910Y-109929121D01*
X143989872Y-109929111D01*
X143989730Y-109929195D01*
X143989566Y-109929263D01*
X143989550Y-109929302D01*
X143989516Y-109929322D01*
X143989474Y-109929487D01*
X143989449Y-109929547D01*
X143989449Y-109929583D01*
X143989413Y-109929724D01*
X143989449Y-109929785D01*
X143990565Y-111048351D01*
X143991389Y-111873874D01*
X143971455Y-111942015D01*
X143917846Y-111988561D01*
X143865389Y-112000000D01*
X136000000Y-112000000D01*
X136000000Y-119873500D01*
X135979998Y-119941621D01*
X135926342Y-119988114D01*
X135874000Y-119999500D01*
X109126000Y-119999500D01*
X109057879Y-119979498D01*
X109011386Y-119925842D01*
X109000000Y-119873500D01*
X109000000Y-114803834D01*
X112949500Y-114803834D01*
X112952481Y-114835369D01*
X112997366Y-114963184D01*
X113002958Y-114970754D01*
X113002959Y-114970757D01*
X113051246Y-115036131D01*
X113077850Y-115072150D01*
X113085421Y-115077742D01*
X113179243Y-115147041D01*
X113179246Y-115147042D01*
X113186816Y-115152634D01*
X113314631Y-115197519D01*
X113322277Y-115198242D01*
X113322278Y-115198242D01*
X113328248Y-115198806D01*
X113346166Y-115200500D01*
X114653834Y-115200500D01*
X114671752Y-115198806D01*
X114677722Y-115198242D01*
X114677723Y-115198242D01*
X114685369Y-115197519D01*
X114813184Y-115152634D01*
X114820754Y-115147042D01*
X114820757Y-115147041D01*
X114914579Y-115077742D01*
X114922150Y-115072150D01*
X114948754Y-115036131D01*
X114997041Y-114970757D01*
X114997042Y-114970754D01*
X115002634Y-114963184D01*
X115047519Y-114835369D01*
X115050500Y-114803834D01*
X115050500Y-114201841D01*
X115449500Y-114201841D01*
X115464520Y-114355030D01*
X115524065Y-114552251D01*
X115620782Y-114734151D01*
X115675198Y-114800871D01*
X115747094Y-114889025D01*
X115747097Y-114889028D01*
X115750989Y-114893800D01*
X115755736Y-114897727D01*
X115755738Y-114897729D01*
X115904975Y-115021189D01*
X115904979Y-115021191D01*
X115909725Y-115025118D01*
X116090945Y-115123103D01*
X116287746Y-115184023D01*
X116293871Y-115184667D01*
X116293872Y-115184667D01*
X116486502Y-115204913D01*
X116486504Y-115204913D01*
X116492631Y-115205557D01*
X116580956Y-115197519D01*
X116691658Y-115187445D01*
X116691661Y-115187444D01*
X116697797Y-115186886D01*
X116895428Y-115128720D01*
X117077998Y-115033274D01*
X117082799Y-115029414D01*
X117082802Y-115029412D01*
X117233746Y-114908050D01*
X117233747Y-114908050D01*
X117238553Y-114904185D01*
X117370976Y-114746370D01*
X117373944Y-114740972D01*
X117373947Y-114740967D01*
X117467257Y-114571235D01*
X117470224Y-114565838D01*
X117526741Y-114387672D01*
X117530653Y-114375341D01*
X117532516Y-114369468D01*
X117533474Y-114360932D01*
X117550107Y-114212636D01*
X117550500Y-114209136D01*
X117550500Y-113798159D01*
X117535480Y-113644970D01*
X117475935Y-113447749D01*
X117379218Y-113265849D01*
X117290756Y-113157384D01*
X117252906Y-113110975D01*
X117252903Y-113110972D01*
X117249011Y-113106200D01*
X117175878Y-113045699D01*
X117095025Y-112978811D01*
X117095021Y-112978809D01*
X117090275Y-112974882D01*
X116909055Y-112876897D01*
X116712254Y-112815977D01*
X116706129Y-112815333D01*
X116706128Y-112815333D01*
X116513498Y-112795087D01*
X116513496Y-112795087D01*
X116507369Y-112794443D01*
X116426988Y-112801758D01*
X116308342Y-112812555D01*
X116308339Y-112812556D01*
X116302203Y-112813114D01*
X116104572Y-112871280D01*
X115922002Y-112966726D01*
X115917201Y-112970586D01*
X115917198Y-112970588D01*
X115844246Y-113029243D01*
X115761447Y-113095815D01*
X115629024Y-113253630D01*
X115626056Y-113259028D01*
X115626053Y-113259033D01*
X115619315Y-113271290D01*
X115529776Y-113434162D01*
X115467484Y-113630532D01*
X115466798Y-113636649D01*
X115466797Y-113636653D01*
X115459522Y-113701515D01*
X115449500Y-113790864D01*
X115449500Y-114201841D01*
X115050500Y-114201841D01*
X115050500Y-113196166D01*
X115047519Y-113164631D01*
X115002634Y-113036816D01*
X114997042Y-113029246D01*
X114997041Y-113029243D01*
X114927742Y-112935421D01*
X114922150Y-112927850D01*
X114905206Y-112915335D01*
X114820757Y-112852959D01*
X114820754Y-112852958D01*
X114813184Y-112847366D01*
X114685369Y-112802481D01*
X114677723Y-112801758D01*
X114677722Y-112801758D01*
X114671752Y-112801194D01*
X114653834Y-112799500D01*
X113346166Y-112799500D01*
X113328248Y-112801194D01*
X113322278Y-112801758D01*
X113322277Y-112801758D01*
X113314631Y-112802481D01*
X113186816Y-112847366D01*
X113179246Y-112852958D01*
X113179243Y-112852959D01*
X113094794Y-112915335D01*
X113077850Y-112927850D01*
X113072258Y-112935421D01*
X113002959Y-113029243D01*
X113002958Y-113029246D01*
X112997366Y-113036816D01*
X112952481Y-113164631D01*
X112949500Y-113196166D01*
X112949500Y-114803834D01*
X109000000Y-114803834D01*
X109000000Y-111048351D01*
X109020002Y-110980230D01*
X109032345Y-110964061D01*
X109504644Y-110439285D01*
X113325153Y-106194275D01*
X117987881Y-101013466D01*
X117987881Y-101013465D01*
X118000000Y-101000000D01*
X118000000Y-86000000D01*
X113960509Y-81556560D01*
X120319770Y-81556560D01*
X120322082Y-81576089D01*
X120330699Y-81648895D01*
X120331040Y-81652149D01*
X120339546Y-81744711D01*
X120341116Y-81750278D01*
X120341117Y-81750282D01*
X120341152Y-81750406D01*
X120345008Y-81769789D01*
X120345704Y-81775667D01*
X120347416Y-81781179D01*
X120373272Y-81864451D01*
X120374186Y-81867535D01*
X120399435Y-81957064D01*
X120401988Y-81962241D01*
X120401992Y-81962251D01*
X120402054Y-81962376D01*
X120409379Y-81980737D01*
X120411131Y-81986379D01*
X120453449Y-82066812D01*
X120454403Y-82068625D01*
X120455882Y-82071527D01*
X120497020Y-82154947D01*
X120500564Y-82159693D01*
X120511108Y-82176405D01*
X120513863Y-82181641D01*
X120517440Y-82186178D01*
X120571417Y-82254648D01*
X120573413Y-82257250D01*
X120629033Y-82331733D01*
X120654382Y-82355165D01*
X120692517Y-82390417D01*
X120696083Y-82393847D01*
X134583051Y-96280815D01*
X134594912Y-96294519D01*
X134604033Y-96306733D01*
X134608276Y-96310655D01*
X134667517Y-96365417D01*
X134671083Y-96368847D01*
X137485117Y-99182881D01*
X137519143Y-99245193D01*
X137514078Y-99316008D01*
X137503285Y-99338086D01*
X137351523Y-99584291D01*
X137252243Y-99745353D01*
X137252237Y-99745363D01*
X137250999Y-99747372D01*
X137249916Y-99749467D01*
X137249908Y-99749480D01*
X137130777Y-99979798D01*
X137023303Y-100187580D01*
X137022376Y-100189759D01*
X137022373Y-100189765D01*
X136856565Y-100579440D01*
X136829255Y-100643622D01*
X136669947Y-101112929D01*
X136546275Y-101592860D01*
X136545857Y-101595195D01*
X136527863Y-101695705D01*
X136496169Y-101759234D01*
X136435160Y-101795544D01*
X136403835Y-101799500D01*
X133175541Y-101799500D01*
X133167300Y-101799230D01*
X133150368Y-101798120D01*
X133099252Y-101794770D01*
X133006885Y-101805702D01*
X133003663Y-101806040D01*
X132911101Y-101814546D01*
X132905534Y-101816116D01*
X132905530Y-101816117D01*
X132905406Y-101816152D01*
X132886023Y-101820008D01*
X132885886Y-101820025D01*
X132880145Y-101820704D01*
X132791361Y-101848272D01*
X132788277Y-101849186D01*
X132698748Y-101874435D01*
X132693571Y-101876988D01*
X132693561Y-101876992D01*
X132693436Y-101877054D01*
X132675075Y-101884379D01*
X132674952Y-101884417D01*
X132674948Y-101884419D01*
X132669433Y-101886131D01*
X132587187Y-101929403D01*
X132584256Y-101930896D01*
X132500865Y-101972020D01*
X132496119Y-101975564D01*
X132479407Y-101986108D01*
X132474171Y-101988863D01*
X132469634Y-101992440D01*
X132401164Y-102046417D01*
X132398562Y-102048413D01*
X132324079Y-102104033D01*
X132265395Y-102167517D01*
X132261965Y-102171083D01*
X124222757Y-110210292D01*
X124216739Y-110215929D01*
X124165457Y-110260902D01*
X124161885Y-110265433D01*
X124107889Y-110333926D01*
X124105814Y-110336488D01*
X124046398Y-110407929D01*
X124043573Y-110412973D01*
X124043502Y-110413099D01*
X124032529Y-110429521D01*
X124032438Y-110429636D01*
X124032435Y-110429641D01*
X124028863Y-110434172D01*
X124026173Y-110439285D01*
X123985585Y-110516429D01*
X123984021Y-110519310D01*
X123938590Y-110600433D01*
X123936690Y-110606032D01*
X123928884Y-110624199D01*
X123926131Y-110629432D01*
X123924418Y-110634949D01*
X123898569Y-110718196D01*
X123897550Y-110721332D01*
X123867669Y-110809360D01*
X123866818Y-110815228D01*
X123862461Y-110834482D01*
X123862415Y-110834629D01*
X123862414Y-110834635D01*
X123860703Y-110840145D01*
X123860025Y-110845873D01*
X123860024Y-110845878D01*
X123849777Y-110932462D01*
X123849346Y-110935734D01*
X123845239Y-110964061D01*
X123836009Y-111027714D01*
X123836236Y-111033482D01*
X123839403Y-111114098D01*
X123839500Y-111119045D01*
X123839500Y-111971710D01*
X123819498Y-112039831D01*
X123809313Y-112053539D01*
X123781741Y-112085821D01*
X123654223Y-112293911D01*
X123652330Y-112298481D01*
X123652328Y-112298485D01*
X123562720Y-112514819D01*
X123562718Y-112514825D01*
X123560828Y-112519388D01*
X123503854Y-112756698D01*
X123503466Y-112761629D01*
X123486374Y-112978811D01*
X123484706Y-113000000D01*
X123503854Y-113243302D01*
X123533623Y-113367298D01*
X123554355Y-113453649D01*
X123560828Y-113480612D01*
X123562718Y-113485175D01*
X123562720Y-113485181D01*
X123631447Y-113651103D01*
X123654223Y-113706089D01*
X123781741Y-113914179D01*
X123940241Y-114099759D01*
X124125821Y-114258259D01*
X124333911Y-114385777D01*
X124338481Y-114387670D01*
X124338485Y-114387672D01*
X124554819Y-114477280D01*
X124554825Y-114477282D01*
X124559388Y-114479172D01*
X124564188Y-114480324D01*
X124564193Y-114480326D01*
X124670117Y-114505756D01*
X124796698Y-114536146D01*
X125040000Y-114555294D01*
X125283302Y-114536146D01*
X125409883Y-114505756D01*
X125515807Y-114480326D01*
X125515812Y-114480324D01*
X125520612Y-114479172D01*
X125525175Y-114477282D01*
X125525181Y-114477280D01*
X125741515Y-114387672D01*
X125741519Y-114387670D01*
X125746089Y-114385777D01*
X125954179Y-114258259D01*
X126139759Y-114099759D01*
X126298259Y-113914179D01*
X126425777Y-113706089D01*
X126448553Y-113651103D01*
X126517280Y-113485181D01*
X126517282Y-113485175D01*
X126519172Y-113480612D01*
X126525646Y-113453649D01*
X126546377Y-113367298D01*
X126576146Y-113243302D01*
X126595294Y-113000000D01*
X126593627Y-112978811D01*
X126576534Y-112761629D01*
X126576146Y-112756698D01*
X126519172Y-112519388D01*
X126517282Y-112514825D01*
X126517280Y-112514819D01*
X126427672Y-112298485D01*
X126427670Y-112298481D01*
X126425777Y-112293911D01*
X126298259Y-112085821D01*
X126270689Y-112053540D01*
X126241658Y-111988751D01*
X126240500Y-111971710D01*
X126240500Y-111846167D01*
X127449500Y-111846167D01*
X127449501Y-114153832D01*
X127452481Y-114185368D01*
X127455024Y-114192609D01*
X127455024Y-114192610D01*
X127478986Y-114260843D01*
X127497366Y-114313183D01*
X127577850Y-114422150D01*
X127686817Y-114502634D01*
X127695704Y-114505755D01*
X127695706Y-114505756D01*
X127778957Y-114534991D01*
X127814632Y-114547519D01*
X127822278Y-114548242D01*
X127822279Y-114548242D01*
X127828249Y-114548806D01*
X127846167Y-114550500D01*
X128999416Y-114550500D01*
X130153832Y-114550499D01*
X130156782Y-114550220D01*
X130156787Y-114550220D01*
X130167406Y-114549216D01*
X130185368Y-114547519D01*
X130192609Y-114544976D01*
X130192610Y-114544976D01*
X130304294Y-114505756D01*
X130304296Y-114505755D01*
X130313183Y-114502634D01*
X130422150Y-114422150D01*
X130502634Y-114313183D01*
X130521015Y-114260843D01*
X130544974Y-114192615D01*
X130547519Y-114185368D01*
X130550500Y-114153833D01*
X130550499Y-111846168D01*
X130547519Y-111814632D01*
X130502634Y-111686817D01*
X130422150Y-111577850D01*
X130313183Y-111497366D01*
X130304296Y-111494245D01*
X130304294Y-111494244D01*
X130192615Y-111455026D01*
X130185368Y-111452481D01*
X130177722Y-111451758D01*
X130177721Y-111451758D01*
X130171751Y-111451194D01*
X130153833Y-111449500D01*
X129000584Y-111449500D01*
X127846168Y-111449501D01*
X127843218Y-111449780D01*
X127843213Y-111449780D01*
X127832594Y-111450784D01*
X127814632Y-111452481D01*
X127807391Y-111455024D01*
X127807390Y-111455024D01*
X127695706Y-111494244D01*
X127695704Y-111494245D01*
X127686817Y-111497366D01*
X127577850Y-111577850D01*
X127497366Y-111686817D01*
X127452481Y-111814632D01*
X127449500Y-111846167D01*
X126240500Y-111846167D01*
X126240500Y-111640266D01*
X126260502Y-111572145D01*
X126277405Y-111551171D01*
X133591170Y-104237405D01*
X133653482Y-104203379D01*
X133680265Y-104200500D01*
X136405391Y-104200500D01*
X136473512Y-104220502D01*
X136520005Y-104274158D01*
X136528927Y-104301703D01*
X136543509Y-104374350D01*
X136577159Y-104541988D01*
X136577798Y-104544269D01*
X136698393Y-104974739D01*
X136710855Y-105019224D01*
X136711662Y-105021447D01*
X136808921Y-105289390D01*
X136879957Y-105485092D01*
X136880920Y-105487231D01*
X136880925Y-105487242D01*
X137000095Y-105751789D01*
X137083513Y-105936970D01*
X137320377Y-106372313D01*
X137476966Y-106614825D01*
X137587713Y-106786341D01*
X137589217Y-106788671D01*
X137888517Y-107183700D01*
X138216594Y-107555176D01*
X138571600Y-107901008D01*
X138573421Y-107902533D01*
X138573424Y-107902536D01*
X138636913Y-107955715D01*
X138951536Y-108219248D01*
X139354265Y-108508105D01*
X139777518Y-108765953D01*
X139779620Y-108767026D01*
X139779623Y-108767028D01*
X140042047Y-108901028D01*
X140218912Y-108991340D01*
X140221072Y-108992246D01*
X140221079Y-108992249D01*
X140586742Y-109145584D01*
X140675964Y-109182998D01*
X140678188Y-109183740D01*
X140678196Y-109183743D01*
X140959734Y-109277671D01*
X141146099Y-109339847D01*
X141626671Y-109461004D01*
X141628979Y-109461405D01*
X141628985Y-109461406D01*
X141896034Y-109507773D01*
X142114975Y-109545788D01*
X142117322Y-109546016D01*
X142117329Y-109546017D01*
X142605900Y-109593491D01*
X142605911Y-109593492D01*
X142608261Y-109593720D01*
X142610619Y-109593771D01*
X142610628Y-109593772D01*
X142901278Y-109600114D01*
X143103752Y-109604532D01*
X143335954Y-109592160D01*
X143596316Y-109578287D01*
X143596319Y-109578287D01*
X143598660Y-109578162D01*
X143862783Y-109544093D01*
X144087851Y-109515062D01*
X144087861Y-109515060D01*
X144090197Y-109514759D01*
X144575596Y-109414679D01*
X144577860Y-109414032D01*
X144577868Y-109414030D01*
X145049860Y-109279134D01*
X145049869Y-109279131D01*
X145052126Y-109278486D01*
X145054329Y-109277673D01*
X145054336Y-109277671D01*
X145514872Y-109107770D01*
X145514879Y-109107767D01*
X145517102Y-109106947D01*
X145967908Y-108901028D01*
X145969965Y-108899895D01*
X146399947Y-108663021D01*
X146399952Y-108663018D01*
X146402005Y-108661887D01*
X146403955Y-108660614D01*
X146403969Y-108660605D01*
X146814967Y-108392167D01*
X146816950Y-108390872D01*
X146820727Y-108387979D01*
X147208517Y-108090955D01*
X147208523Y-108090950D01*
X147210407Y-108089507D01*
X147580160Y-107759490D01*
X147775528Y-107556827D01*
X147922480Y-107404388D01*
X147922486Y-107404382D01*
X147924128Y-107402678D01*
X148189710Y-107082214D01*
X148238877Y-107022887D01*
X148238884Y-107022878D01*
X148240374Y-107021080D01*
X148241731Y-107019167D01*
X148525760Y-106618761D01*
X148525761Y-106618759D01*
X148527119Y-106616845D01*
X148782747Y-106192248D01*
X149005820Y-105749679D01*
X149195082Y-105291630D01*
X149349467Y-104820680D01*
X149468106Y-104339480D01*
X149550332Y-103850740D01*
X149595681Y-103357209D01*
X149605347Y-103000000D01*
X149605263Y-102997746D01*
X149586843Y-102507107D01*
X149586843Y-102507104D01*
X149586754Y-102504739D01*
X149531079Y-102012267D01*
X149438636Y-101525356D01*
X149309945Y-101046746D01*
X149145731Y-100579132D01*
X148946918Y-100125148D01*
X148714625Y-99687348D01*
X148450161Y-99268197D01*
X148448766Y-99266316D01*
X148448757Y-99266302D01*
X148156424Y-98871957D01*
X148155014Y-98870055D01*
X148039062Y-98735960D01*
X147832397Y-98496958D01*
X147832387Y-98496947D01*
X147830845Y-98495164D01*
X147479480Y-98145634D01*
X147102897Y-97823433D01*
X146703215Y-97530374D01*
X146660698Y-97503858D01*
X146284698Y-97269363D01*
X146284690Y-97269358D01*
X146282685Y-97268108D01*
X145843675Y-97038111D01*
X145449617Y-96867995D01*
X145390818Y-96842611D01*
X145390810Y-96842608D01*
X145388656Y-96841678D01*
X145154422Y-96760796D01*
X144922423Y-96680685D01*
X144922413Y-96680682D01*
X144920189Y-96679914D01*
X144917917Y-96679316D01*
X144917911Y-96679314D01*
X144443199Y-96554333D01*
X144443196Y-96554332D01*
X144440912Y-96553731D01*
X143953523Y-96463839D01*
X143951198Y-96463589D01*
X143951188Y-96463587D01*
X143463127Y-96410997D01*
X143463116Y-96410996D01*
X143460766Y-96410743D01*
X143458389Y-96410666D01*
X143458386Y-96410666D01*
X142967775Y-96394820D01*
X142967769Y-96394820D01*
X142965415Y-96394744D01*
X142470258Y-96415930D01*
X142241483Y-96443007D01*
X141980421Y-96473905D01*
X141980411Y-96473907D01*
X141978084Y-96474182D01*
X141975771Y-96474634D01*
X141975769Y-96474634D01*
X141493977Y-96568722D01*
X141493974Y-96568723D01*
X141491663Y-96569174D01*
X141013734Y-96700369D01*
X141011512Y-96701163D01*
X141011507Y-96701164D01*
X140549227Y-96866229D01*
X140546987Y-96867029D01*
X140278731Y-96986183D01*
X140096230Y-97067247D01*
X140096225Y-97067250D01*
X140094049Y-97068216D01*
X140091957Y-97069340D01*
X140091949Y-97069344D01*
X139659556Y-97301677D01*
X139659542Y-97301685D01*
X139657471Y-97302798D01*
X139341816Y-97504279D01*
X139273635Y-97524070D01*
X139205577Y-97503858D01*
X139184930Y-97487166D01*
X136737405Y-95039641D01*
X136703379Y-94977329D01*
X136700500Y-94950546D01*
X136700500Y-89944030D01*
X136685454Y-89780289D01*
X136625565Y-89567936D01*
X136527980Y-89370053D01*
X136395967Y-89193267D01*
X136233949Y-89043499D01*
X136047350Y-88925764D01*
X135842421Y-88844006D01*
X135836761Y-88842880D01*
X135836757Y-88842879D01*
X135631691Y-88802089D01*
X135631688Y-88802089D01*
X135626024Y-88800962D01*
X135620249Y-88800886D01*
X135620245Y-88800886D01*
X135509504Y-88799437D01*
X135405406Y-88798074D01*
X135399709Y-88799053D01*
X135399708Y-88799053D01*
X135193654Y-88834459D01*
X135193653Y-88834459D01*
X135187957Y-88835438D01*
X134980957Y-88911804D01*
X134791341Y-89024614D01*
X134625457Y-89170090D01*
X134488863Y-89343360D01*
X134386131Y-89538620D01*
X134320703Y-89749333D01*
X134299500Y-89928476D01*
X134299500Y-92297546D01*
X134279498Y-92365667D01*
X134225842Y-92412160D01*
X134155568Y-92422264D01*
X134090988Y-92392770D01*
X134084405Y-92386641D01*
X123766933Y-82069170D01*
X136395015Y-82069170D01*
X136395128Y-82071521D01*
X136395128Y-82071527D01*
X136410611Y-82393847D01*
X136418794Y-82564208D01*
X136419084Y-82566554D01*
X136419085Y-82566564D01*
X136454518Y-82853075D01*
X136479622Y-83056071D01*
X136577159Y-83541988D01*
X136577798Y-83544269D01*
X136655234Y-83820680D01*
X136710855Y-84019224D01*
X136711662Y-84021447D01*
X136808921Y-84289390D01*
X136879957Y-84485092D01*
X136880920Y-84487231D01*
X136880925Y-84487242D01*
X137000095Y-84751789D01*
X137083513Y-84936970D01*
X137320377Y-85372313D01*
X137589217Y-85788671D01*
X137888517Y-86183700D01*
X138216594Y-86555176D01*
X138571600Y-86901008D01*
X138951536Y-87219248D01*
X139354265Y-87508105D01*
X139777518Y-87765953D01*
X139779620Y-87767026D01*
X139779623Y-87767028D01*
X140042047Y-87901028D01*
X140218912Y-87991340D01*
X140221072Y-87992246D01*
X140221079Y-87992249D01*
X140673789Y-88182086D01*
X140675964Y-88182998D01*
X140678188Y-88183740D01*
X140678196Y-88183743D01*
X140959734Y-88277671D01*
X141146099Y-88339847D01*
X141626671Y-88461004D01*
X141628979Y-88461405D01*
X141628985Y-88461406D01*
X141896034Y-88507773D01*
X142114975Y-88545788D01*
X142117322Y-88546016D01*
X142117329Y-88546017D01*
X142605900Y-88593491D01*
X142605911Y-88593492D01*
X142608261Y-88593720D01*
X142610619Y-88593771D01*
X142610628Y-88593772D01*
X142901278Y-88600114D01*
X143103752Y-88604532D01*
X143335954Y-88592160D01*
X143596316Y-88578287D01*
X143596319Y-88578287D01*
X143598660Y-88578162D01*
X143862783Y-88544093D01*
X144087851Y-88515062D01*
X144087861Y-88515060D01*
X144090197Y-88514759D01*
X144575596Y-88414679D01*
X144577860Y-88414032D01*
X144577868Y-88414030D01*
X145049860Y-88279134D01*
X145049869Y-88279131D01*
X145052126Y-88278486D01*
X145054329Y-88277673D01*
X145054336Y-88277671D01*
X145514872Y-88107770D01*
X145514879Y-88107767D01*
X145517102Y-88106947D01*
X145967908Y-87901028D01*
X145969965Y-87899895D01*
X146399947Y-87663021D01*
X146399952Y-87663018D01*
X146402005Y-87661887D01*
X146403955Y-87660614D01*
X146403969Y-87660605D01*
X146814967Y-87392167D01*
X146816950Y-87390872D01*
X147039227Y-87220621D01*
X147208517Y-87090955D01*
X147208523Y-87090950D01*
X147210407Y-87089507D01*
X147580160Y-86759490D01*
X147775528Y-86556827D01*
X147922480Y-86404388D01*
X147922486Y-86404382D01*
X147924128Y-86402678D01*
X148107158Y-86181825D01*
X148238877Y-86022887D01*
X148238884Y-86022878D01*
X148240374Y-86021080D01*
X148527119Y-85616845D01*
X148782747Y-85192248D01*
X149005820Y-84749679D01*
X149195082Y-84291630D01*
X149349467Y-83820680D01*
X149468106Y-83339480D01*
X149550332Y-82850740D01*
X149595681Y-82357209D01*
X149605347Y-82000000D01*
X149604629Y-81980860D01*
X149586843Y-81507107D01*
X149586843Y-81507104D01*
X149586754Y-81504739D01*
X149531079Y-81012267D01*
X149438636Y-80525356D01*
X149309945Y-80046746D01*
X149145731Y-79579132D01*
X148946918Y-79125148D01*
X148765625Y-78783467D01*
X148715730Y-78689430D01*
X148715726Y-78689424D01*
X148714625Y-78687348D01*
X148450161Y-78268197D01*
X148448766Y-78266316D01*
X148448757Y-78266302D01*
X148156424Y-77871957D01*
X148155014Y-77870055D01*
X148039062Y-77735960D01*
X147832397Y-77496958D01*
X147832387Y-77496947D01*
X147830845Y-77495164D01*
X147479480Y-77145634D01*
X147102897Y-76823433D01*
X146981584Y-76734482D01*
X146705137Y-76531783D01*
X146705132Y-76531780D01*
X146703215Y-76530374D01*
X146497283Y-76401943D01*
X146284698Y-76269363D01*
X146284690Y-76269358D01*
X146282685Y-76268108D01*
X145843675Y-76038111D01*
X145449617Y-75867995D01*
X145390818Y-75842611D01*
X145390810Y-75842608D01*
X145388656Y-75841678D01*
X145154423Y-75760796D01*
X144922423Y-75680685D01*
X144922413Y-75680682D01*
X144920189Y-75679914D01*
X144917917Y-75679316D01*
X144917911Y-75679314D01*
X144443199Y-75554333D01*
X144443196Y-75554332D01*
X144440912Y-75553731D01*
X143953523Y-75463839D01*
X143951198Y-75463589D01*
X143951188Y-75463587D01*
X143463127Y-75410997D01*
X143463116Y-75410996D01*
X143460766Y-75410743D01*
X143458389Y-75410666D01*
X143458386Y-75410666D01*
X142967775Y-75394820D01*
X142967769Y-75394820D01*
X142965415Y-75394744D01*
X142470258Y-75415930D01*
X142241483Y-75443007D01*
X141980421Y-75473905D01*
X141980411Y-75473907D01*
X141978084Y-75474182D01*
X141975771Y-75474634D01*
X141975769Y-75474634D01*
X141493977Y-75568722D01*
X141493974Y-75568723D01*
X141491663Y-75569174D01*
X141013734Y-75700369D01*
X141011512Y-75701163D01*
X141011507Y-75701164D01*
X140549227Y-75866229D01*
X140546987Y-75867029D01*
X140278732Y-75986183D01*
X140096230Y-76067247D01*
X140096225Y-76067250D01*
X140094049Y-76068216D01*
X140091957Y-76069340D01*
X140091949Y-76069344D01*
X139659556Y-76301677D01*
X139659542Y-76301685D01*
X139657471Y-76302798D01*
X139239711Y-76569453D01*
X138843120Y-76866681D01*
X138469932Y-77192808D01*
X138468282Y-77194484D01*
X138468280Y-77194486D01*
X138123911Y-77544307D01*
X138123903Y-77544316D01*
X138122246Y-77545999D01*
X138120721Y-77547801D01*
X138120715Y-77547807D01*
X137886466Y-77824513D01*
X137802021Y-77924264D01*
X137800639Y-77926169D01*
X137800634Y-77926176D01*
X137617173Y-78179153D01*
X137511059Y-78325474D01*
X137509824Y-78327477D01*
X137509819Y-78327485D01*
X137252243Y-78745353D01*
X137252237Y-78745363D01*
X137250999Y-78747372D01*
X137249916Y-78749467D01*
X137249908Y-78749480D01*
X137130777Y-78979798D01*
X137023303Y-79187580D01*
X137022376Y-79189759D01*
X137022373Y-79189765D01*
X136856696Y-79579132D01*
X136829255Y-79643622D01*
X136669947Y-80112929D01*
X136546275Y-80592860D01*
X136458936Y-81080713D01*
X136458696Y-81083060D01*
X136415733Y-81502381D01*
X136408421Y-81573742D01*
X136408358Y-81576076D01*
X136408357Y-81576089D01*
X136400513Y-81865994D01*
X136395015Y-82069170D01*
X123766933Y-82069170D01*
X122762405Y-81064642D01*
X122728379Y-81002330D01*
X122725500Y-80975547D01*
X122725500Y-75446500D01*
X122745502Y-75378379D01*
X122799158Y-75331886D01*
X122851500Y-75320500D01*
X127090782Y-75320500D01*
X127093161Y-75320319D01*
X127093162Y-75320319D01*
X127278209Y-75306243D01*
X127278214Y-75306242D01*
X127282976Y-75305880D01*
X127287630Y-75304801D01*
X127287632Y-75304801D01*
X127530351Y-75248542D01*
X127530350Y-75248542D01*
X127535015Y-75247461D01*
X127775318Y-75151590D01*
X127998354Y-75020473D01*
X128002065Y-75017452D01*
X128002069Y-75017449D01*
X128195279Y-74860151D01*
X128198991Y-74857129D01*
X128372613Y-74665315D01*
X128515222Y-74449447D01*
X128536634Y-74403002D01*
X128621532Y-74218843D01*
X128621533Y-74218840D01*
X128623538Y-74214491D01*
X128695068Y-73965855D01*
X128728167Y-73709259D01*
X128722071Y-73450610D01*
X128707718Y-73369622D01*
X128677756Y-73200562D01*
X128677755Y-73200558D01*
X128676922Y-73195858D01*
X128672474Y-73182753D01*
X128609461Y-72997124D01*
X128593759Y-72950867D01*
X128474495Y-72721275D01*
X128321875Y-72512364D01*
X128139411Y-72328942D01*
X128135565Y-72326101D01*
X128135560Y-72326097D01*
X127935154Y-72178075D01*
X127935153Y-72178074D01*
X127931302Y-72175230D01*
X127927072Y-72173004D01*
X127927068Y-72173002D01*
X127706574Y-72056995D01*
X127706572Y-72056994D01*
X127702337Y-72054766D01*
X127457785Y-71970321D01*
X127250796Y-71932518D01*
X127207244Y-71924564D01*
X127207243Y-71924564D01*
X127203274Y-71923839D01*
X127120481Y-71919500D01*
X121959218Y-71919500D01*
X121956839Y-71919681D01*
X121956838Y-71919681D01*
X121771791Y-71933757D01*
X121771786Y-71933758D01*
X121767024Y-71934120D01*
X121762370Y-71935199D01*
X121762368Y-71935199D01*
X121614551Y-71969461D01*
X121514985Y-71992539D01*
X121274682Y-72088410D01*
X121051646Y-72219527D01*
X121047935Y-72222548D01*
X121047931Y-72222551D01*
X120913083Y-72332335D01*
X120851009Y-72382871D01*
X120677387Y-72574685D01*
X120534778Y-72790553D01*
X120532777Y-72794893D01*
X120532775Y-72794897D01*
X120428468Y-73021157D01*
X120426462Y-73025509D01*
X120354932Y-73274145D01*
X120321833Y-73530741D01*
X120321946Y-73535518D01*
X120324465Y-73642415D01*
X120324500Y-73645384D01*
X120324500Y-81480271D01*
X120324230Y-81488512D01*
X120319770Y-81556560D01*
X113960509Y-81556560D01*
X110847044Y-78131748D01*
X111704500Y-78131748D01*
X111716133Y-78190231D01*
X111760448Y-78256552D01*
X111826769Y-78300867D01*
X111838938Y-78303288D01*
X111838939Y-78303288D01*
X111879184Y-78311293D01*
X111885252Y-78312500D01*
X115924748Y-78312500D01*
X115930816Y-78311293D01*
X115971061Y-78303288D01*
X115971062Y-78303288D01*
X115983231Y-78300867D01*
X116049552Y-78256552D01*
X116093867Y-78190231D01*
X116105500Y-78131748D01*
X116105500Y-70092252D01*
X116099035Y-70059748D01*
X120324500Y-70059748D01*
X120336133Y-70118231D01*
X120380448Y-70184552D01*
X120446769Y-70228867D01*
X120458938Y-70231288D01*
X120458939Y-70231288D01*
X120499184Y-70239293D01*
X120505252Y-70240500D01*
X128544748Y-70240500D01*
X128550816Y-70239293D01*
X128591061Y-70231288D01*
X128591062Y-70231288D01*
X128603231Y-70228867D01*
X128669552Y-70184552D01*
X128713867Y-70118231D01*
X128725500Y-70059748D01*
X128725500Y-67020252D01*
X128713867Y-66961769D01*
X128669552Y-66895448D01*
X128603231Y-66851133D01*
X128591062Y-66848712D01*
X128591061Y-66848712D01*
X128550816Y-66840707D01*
X128544748Y-66839500D01*
X120505252Y-66839500D01*
X120499184Y-66840707D01*
X120458939Y-66848712D01*
X120458938Y-66848712D01*
X120446769Y-66851133D01*
X120380448Y-66895448D01*
X120336133Y-66961769D01*
X120324500Y-67020252D01*
X120324500Y-70059748D01*
X116099035Y-70059748D01*
X116093867Y-70033769D01*
X116049552Y-69967448D01*
X115983231Y-69923133D01*
X115971062Y-69920712D01*
X115971061Y-69920712D01*
X115930816Y-69912707D01*
X115924748Y-69911500D01*
X111885252Y-69911500D01*
X111879184Y-69912707D01*
X111838939Y-69920712D01*
X111838938Y-69920712D01*
X111826769Y-69923133D01*
X111760448Y-69967448D01*
X111716133Y-70033769D01*
X111704500Y-70092252D01*
X111704500Y-78131748D01*
X110847044Y-78131748D01*
X108032768Y-75036045D01*
X108001745Y-74972185D01*
X108000000Y-74951288D01*
X108000000Y-74748414D01*
X108020002Y-74680293D01*
X108073658Y-74633800D01*
X108143932Y-74623696D01*
X108196002Y-74643649D01*
X108249717Y-74679540D01*
X108255020Y-74681818D01*
X108255023Y-74681820D01*
X108410025Y-74748414D01*
X108452436Y-74766635D01*
X108532088Y-74784658D01*
X108661995Y-74814054D01*
X108662001Y-74814055D01*
X108667632Y-74815329D01*
X108673403Y-74815556D01*
X108673405Y-74815556D01*
X108741211Y-74818220D01*
X108888098Y-74823991D01*
X108997275Y-74808161D01*
X109100738Y-74793160D01*
X109100743Y-74793159D01*
X109106452Y-74792331D01*
X109111916Y-74790476D01*
X109111921Y-74790475D01*
X109309907Y-74723268D01*
X109309912Y-74723266D01*
X109315379Y-74721410D01*
X109507884Y-74613602D01*
X109677518Y-74472518D01*
X109818602Y-74302884D01*
X109926410Y-74110379D01*
X109928266Y-74104912D01*
X109928268Y-74104907D01*
X109995475Y-73906921D01*
X109995476Y-73906916D01*
X109997331Y-73901452D01*
X109998159Y-73895743D01*
X109998160Y-73895738D01*
X110028458Y-73686772D01*
X110028991Y-73683098D01*
X110030643Y-73620000D01*
X110010454Y-73400289D01*
X109950565Y-73187936D01*
X109852980Y-72990053D01*
X109820552Y-72946626D01*
X109724420Y-72817891D01*
X109724420Y-72817890D01*
X109720967Y-72813267D01*
X109558949Y-72663499D01*
X109372350Y-72545764D01*
X109169955Y-72465017D01*
X109114096Y-72421196D01*
X109090795Y-72354132D01*
X109107451Y-72285117D01*
X109158775Y-72236063D01*
X109176144Y-72228674D01*
X109309907Y-72183268D01*
X109309912Y-72183266D01*
X109315379Y-72181410D01*
X109326415Y-72175230D01*
X109454231Y-72103649D01*
X109507884Y-72073602D01*
X109532413Y-72053202D01*
X109673086Y-71936204D01*
X109677518Y-71932518D01*
X109818602Y-71762884D01*
X109926410Y-71570379D01*
X109928266Y-71564912D01*
X109928268Y-71564907D01*
X109995475Y-71366921D01*
X109995476Y-71366916D01*
X109997331Y-71361452D01*
X109998159Y-71355743D01*
X109998160Y-71355738D01*
X110028458Y-71146772D01*
X110028991Y-71143098D01*
X110030643Y-71080000D01*
X110010454Y-70860289D01*
X109950565Y-70647936D01*
X109852980Y-70450053D01*
X109720967Y-70273267D01*
X109558949Y-70123499D01*
X109372350Y-70005764D01*
X109167421Y-69924006D01*
X109161761Y-69922880D01*
X109161757Y-69922879D01*
X108956691Y-69882089D01*
X108956688Y-69882089D01*
X108951024Y-69880962D01*
X108945249Y-69880886D01*
X108945245Y-69880886D01*
X108834504Y-69879437D01*
X108730406Y-69878074D01*
X108724709Y-69879053D01*
X108724708Y-69879053D01*
X108518654Y-69914459D01*
X108518653Y-69914459D01*
X108512957Y-69915438D01*
X108305957Y-69991804D01*
X108198323Y-70055840D01*
X108190423Y-70060540D01*
X108121653Y-70078180D01*
X108054263Y-70055840D01*
X108009649Y-70000612D01*
X108000000Y-69952255D01*
X108000000Y-64979748D01*
X120324500Y-64979748D01*
X120325707Y-64985816D01*
X120329419Y-65004475D01*
X120336133Y-65038231D01*
X120380448Y-65104552D01*
X120446769Y-65148867D01*
X120458938Y-65151288D01*
X120458939Y-65151288D01*
X120499184Y-65159293D01*
X120505252Y-65160500D01*
X128544748Y-65160500D01*
X128550816Y-65159293D01*
X128591061Y-65151288D01*
X128591062Y-65151288D01*
X128603231Y-65148867D01*
X128669552Y-65104552D01*
X128713867Y-65038231D01*
X128720582Y-65004475D01*
X128724293Y-64985816D01*
X128725500Y-64979748D01*
X128725500Y-61940252D01*
X128713867Y-61881769D01*
X128669552Y-61815448D01*
X128603231Y-61771133D01*
X128591062Y-61768712D01*
X128591061Y-61768712D01*
X128550816Y-61760707D01*
X128544748Y-61759500D01*
X120505252Y-61759500D01*
X120499184Y-61760707D01*
X120458939Y-61768712D01*
X120458938Y-61768712D01*
X120446769Y-61771133D01*
X120380448Y-61815448D01*
X120336133Y-61881769D01*
X120324500Y-61940252D01*
X120324500Y-64979748D01*
X108000000Y-64979748D01*
X108000000Y-62048414D01*
X108020002Y-61980293D01*
X108073658Y-61933800D01*
X108143932Y-61923696D01*
X108196002Y-61943649D01*
X108249717Y-61979540D01*
X108255020Y-61981818D01*
X108255023Y-61981820D01*
X108389145Y-62039443D01*
X108452436Y-62066635D01*
X108532088Y-62084658D01*
X108661995Y-62114054D01*
X108662001Y-62114055D01*
X108667632Y-62115329D01*
X108673403Y-62115556D01*
X108673405Y-62115556D01*
X108741211Y-62118220D01*
X108888098Y-62123991D01*
X108997275Y-62108161D01*
X109100738Y-62093160D01*
X109100743Y-62093159D01*
X109106452Y-62092331D01*
X109111916Y-62090476D01*
X109111921Y-62090475D01*
X109309907Y-62023268D01*
X109309912Y-62023266D01*
X109315379Y-62021410D01*
X109507884Y-61913602D01*
X109514923Y-61907748D01*
X111704500Y-61907748D01*
X111716133Y-61966231D01*
X111760448Y-62032552D01*
X111826769Y-62076867D01*
X111838938Y-62079288D01*
X111838939Y-62079288D01*
X111879184Y-62087293D01*
X111885252Y-62088500D01*
X115924748Y-62088500D01*
X115930816Y-62087293D01*
X115971061Y-62079288D01*
X115971062Y-62079288D01*
X115983231Y-62076867D01*
X116049552Y-62032552D01*
X116093867Y-61966231D01*
X116105500Y-61907748D01*
X116105500Y-58290741D01*
X120321833Y-58290741D01*
X120327929Y-58549390D01*
X120373078Y-58804142D01*
X120456241Y-59049133D01*
X120575505Y-59278725D01*
X120728125Y-59487636D01*
X120731499Y-59491028D01*
X120731501Y-59491030D01*
X120768507Y-59528230D01*
X120910589Y-59671058D01*
X120914435Y-59673899D01*
X120914440Y-59673903D01*
X121062012Y-59782901D01*
X121118698Y-59824770D01*
X121122928Y-59826996D01*
X121122932Y-59826998D01*
X121343426Y-59943005D01*
X121347663Y-59945234D01*
X121592215Y-60029679D01*
X121846726Y-60076161D01*
X121929519Y-60080500D01*
X127090782Y-60080500D01*
X127093161Y-60080319D01*
X127093162Y-60080319D01*
X127278209Y-60066243D01*
X127278214Y-60066242D01*
X127282976Y-60065880D01*
X127287630Y-60064801D01*
X127287632Y-60064801D01*
X127530351Y-60008542D01*
X127530350Y-60008542D01*
X127535015Y-60007461D01*
X127775318Y-59911590D01*
X127998354Y-59780473D01*
X128002065Y-59777452D01*
X128002069Y-59777449D01*
X128195279Y-59620151D01*
X128198991Y-59617129D01*
X128372613Y-59425315D01*
X128515222Y-59209447D01*
X128536634Y-59163002D01*
X128621532Y-58978843D01*
X128621533Y-58978840D01*
X128623538Y-58974491D01*
X128695068Y-58725855D01*
X128728167Y-58469259D01*
X128722071Y-58210610D01*
X128707718Y-58129622D01*
X128677756Y-57960562D01*
X128677755Y-57960558D01*
X128676922Y-57955858D01*
X128672474Y-57942753D01*
X128617619Y-57781157D01*
X128593759Y-57710867D01*
X128474495Y-57481275D01*
X128321875Y-57272364D01*
X128275899Y-57226146D01*
X128142786Y-57092335D01*
X128139411Y-57088942D01*
X128135565Y-57086101D01*
X128135560Y-57086097D01*
X127935154Y-56938075D01*
X127935153Y-56938074D01*
X127931302Y-56935230D01*
X127927072Y-56933004D01*
X127927068Y-56933002D01*
X127706574Y-56816995D01*
X127706572Y-56816994D01*
X127702337Y-56814766D01*
X127457785Y-56730321D01*
X127203274Y-56683839D01*
X127120481Y-56679500D01*
X121959218Y-56679500D01*
X121956839Y-56679681D01*
X121956838Y-56679681D01*
X121771791Y-56693757D01*
X121771786Y-56693758D01*
X121767024Y-56694120D01*
X121762370Y-56695199D01*
X121762368Y-56695199D01*
X121614551Y-56729461D01*
X121514985Y-56752539D01*
X121274682Y-56848410D01*
X121051646Y-56979527D01*
X121047935Y-56982548D01*
X121047931Y-56982551D01*
X120913083Y-57092335D01*
X120851009Y-57142871D01*
X120677387Y-57334685D01*
X120534778Y-57550553D01*
X120532777Y-57554893D01*
X120532775Y-57554897D01*
X120522175Y-57577891D01*
X120426462Y-57785509D01*
X120354932Y-58034145D01*
X120321833Y-58290741D01*
X116105500Y-58290741D01*
X116105500Y-53868252D01*
X116093867Y-53809769D01*
X116049552Y-53743448D01*
X115983231Y-53699133D01*
X115971062Y-53696712D01*
X115971061Y-53696712D01*
X115930816Y-53688707D01*
X115924748Y-53687500D01*
X111885252Y-53687500D01*
X111879184Y-53688707D01*
X111838939Y-53696712D01*
X111838938Y-53696712D01*
X111826769Y-53699133D01*
X111760448Y-53743448D01*
X111716133Y-53809769D01*
X111704500Y-53868252D01*
X111704500Y-61907748D01*
X109514923Y-61907748D01*
X109558563Y-61871453D01*
X109673086Y-61776204D01*
X109677518Y-61772518D01*
X109818602Y-61602884D01*
X109926410Y-61410379D01*
X109928266Y-61404912D01*
X109928268Y-61404907D01*
X109995475Y-61206921D01*
X109995476Y-61206916D01*
X109997331Y-61201452D01*
X109998159Y-61195743D01*
X109998160Y-61195738D01*
X110028458Y-60986772D01*
X110028991Y-60983098D01*
X110030643Y-60920000D01*
X110010454Y-60700289D01*
X109950565Y-60487936D01*
X109852980Y-60290053D01*
X109720967Y-60113267D01*
X109558949Y-59963499D01*
X109372350Y-59845764D01*
X109169955Y-59765017D01*
X109114096Y-59721196D01*
X109090795Y-59654132D01*
X109107451Y-59585117D01*
X109158775Y-59536063D01*
X109176144Y-59528674D01*
X109309907Y-59483268D01*
X109309912Y-59483266D01*
X109315379Y-59481410D01*
X109507884Y-59373602D01*
X109621961Y-59278725D01*
X109673086Y-59236204D01*
X109677518Y-59232518D01*
X109818602Y-59062884D01*
X109926410Y-58870379D01*
X109928266Y-58864912D01*
X109928268Y-58864907D01*
X109995475Y-58666921D01*
X109995476Y-58666916D01*
X109997331Y-58661452D01*
X109998159Y-58655743D01*
X109998160Y-58655738D01*
X110028458Y-58446772D01*
X110028991Y-58443098D01*
X110030643Y-58380000D01*
X110010454Y-58160289D01*
X109950565Y-57947936D01*
X109852980Y-57750053D01*
X109820552Y-57706626D01*
X109724420Y-57577891D01*
X109724420Y-57577890D01*
X109720967Y-57573267D01*
X109558949Y-57423499D01*
X109372350Y-57305764D01*
X109167421Y-57224006D01*
X109161761Y-57222880D01*
X109161757Y-57222879D01*
X108956691Y-57182089D01*
X108956688Y-57182089D01*
X108951024Y-57180962D01*
X108945249Y-57180886D01*
X108945245Y-57180886D01*
X108834504Y-57179437D01*
X108730406Y-57178074D01*
X108724709Y-57179053D01*
X108724708Y-57179053D01*
X108518654Y-57214459D01*
X108518653Y-57214459D01*
X108512957Y-57215438D01*
X108305957Y-57291804D01*
X108198323Y-57355840D01*
X108190423Y-57360540D01*
X108121653Y-57378180D01*
X108054263Y-57355840D01*
X108009649Y-57300612D01*
X108000000Y-57252255D01*
X108000000Y-50126500D01*
X108020002Y-50058379D01*
X108073658Y-50011886D01*
X108126000Y-50000500D01*
X135874000Y-50000500D01*
X135942121Y-50020502D01*
G37*
%TD.AperFunction*%
M02*
