M48
; DRILL file {KiCad 6.0.1-79c1e3a40b~116~ubuntu20.04.1} date Wed 30 Nov 2022 02:03:46 PM JST
; FORMAT={-:-/ absolute / inch / decimal}
; #@! TF.CreationDate,2022-11-30T14:03:46+09:00
; #@! TF.GenerationSoftware,Kicad,Pcbnew,6.0.1-79c1e3a40b~116~ubuntu20.04.1
; #@! TF.FileFunction,Plated,1,2,PTH
FMAT,2
INCH
; #@! TA.AperFunction,Plated,PTH,ViaDrill
T1C0.0157
; #@! TA.AperFunction,Plated,PTH,ComponentDrill
T2C0.0374
; #@! TA.AperFunction,Plated,PTH,ComponentDrill
T3C0.0394
; #@! TA.AperFunction,Plated,PTH,ComponentDrill
T4C0.0591
; #@! TA.AperFunction,Plated,PTH,ComponentDrill
T5C0.0669
; #@! TA.AperFunction,Plated,PTH,ComponentDrill
T6C0.1260
; #@! TA.AperFunction,Plated,PTH,ComponentDrill
T7C0.2520
%
G90
G05
T1
X2.2441Y-3.937
X2.3622Y-4.6457
X4.1339Y-3.1102
X4.2126Y-3.0709
X4.2126Y-3.3858
X4.2126Y-3.937
X5.3346Y-3.5433
T2
X2.2441Y-2.9528
X2.3425Y-2.9528
X2.4409Y-2.9528
X2.5394Y-2.9528
X2.6378Y-2.9528
T3
X2.0472Y-3.7189
X2.0472Y-3.8189
X2.0472Y-3.9189
X2.0472Y-4.0189
X2.0472Y-4.1189
X3.5396Y-2.4759
X3.9344Y-2.3984
X3.9344Y-2.4984
X3.9344Y-2.5984
X3.9344Y-2.6984
X3.9344Y-2.7984
X4.2844Y-2.2984
X4.2844Y-2.3984
X4.2844Y-2.7984
X4.2844Y-2.8984
X4.4882Y-4.4882
X4.5866Y-4.4882
X4.7844Y-2.2984
X4.7844Y-2.4984
X4.7844Y-2.6984
X4.7844Y-2.8984
T4
X2.6181Y-3.622
X2.6181Y-3.822
X2.6181Y-4.022
X2.6181Y-4.222
X3.7598Y-3.622
X3.7598Y-3.822
X3.7598Y-4.022
X3.7598Y-4.222
T5
X4.9228Y-4.4488
X5.0787Y-4.4488
T6
X2.5787Y-3.3709
X2.5787Y-4.4732
X3.7992Y-3.3709
X3.7992Y-4.4732
X4.4844Y-2.3184
X4.4844Y-2.8784
T7
X5.6299Y-3.2283
X5.6299Y-4.0551
T0
M30
