%TF.GenerationSoftware,KiCad,Pcbnew,6.0.1-79c1e3a40b~116~ubuntu20.04.1*%
%TF.CreationDate,2022-11-30T14:03:43+09:00*%
%TF.ProjectId,Voltage-sensor-mother-board,566f6c74-6167-4652-9d73-656e736f722d,3.0*%
%TF.SameCoordinates,Original*%
%TF.FileFunction,Copper,L1,Top*%
%TF.FilePolarity,Positive*%
%FSLAX46Y46*%
G04 Gerber Fmt 4.6, Leading zero omitted, Abs format (unit mm)*
G04 Created by KiCad (PCBNEW 6.0.1-79c1e3a40b~116~ubuntu20.04.1) date 2022-11-30 14:03:43*
%MOMM*%
%LPD*%
G01*
G04 APERTURE LIST*
G04 Aperture macros list*
%AMRoundRect*
0 Rectangle with rounded corners*
0 $1 Rounding radius*
0 $2 $3 $4 $5 $6 $7 $8 $9 X,Y pos of 4 corners*
0 Add a 4 corners polygon primitive as box body*
4,1,4,$2,$3,$4,$5,$6,$7,$8,$9,$2,$3,0*
0 Add four circle primitives for the rounded corners*
1,1,$1+$1,$2,$3*
1,1,$1+$1,$4,$5*
1,1,$1+$1,$6,$7*
1,1,$1+$1,$8,$9*
0 Add four rect primitives between the rounded corners*
20,1,$1+$1,$2,$3,$4,$5,0*
20,1,$1+$1,$4,$5,$6,$7,0*
20,1,$1+$1,$6,$7,$8,$9,0*
20,1,$1+$1,$8,$9,$2,$3,0*%
G04 Aperture macros list end*
%TA.AperFunction,ComponentPad*%
%ADD10R,1.700000X1.700000*%
%TD*%
%TA.AperFunction,ComponentPad*%
%ADD11O,1.700000X1.700000*%
%TD*%
%TA.AperFunction,ComponentPad*%
%ADD12C,2.000000*%
%TD*%
%TA.AperFunction,ComponentPad*%
%ADD13O,5.000000X2.000000*%
%TD*%
%TA.AperFunction,ComponentPad*%
%ADD14O,8.000000X3.000000*%
%TD*%
%TA.AperFunction,ComponentPad*%
%ADD15R,4.000000X8.000000*%
%TD*%
%TA.AperFunction,ComponentPad*%
%ADD16R,8.000000X3.000000*%
%TD*%
%TA.AperFunction,ComponentPad*%
%ADD17RoundRect,0.250001X1.099999X1.099999X-1.099999X1.099999X-1.099999X-1.099999X1.099999X-1.099999X0*%
%TD*%
%TA.AperFunction,ComponentPad*%
%ADD18C,2.700000*%
%TD*%
%TA.AperFunction,ComponentPad*%
%ADD19C,6.000000*%
%TD*%
%TA.AperFunction,ComponentPad*%
%ADD20R,10.000000X3.000000*%
%TD*%
%TA.AperFunction,SMDPad,CuDef*%
%ADD21RoundRect,0.300000X1.300000X0.300000X-1.300000X0.300000X-1.300000X-0.300000X1.300000X-0.300000X0*%
%TD*%
%TA.AperFunction,SMDPad,CuDef*%
%ADD22RoundRect,0.237500X-0.237500X0.287500X-0.237500X-0.287500X0.237500X-0.287500X0.237500X0.287500X0*%
%TD*%
%TA.AperFunction,ConnectorPad*%
%ADD23C,12.800000*%
%TD*%
%TA.AperFunction,ComponentPad*%
%ADD24C,6.800000*%
%TD*%
%TA.AperFunction,ComponentPad*%
%ADD25RoundRect,0.250000X-0.600000X-0.750000X0.600000X-0.750000X0.600000X0.750000X-0.600000X0.750000X0*%
%TD*%
%TA.AperFunction,ComponentPad*%
%ADD26O,1.700000X2.000000*%
%TD*%
%TA.AperFunction,SMDPad,CuDef*%
%ADD27R,1.600000X1.200000*%
%TD*%
%TA.AperFunction,SMDPad,CuDef*%
%ADD28R,1.000000X1.500000*%
%TD*%
%TA.AperFunction,SMDPad,CuDef*%
%ADD29RoundRect,0.237500X0.237500X-0.300000X0.237500X0.300000X-0.237500X0.300000X-0.237500X-0.300000X0*%
%TD*%
%TA.AperFunction,ComponentPad*%
%ADD30RoundRect,0.250000X0.600000X0.725000X-0.600000X0.725000X-0.600000X-0.725000X0.600000X-0.725000X0*%
%TD*%
%TA.AperFunction,ComponentPad*%
%ADD31O,1.700000X1.950000*%
%TD*%
%TA.AperFunction,ViaPad*%
%ADD32C,0.800000*%
%TD*%
%TA.AperFunction,Conductor*%
%ADD33C,2.000000*%
%TD*%
%TA.AperFunction,Conductor*%
%ADD34C,1.000000*%
%TD*%
G04 APERTURE END LIST*
D10*
%TO.P,J6,1,Pin_1*%
%TO.N,Net-(J6-Pad1)*%
X52000000Y-104620000D03*
D11*
%TO.P,J6,2,Pin_2*%
%TO.N,Net-(J6-Pad2)*%
X52000000Y-102080000D03*
%TO.P,J6,3,Pin_3*%
%TO.N,Net-(J6-Pad3)*%
X52000000Y-99540000D03*
%TO.P,J6,4,Pin_4*%
%TO.N,LVGND*%
X52000000Y-97000000D03*
%TO.P,J6,5,Pin_5*%
X52000000Y-94460000D03*
%TD*%
D12*
%TO.P,M1,*%
%TO.N,*%
X108825000Y-60920000D03*
X108825000Y-73620000D03*
X108825000Y-71080000D03*
X108825000Y-58380000D03*
D13*
%TO.P,M1,1,VSS*%
%TO.N,Net-(C1-Pad1)*%
X98935000Y-71080000D03*
%TO.P,M1,2,SCL*%
%TO.N,Net-(M1-Pad2)*%
X98935000Y-68540000D03*
%TO.P,M1,3,SDA*%
%TO.N,Net-(M1-Pad3)*%
X98935000Y-66000000D03*
%TO.P,M1,4,AL*%
%TO.N,Net-(J5-Pad1)*%
X98935000Y-63460000D03*
%TO.P,M1,5,GND*%
%TO.N,HVGND*%
X98935000Y-60920000D03*
D14*
%TO.P,M1,6,V-(GND)*%
%TO.N,VBAT-*%
X124525000Y-73620000D03*
D15*
%TO.P,M1,7,ISENSE-*%
%TO.N,unconnected-(M1-Pad7)*%
X113905000Y-74112000D03*
D16*
X124525000Y-68540000D03*
%TO.P,M1,8,ISENSE+*%
%TO.N,unconnected-(M1-Pad8)*%
X124525000Y-63460000D03*
D15*
X113905000Y-57888000D03*
D14*
%TO.P,M1,9,V+*%
%TO.N,VBAT+*%
X124525000Y-58380000D03*
%TD*%
D10*
%TO.P,J5,1,Pin_1*%
%TO.N,Net-(J5-Pad1)*%
X89905000Y-62888000D03*
%TD*%
D17*
%TO.P,J3,1,Pin_1*%
%TO.N,VBAT+*%
X129000000Y-113000000D03*
D18*
%TO.P,J3,2,Pin_2*%
%TO.N,VBAT-*%
X125040000Y-113000000D03*
%TD*%
D19*
%TO.P,U2,*%
%TO.N,*%
X96500000Y-85620000D03*
X65500000Y-113620000D03*
X96500000Y-113620000D03*
X65500000Y-85620000D03*
D20*
%TO.P,U2,1,VCC1*%
%TO.N,Net-(J6-Pad1)*%
X63500000Y-107240000D03*
%TO.P,U2,2,SDA1*%
%TO.N,Net-(J6-Pad3)*%
X63500000Y-102160000D03*
%TO.P,U2,3,SCL1*%
%TO.N,Net-(J6-Pad2)*%
X63500000Y-97080000D03*
%TO.P,U2,4,GND1*%
%TO.N,LVGND*%
X63500000Y-92000000D03*
%TO.P,U2,5,VCC2*%
%TO.N,Net-(C1-Pad1)*%
X98500000Y-107240000D03*
%TO.P,U2,6,SDA2*%
%TO.N,Net-(M1-Pad3)*%
X98500000Y-102160000D03*
%TO.P,U2,7,SCL2*%
%TO.N,Net-(M1-Pad2)*%
X98500000Y-97080000D03*
%TO.P,U2,8,GND2*%
%TO.N,HVGND*%
X98500000Y-92000000D03*
%TD*%
D21*
%TO.P,U1,1,+Vin*%
%TO.N,VBAT+*%
X132400000Y-100000000D03*
%TO.P,U1,2,RC*%
%TO.N,Net-(J4-Pad1)*%
X132400000Y-92380000D03*
%TO.P,U1,3,-Vin*%
%TO.N,VBAT-*%
X132400000Y-89840000D03*
%TO.P,U1,4,NC*%
%TO.N,unconnected-(U1-Pad4)*%
X113600000Y-89840000D03*
%TO.P,U1,5,-Vout*%
%TO.N,HVGND*%
X113600000Y-92380000D03*
%TO.P,U1,6,TRM*%
%TO.N,unconnected-(U1-Pad6)*%
X113600000Y-97460000D03*
%TO.P,U1,7,+Vout*%
%TO.N,Net-(C1-Pad1)*%
X113600000Y-100000000D03*
%TD*%
D22*
%TO.P,D1,1,K*%
%TO.N,Net-(D1-Pad1)*%
X108500000Y-83125000D03*
%TO.P,D1,2,A*%
%TO.N,Net-(C1-Pad1)*%
X108500000Y-84875000D03*
%TD*%
D23*
%TO.P,J2,1,Pin_1*%
%TO.N,VBAT-*%
X143000000Y-103000000D03*
D24*
X143000000Y-103000000D03*
%TD*%
D25*
%TO.P,J4,1,Pin_1*%
%TO.N,Net-(J4-Pad1)*%
X114000000Y-114000000D03*
D26*
%TO.P,J4,2,Pin_2*%
%TO.N,VBAT-*%
X116500000Y-114000000D03*
%TD*%
D23*
%TO.P,J1,1,Pin_1*%
%TO.N,VBAT+*%
X143000000Y-82000000D03*
D24*
X143000000Y-82000000D03*
%TD*%
D27*
%TO.P,D2,1,K*%
%TO.N,HVGND*%
X105000000Y-82300000D03*
%TO.P,D2,2,A*%
%TO.N,Net-(D1-Pad1)*%
X105000000Y-85700000D03*
%TD*%
D28*
%TO.P,JP1,1,A*%
%TO.N,Net-(J4-Pad1)*%
X115850000Y-107000000D03*
%TO.P,JP1,2,B*%
%TO.N,VBAT-*%
X117150000Y-107000000D03*
%TD*%
D29*
%TO.P,C1,1*%
%TO.N,Net-(C1-Pad1)*%
X109000000Y-96862500D03*
%TO.P,C1,2*%
%TO.N,HVGND*%
X109000000Y-95137500D03*
%TD*%
D30*
%TO.P,J7,1,Pin_1*%
%TO.N,Net-(J6-Pad1)*%
X67000000Y-75000000D03*
D31*
%TO.P,J7,2,Pin_2*%
%TO.N,Net-(J6-Pad3)*%
X64500000Y-75000000D03*
%TO.P,J7,3,Pin_3*%
%TO.N,Net-(J6-Pad2)*%
X62000000Y-75000000D03*
%TO.P,J7,4,Pin_4*%
%TO.N,LVGND*%
X59500000Y-75000000D03*
%TO.P,J7,5,Pin_5*%
X57000000Y-75000000D03*
%TD*%
D32*
%TO.N,VBAT-*%
X135500000Y-90000000D03*
%TO.N,Net-(C1-Pad1)*%
X107000000Y-86000000D03*
X107000000Y-78000000D03*
X107000000Y-100000000D03*
%TO.N,LVGND*%
X60000000Y-118000000D03*
X57000000Y-100000000D03*
%TO.N,HVGND*%
X105000000Y-79000000D03*
%TD*%
D33*
%TO.N,VBAT+*%
X129000000Y-113000000D02*
X129000000Y-103400000D01*
X129000000Y-103400000D02*
X132400000Y-100000000D01*
X139500000Y-82000000D02*
X143000000Y-82000000D01*
X143000000Y-89400000D02*
X132400000Y-100000000D01*
X121525000Y-58380000D02*
X127344022Y-58380000D01*
X133500000Y-64535978D02*
X133500000Y-76000000D01*
X133500000Y-76000000D02*
X139500000Y-82000000D01*
X127344022Y-58380000D02*
X133500000Y-64535978D01*
X143000000Y-82000000D02*
X143000000Y-89400000D01*
D34*
%TO.N,VBAT-*%
X117150000Y-107000000D02*
X117150000Y-113350000D01*
D33*
X132400000Y-89840000D02*
X135340000Y-89840000D01*
X135340000Y-89840000D02*
X135500000Y-90000000D01*
D34*
X125040000Y-113000000D02*
X117500000Y-113000000D01*
X117150000Y-113350000D02*
X116500000Y-114000000D01*
X117500000Y-113000000D02*
X116500000Y-114000000D01*
%TO.N,Net-(J4-Pad1)*%
X129120978Y-92380000D02*
X115850000Y-105650978D01*
X132400000Y-92380000D02*
X129120978Y-92380000D01*
X115850000Y-105650978D02*
X115850000Y-107000000D01*
X115850000Y-107000000D02*
X115850000Y-112150000D01*
X115850000Y-112150000D02*
X114000000Y-114000000D01*
%TO.N,Net-(J5-Pad1)*%
X93888000Y-62888000D02*
X89905000Y-62888000D01*
X94460000Y-63460000D02*
X93888000Y-62888000D01*
X99935000Y-63460000D02*
X94460000Y-63460000D01*
%TO.N,Net-(J6-Pad1)*%
X72199520Y-101740480D02*
X66700000Y-107240000D01*
X72199520Y-80199520D02*
X72199520Y-101740480D01*
X67000000Y-75000000D02*
X72199520Y-80199520D01*
X52000000Y-104620000D02*
X54620000Y-104620000D01*
X54620000Y-104620000D02*
X57240000Y-107240000D01*
X57240000Y-107240000D02*
X66700000Y-107240000D01*
%TO.N,Net-(J6-Pad2)*%
X52000000Y-102080000D02*
X57080000Y-97000000D01*
X62000000Y-75000000D02*
X71000000Y-84000000D01*
X71000000Y-95000000D02*
X68920000Y-97080000D01*
X66620000Y-97000000D02*
X66700000Y-97080000D01*
X57080000Y-97000000D02*
X66620000Y-97000000D01*
X71000000Y-84000000D02*
X71000000Y-95000000D01*
X68920000Y-97080000D02*
X66700000Y-97080000D01*
%TO.N,Net-(C1-Pad1)*%
X112137500Y-100000000D02*
X113600000Y-100000000D01*
X108500000Y-84875000D02*
X108125000Y-84875000D01*
X106360000Y-107240000D02*
X95500000Y-107240000D01*
X107000000Y-100000000D02*
X113600000Y-100000000D01*
X100080000Y-71080000D02*
X107000000Y-78000000D01*
X109000000Y-96862500D02*
X112137500Y-100000000D01*
X108125000Y-84875000D02*
X107000000Y-86000000D01*
X113600000Y-100000000D02*
X106360000Y-107240000D01*
X99935000Y-71080000D02*
X100080000Y-71080000D01*
%TO.N,Net-(M1-Pad2)*%
X99935000Y-68540000D02*
X97571516Y-68540000D01*
X91000000Y-75111516D02*
X91000000Y-95000000D01*
X97571516Y-68540000D02*
X91000000Y-75111516D01*
X91000000Y-95000000D02*
X93080000Y-97080000D01*
X93080000Y-97080000D02*
X95300000Y-97080000D01*
%TO.N,Net-(M1-Pad3)*%
X89800480Y-96660480D02*
X95300000Y-102160000D01*
X89800480Y-73771036D02*
X89800480Y-96660480D01*
X99935000Y-66000000D02*
X97571516Y-66000000D01*
X97571516Y-66000000D02*
X89800480Y-73771036D01*
%TO.N,unconnected-(M1-Pad7)*%
X121525000Y-68540000D02*
X118477000Y-68540000D01*
X118477000Y-68540000D02*
X113905000Y-73112000D01*
%TO.N,unconnected-(M1-Pad8)*%
X118477000Y-63460000D02*
X113905000Y-58888000D01*
X121525000Y-63460000D02*
X118477000Y-63460000D01*
%TO.N,LVGND*%
X54460000Y-92000000D02*
X66700000Y-92000000D01*
X52000000Y-97000000D02*
X52000000Y-94460000D01*
X52000000Y-94460000D02*
X54460000Y-92000000D01*
%TO.N,HVGND*%
X98500000Y-92000000D02*
X101500000Y-89000000D01*
X105000000Y-82300000D02*
X105000000Y-79000000D01*
X113600000Y-92380000D02*
X109120000Y-92380000D01*
X109000000Y-95137500D02*
X109000000Y-92500000D01*
X95700000Y-91430000D02*
X95130000Y-92000000D01*
X95880000Y-92380000D02*
X95500000Y-92000000D01*
X95500000Y-92000000D02*
X98500000Y-92000000D01*
X109120000Y-92380000D02*
X95880000Y-92380000D01*
X101500000Y-89000000D02*
X101500000Y-85000000D01*
X101500000Y-85000000D02*
X104200000Y-82300000D01*
X109000000Y-92500000D02*
X109120000Y-92380000D01*
X104200000Y-82300000D02*
X105000000Y-82300000D01*
%TO.N,Net-(D1-Pad1)*%
X108500000Y-83125000D02*
X107575000Y-83125000D01*
X107575000Y-83125000D02*
X105000000Y-85700000D01*
%TD*%
%TA.AperFunction,NonConductor*%
G36*
X108196002Y-59403649D02*
G01*
X108249717Y-59439540D01*
X108255020Y-59441818D01*
X108255023Y-59441820D01*
X108352674Y-59483774D01*
X108452436Y-59526635D01*
X108458071Y-59527910D01*
X108458074Y-59527911D01*
X108459484Y-59528230D01*
X108460083Y-59528564D01*
X108463562Y-59529694D01*
X108463340Y-59530377D01*
X108521511Y-59562772D01*
X108555016Y-59625366D01*
X108549362Y-59696137D01*
X108506344Y-59752616D01*
X108475287Y-59769335D01*
X108311376Y-59829804D01*
X108311368Y-59829808D01*
X108305957Y-59831804D01*
X108198323Y-59895840D01*
X108190423Y-59900540D01*
X108121653Y-59918180D01*
X108054263Y-59895840D01*
X108009649Y-59840612D01*
X108000000Y-59792255D01*
X108000000Y-59508414D01*
X108020002Y-59440293D01*
X108073658Y-59393800D01*
X108143932Y-59383696D01*
X108196002Y-59403649D01*
G37*
%TD.AperFunction*%
%TA.AperFunction,NonConductor*%
G36*
X108196002Y-72103649D02*
G01*
X108249717Y-72139540D01*
X108255020Y-72141818D01*
X108255023Y-72141820D01*
X108442930Y-72222551D01*
X108452436Y-72226635D01*
X108458071Y-72227910D01*
X108458074Y-72227911D01*
X108459484Y-72228230D01*
X108460083Y-72228564D01*
X108463562Y-72229694D01*
X108463340Y-72230377D01*
X108521511Y-72262772D01*
X108555016Y-72325366D01*
X108549362Y-72396137D01*
X108506344Y-72452616D01*
X108475287Y-72469335D01*
X108311376Y-72529804D01*
X108311368Y-72529808D01*
X108305957Y-72531804D01*
X108198323Y-72595840D01*
X108190423Y-72600540D01*
X108121653Y-72618180D01*
X108054263Y-72595840D01*
X108009649Y-72540612D01*
X108000000Y-72492255D01*
X108000000Y-72208414D01*
X108020002Y-72140293D01*
X108073658Y-72093800D01*
X108143932Y-72083696D01*
X108196002Y-72103649D01*
G37*
%TD.AperFunction*%
%TA.AperFunction,NonConductor*%
G36*
X135942121Y-50020502D02*
G01*
X135988614Y-50074158D01*
X136000000Y-50126500D01*
X136000000Y-58000000D01*
X143873500Y-58000000D01*
X143941621Y-58020002D01*
X143988114Y-58073658D01*
X143999500Y-58126000D01*
X143999500Y-64874000D01*
X143979498Y-64942121D01*
X143925842Y-64988614D01*
X143873500Y-65000000D01*
X136000000Y-65000000D01*
X136000000Y-73000000D01*
X143873500Y-73000000D01*
X143941621Y-73020002D01*
X143988114Y-73073658D01*
X143999500Y-73126000D01*
X143999500Y-74999864D01*
X143999464Y-74999925D01*
X143999500Y-75000066D01*
X143999500Y-75000100D01*
X143999523Y-75000157D01*
X143999567Y-75000327D01*
X143999602Y-75000348D01*
X143999617Y-75000384D01*
X143999769Y-75000447D01*
X143999923Y-75000538D01*
X143999965Y-75000527D01*
X144000000Y-75000542D01*
X144000052Y-75000520D01*
X144124710Y-75022901D01*
X144234301Y-75042577D01*
X144234562Y-75042624D01*
X144500971Y-75091034D01*
X144509495Y-75092890D01*
X144756476Y-75155730D01*
X144757154Y-75155905D01*
X144854578Y-75181348D01*
X145005134Y-75220668D01*
X145013008Y-75223001D01*
X145086659Y-75247461D01*
X145257534Y-75304210D01*
X145258628Y-75304580D01*
X145498379Y-75387012D01*
X145505564Y-75389731D01*
X145744689Y-75488625D01*
X145746330Y-75489317D01*
X145933101Y-75569799D01*
X145978024Y-75589157D01*
X145984510Y-75592173D01*
X146216591Y-75708213D01*
X146218631Y-75709258D01*
X146327551Y-75766320D01*
X146441486Y-75826009D01*
X146447257Y-75829228D01*
X146670868Y-75961796D01*
X146673199Y-75963216D01*
X146773396Y-76025794D01*
X146886259Y-76096284D01*
X146891348Y-76099636D01*
X147105000Y-76247898D01*
X147107803Y-76249900D01*
X147309967Y-76398539D01*
X147314375Y-76401933D01*
X147394512Y-76466491D01*
X147517019Y-76565183D01*
X147520014Y-76567674D01*
X147598022Y-76634682D01*
X147710283Y-76731114D01*
X147714035Y-76734470D01*
X147904542Y-76911820D01*
X147907783Y-76914948D01*
X148085052Y-77092217D01*
X148088180Y-77095458D01*
X148265530Y-77285965D01*
X148268886Y-77289717D01*
X148432326Y-77479986D01*
X148434817Y-77482981D01*
X148509294Y-77575429D01*
X148598067Y-77685625D01*
X148601461Y-77690033D01*
X148750100Y-77892197D01*
X148752102Y-77895000D01*
X148900364Y-78108652D01*
X148903716Y-78113741D01*
X148943888Y-78178061D01*
X149036784Y-78326801D01*
X149038204Y-78329132D01*
X149170765Y-78552730D01*
X149173991Y-78558514D01*
X149233680Y-78672449D01*
X149242577Y-78689430D01*
X149290721Y-78781328D01*
X149291787Y-78783409D01*
X149407827Y-79015490D01*
X149410843Y-79021976D01*
X149510669Y-79253637D01*
X149511390Y-79255346D01*
X149610269Y-79494435D01*
X149612988Y-79501621D01*
X149695393Y-79741291D01*
X149695817Y-79742546D01*
X149776999Y-79986992D01*
X149779332Y-79994866D01*
X149844081Y-80242792D01*
X149844279Y-80243562D01*
X149907108Y-80490497D01*
X149908963Y-80499012D01*
X149940861Y-80674554D01*
X149957374Y-80765429D01*
X149957421Y-80765689D01*
X149997517Y-80989016D01*
X149999500Y-81011282D01*
X149999500Y-102997745D01*
X149999460Y-102999998D01*
X149999459Y-103000000D01*
X149999460Y-103000002D01*
X149999420Y-103002245D01*
X149990005Y-103265678D01*
X149989996Y-103265915D01*
X149981131Y-103501567D01*
X149980497Y-103510308D01*
X149952503Y-103770517D01*
X149952425Y-103771222D01*
X149925170Y-104011809D01*
X149923966Y-104020012D01*
X149877688Y-104276346D01*
X149877473Y-104277510D01*
X149831990Y-104516567D01*
X149830291Y-104524197D01*
X149765966Y-104776057D01*
X149765555Y-104777622D01*
X149754571Y-104818387D01*
X149702105Y-105013086D01*
X149699993Y-105020103D01*
X149629036Y-105233151D01*
X149617932Y-105266491D01*
X149617257Y-105268462D01*
X149540254Y-105487242D01*
X149536205Y-105498746D01*
X149533753Y-105505149D01*
X149434365Y-105744926D01*
X149433382Y-105747229D01*
X149369978Y-105891673D01*
X149335194Y-105970916D01*
X149332476Y-105976705D01*
X149216294Y-106208637D01*
X149214881Y-106211373D01*
X149100148Y-106427081D01*
X149097245Y-106432242D01*
X148964837Y-106655233D01*
X148963033Y-106658177D01*
X148832330Y-106864793D01*
X148829342Y-106869298D01*
X148685975Y-107075617D01*
X148681395Y-107082208D01*
X148679045Y-107085477D01*
X148607423Y-107181825D01*
X148533186Y-107281691D01*
X148530153Y-107285607D01*
X148367402Y-107487389D01*
X148364515Y-107490840D01*
X148204354Y-107675508D01*
X148201346Y-107678854D01*
X148044295Y-107847379D01*
X148024619Y-107868492D01*
X148021156Y-107872064D01*
X147847562Y-108044186D01*
X147844658Y-108046975D01*
X147654839Y-108223520D01*
X147650770Y-108227144D01*
X147464747Y-108385726D01*
X147462011Y-108387992D01*
X147260000Y-108550594D01*
X147255350Y-108554161D01*
X147057991Y-108698280D01*
X147055518Y-108700039D01*
X146842336Y-108847861D01*
X146836990Y-108851371D01*
X146629471Y-108980185D01*
X146627243Y-108981536D01*
X146495979Y-109059303D01*
X146403986Y-109113803D01*
X146398003Y-109117132D01*
X146181526Y-109229920D01*
X146179627Y-109230889D01*
X145947330Y-109346965D01*
X145940669Y-109350054D01*
X145716641Y-109446125D01*
X145715113Y-109446768D01*
X145474812Y-109546096D01*
X145467515Y-109548851D01*
X145237161Y-109627730D01*
X145236397Y-109627988D01*
X145086872Y-109677623D01*
X144988950Y-109710128D01*
X144981001Y-109712479D01*
X144746772Y-109773463D01*
X144746084Y-109773640D01*
X144652440Y-109797458D01*
X144492348Y-109838177D01*
X144483827Y-109840032D01*
X144251651Y-109882161D01*
X143990007Y-109929129D01*
X143989948Y-109929105D01*
X143989910Y-109929121D01*
X143989872Y-109929111D01*
X143989730Y-109929195D01*
X143989566Y-109929263D01*
X143989550Y-109929302D01*
X143989516Y-109929322D01*
X143989474Y-109929487D01*
X143989449Y-109929547D01*
X143989449Y-109929583D01*
X143989413Y-109929724D01*
X143989449Y-109929785D01*
X143989464Y-109944527D01*
X143991389Y-111873874D01*
X143971455Y-111942015D01*
X143917846Y-111988561D01*
X143865389Y-112000000D01*
X136000000Y-112000000D01*
X136000000Y-119873500D01*
X135979998Y-119941621D01*
X135926342Y-119988114D01*
X135874000Y-119999500D01*
X109126000Y-119999500D01*
X109057879Y-119979498D01*
X109011386Y-119925842D01*
X109000000Y-119873500D01*
X109000000Y-114803834D01*
X112949500Y-114803834D01*
X112952481Y-114835369D01*
X112997366Y-114963184D01*
X113002958Y-114970754D01*
X113002959Y-114970757D01*
X113051246Y-115036131D01*
X113077850Y-115072150D01*
X113085421Y-115077742D01*
X113179243Y-115147041D01*
X113179246Y-115147042D01*
X113186816Y-115152634D01*
X113314631Y-115197519D01*
X113322277Y-115198242D01*
X113322278Y-115198242D01*
X113328248Y-115198806D01*
X113346166Y-115200500D01*
X114653834Y-115200500D01*
X114671752Y-115198806D01*
X114677722Y-115198242D01*
X114677723Y-115198242D01*
X114685369Y-115197519D01*
X114813184Y-115152634D01*
X114820754Y-115147042D01*
X114820757Y-115147041D01*
X114914579Y-115077742D01*
X114922150Y-115072150D01*
X114948754Y-115036131D01*
X114997041Y-114970757D01*
X114997042Y-114970754D01*
X115002634Y-114963184D01*
X115047519Y-114835369D01*
X115050500Y-114803834D01*
X115050500Y-113992347D01*
X115070502Y-113924226D01*
X115087405Y-113903252D01*
X115234405Y-113756252D01*
X115296717Y-113722226D01*
X115367532Y-113727291D01*
X115424368Y-113769838D01*
X115449179Y-113836358D01*
X115449500Y-113845347D01*
X115449500Y-114201841D01*
X115464520Y-114355030D01*
X115524065Y-114552251D01*
X115620782Y-114734151D01*
X115675198Y-114800871D01*
X115747094Y-114889025D01*
X115747097Y-114889028D01*
X115750989Y-114893800D01*
X115755736Y-114897727D01*
X115755738Y-114897729D01*
X115904975Y-115021189D01*
X115904979Y-115021191D01*
X115909725Y-115025118D01*
X116090945Y-115123103D01*
X116287746Y-115184023D01*
X116293871Y-115184667D01*
X116293872Y-115184667D01*
X116486502Y-115204913D01*
X116486504Y-115204913D01*
X116492631Y-115205557D01*
X116580956Y-115197519D01*
X116691658Y-115187445D01*
X116691661Y-115187444D01*
X116697797Y-115186886D01*
X116895428Y-115128720D01*
X117077998Y-115033274D01*
X117082799Y-115029414D01*
X117082802Y-115029412D01*
X117233746Y-114908050D01*
X117233747Y-114908050D01*
X117238553Y-114904185D01*
X117370976Y-114746370D01*
X117373944Y-114740972D01*
X117373947Y-114740967D01*
X117467257Y-114571235D01*
X117470224Y-114565838D01*
X117526741Y-114387672D01*
X117530653Y-114375341D01*
X117532516Y-114369468D01*
X117533474Y-114360932D01*
X117550107Y-114212636D01*
X117550500Y-114209136D01*
X117550500Y-113992347D01*
X117570502Y-113924226D01*
X117587405Y-113903252D01*
X117625074Y-113865583D01*
X117631340Y-113859729D01*
X117668674Y-113827161D01*
X117668676Y-113827159D01*
X117674396Y-113822169D01*
X117682094Y-113811216D01*
X117696085Y-113794571D01*
X117753253Y-113737404D01*
X117815566Y-113703379D01*
X117842348Y-113700500D01*
X123580234Y-113700500D01*
X123648355Y-113720502D01*
X123687667Y-113760665D01*
X123725357Y-113822169D01*
X123781741Y-113914179D01*
X123940241Y-114099759D01*
X124125821Y-114258259D01*
X124333911Y-114385777D01*
X124338481Y-114387670D01*
X124338485Y-114387672D01*
X124554819Y-114477280D01*
X124554825Y-114477282D01*
X124559388Y-114479172D01*
X124564188Y-114480324D01*
X124564193Y-114480326D01*
X124670117Y-114505756D01*
X124796698Y-114536146D01*
X125040000Y-114555294D01*
X125283302Y-114536146D01*
X125409883Y-114505756D01*
X125515807Y-114480326D01*
X125515812Y-114480324D01*
X125520612Y-114479172D01*
X125525175Y-114477282D01*
X125525181Y-114477280D01*
X125741515Y-114387672D01*
X125741519Y-114387670D01*
X125746089Y-114385777D01*
X125954179Y-114258259D01*
X126139759Y-114099759D01*
X126298259Y-113914179D01*
X126425777Y-113706089D01*
X126457074Y-113630532D01*
X126517280Y-113485181D01*
X126517282Y-113485175D01*
X126519172Y-113480612D01*
X126576146Y-113243302D01*
X126595294Y-113000000D01*
X126576146Y-112756698D01*
X126519172Y-112519388D01*
X126517282Y-112514825D01*
X126517280Y-112514819D01*
X126427672Y-112298485D01*
X126427670Y-112298481D01*
X126425777Y-112293911D01*
X126298259Y-112085821D01*
X126139759Y-111900241D01*
X125954179Y-111741741D01*
X125746089Y-111614223D01*
X125741519Y-111612330D01*
X125741515Y-111612328D01*
X125525181Y-111522720D01*
X125525175Y-111522718D01*
X125520612Y-111520828D01*
X125515812Y-111519676D01*
X125515807Y-111519674D01*
X125407298Y-111493623D01*
X125283302Y-111463854D01*
X125040000Y-111444706D01*
X124796698Y-111463854D01*
X124672702Y-111493623D01*
X124564193Y-111519674D01*
X124564188Y-111519676D01*
X124559388Y-111520828D01*
X124554825Y-111522718D01*
X124554819Y-111522720D01*
X124338485Y-111612328D01*
X124338481Y-111612330D01*
X124333911Y-111614223D01*
X124125821Y-111741741D01*
X123940241Y-111900241D01*
X123781741Y-112085821D01*
X123779157Y-112090038D01*
X123687667Y-112239335D01*
X123635019Y-112286966D01*
X123580234Y-112299500D01*
X117976500Y-112299500D01*
X117908379Y-112279498D01*
X117861886Y-112225842D01*
X117850500Y-112173500D01*
X117850500Y-106230252D01*
X117838867Y-106171769D01*
X117794552Y-106105448D01*
X117728231Y-106061133D01*
X117716062Y-106058712D01*
X117716061Y-106058712D01*
X117675816Y-106050707D01*
X117669748Y-106049500D01*
X116746324Y-106049500D01*
X116678203Y-106029498D01*
X116631710Y-105975842D01*
X116621606Y-105905568D01*
X116651100Y-105840988D01*
X116657229Y-105834405D01*
X129374230Y-93117405D01*
X129436542Y-93083379D01*
X129463325Y-93080500D01*
X130757791Y-93080500D01*
X130825912Y-93100502D01*
X130833356Y-93105674D01*
X130849994Y-93118144D01*
X130849997Y-93118146D01*
X130857176Y-93123526D01*
X130946561Y-93157034D01*
X130984025Y-93171079D01*
X130984027Y-93171079D01*
X130991420Y-93173851D01*
X130999270Y-93174704D01*
X130999271Y-93174704D01*
X131049217Y-93180130D01*
X131052623Y-93180500D01*
X132399802Y-93180500D01*
X133747376Y-93180499D01*
X133750770Y-93180130D01*
X133750776Y-93180130D01*
X133800722Y-93174705D01*
X133800726Y-93174704D01*
X133808580Y-93173851D01*
X133942824Y-93123526D01*
X133950003Y-93118146D01*
X133950006Y-93118144D01*
X134050365Y-93042928D01*
X134057546Y-93037546D01*
X134084271Y-93001887D01*
X134138144Y-92930006D01*
X134138146Y-92930003D01*
X134143526Y-92922824D01*
X134193851Y-92788580D01*
X134200500Y-92727377D01*
X134200499Y-92032624D01*
X134193851Y-91971420D01*
X134143526Y-91837176D01*
X134138146Y-91829997D01*
X134138144Y-91829994D01*
X134062928Y-91729635D01*
X134057546Y-91722454D01*
X134029298Y-91701283D01*
X133950006Y-91641856D01*
X133950003Y-91641854D01*
X133942824Y-91636474D01*
X133853439Y-91602966D01*
X133815975Y-91588921D01*
X133815973Y-91588921D01*
X133808580Y-91586149D01*
X133800730Y-91585296D01*
X133800729Y-91585296D01*
X133750774Y-91579869D01*
X133750773Y-91579869D01*
X133747377Y-91579500D01*
X132400198Y-91579500D01*
X131052624Y-91579501D01*
X131049230Y-91579870D01*
X131049224Y-91579870D01*
X130999278Y-91585295D01*
X130999274Y-91585296D01*
X130991420Y-91586149D01*
X130857176Y-91636474D01*
X130849997Y-91641854D01*
X130849994Y-91641856D01*
X130833356Y-91654326D01*
X130766849Y-91679174D01*
X130757791Y-91679500D01*
X129149619Y-91679500D01*
X129141049Y-91679208D01*
X129091624Y-91675838D01*
X129091620Y-91675838D01*
X129084048Y-91675322D01*
X129076572Y-91676627D01*
X129076569Y-91676627D01*
X129021846Y-91686178D01*
X129015320Y-91687141D01*
X128974882Y-91692035D01*
X128952658Y-91694724D01*
X128945551Y-91697409D01*
X128942258Y-91698218D01*
X128927764Y-91702183D01*
X128924504Y-91703167D01*
X128917024Y-91704473D01*
X128859196Y-91729857D01*
X128853115Y-91732338D01*
X128801165Y-91751968D01*
X128801163Y-91751969D01*
X128794055Y-91754655D01*
X128787791Y-91758960D01*
X128784750Y-91760550D01*
X128771643Y-91767845D01*
X128768729Y-91769568D01*
X128761775Y-91772621D01*
X128722100Y-91803066D01*
X128711684Y-91811058D01*
X128706360Y-91814926D01*
X128654327Y-91850688D01*
X128649275Y-91856358D01*
X128649274Y-91856359D01*
X128613370Y-91896657D01*
X128608389Y-91901933D01*
X115374925Y-105135396D01*
X115368660Y-105141249D01*
X115325604Y-105178809D01*
X115289317Y-105230441D01*
X115285384Y-105235736D01*
X115251105Y-105279454D01*
X115251103Y-105279458D01*
X115246416Y-105285435D01*
X115243290Y-105292358D01*
X115241505Y-105295306D01*
X115234113Y-105308266D01*
X115232480Y-105311312D01*
X115228113Y-105317525D01*
X115225354Y-105324602D01*
X115205180Y-105376344D01*
X115202625Y-105382423D01*
X115176645Y-105439962D01*
X115175260Y-105447433D01*
X115174236Y-105450701D01*
X115170123Y-105465142D01*
X115169283Y-105468415D01*
X115166524Y-105475491D01*
X115165533Y-105483021D01*
X115158284Y-105538084D01*
X115157252Y-105544601D01*
X115145748Y-105606670D01*
X115146185Y-105614250D01*
X115146185Y-105614251D01*
X115149291Y-105668122D01*
X115149500Y-105675374D01*
X115149500Y-111807653D01*
X115129498Y-111875774D01*
X115112595Y-111896749D01*
X114246747Y-112762596D01*
X114184435Y-112796621D01*
X114157652Y-112799500D01*
X113346166Y-112799500D01*
X113328248Y-112801194D01*
X113322278Y-112801758D01*
X113322277Y-112801758D01*
X113314631Y-112802481D01*
X113186816Y-112847366D01*
X113179246Y-112852958D01*
X113179243Y-112852959D01*
X113162799Y-112865105D01*
X113077850Y-112927850D01*
X113072258Y-112935421D01*
X113002959Y-113029243D01*
X113002958Y-113029246D01*
X112997366Y-113036816D01*
X112952481Y-113164631D01*
X112949500Y-113196166D01*
X112949500Y-114803834D01*
X109000000Y-114803834D01*
X109000000Y-111048351D01*
X109020002Y-110980230D01*
X109032345Y-110964061D01*
X110309154Y-109545385D01*
X112634221Y-106961977D01*
X117987881Y-101013466D01*
X117987881Y-101013465D01*
X118000000Y-101000000D01*
X118000000Y-89492623D01*
X130599500Y-89492623D01*
X130599501Y-90187376D01*
X130599870Y-90190770D01*
X130599870Y-90190776D01*
X130600243Y-90194205D01*
X130606149Y-90248580D01*
X130656474Y-90382824D01*
X130661854Y-90390003D01*
X130661856Y-90390006D01*
X130737072Y-90490365D01*
X130742454Y-90497546D01*
X130749635Y-90502928D01*
X130849994Y-90578144D01*
X130849997Y-90578146D01*
X130857176Y-90583526D01*
X130894658Y-90597577D01*
X130984025Y-90631079D01*
X130984027Y-90631079D01*
X130991420Y-90633851D01*
X130999270Y-90634704D01*
X130999271Y-90634704D01*
X131049226Y-90640131D01*
X131052623Y-90640500D01*
X131448066Y-90640500D01*
X131516187Y-90660502D01*
X131542798Y-90683423D01*
X131566276Y-90710195D01*
X131566281Y-90710200D01*
X131570090Y-90714543D01*
X131743360Y-90851137D01*
X131938620Y-90953869D01*
X132149333Y-91019297D01*
X132155070Y-91019976D01*
X132324789Y-91040064D01*
X132324795Y-91040064D01*
X132328476Y-91040500D01*
X134867978Y-91040500D01*
X134929544Y-91056565D01*
X135009621Y-91101410D01*
X135015089Y-91103266D01*
X135213079Y-91170475D01*
X135213084Y-91170476D01*
X135218548Y-91172331D01*
X135224257Y-91173159D01*
X135224262Y-91173160D01*
X135327725Y-91188161D01*
X135436902Y-91203991D01*
X135583789Y-91198220D01*
X135651595Y-91195556D01*
X135651597Y-91195556D01*
X135657368Y-91195329D01*
X135663001Y-91194054D01*
X135663004Y-91194054D01*
X135767205Y-91170475D01*
X135872565Y-91146634D01*
X135877872Y-91144354D01*
X136069977Y-91061819D01*
X136069980Y-91061817D01*
X136075283Y-91059539D01*
X136258735Y-90936960D01*
X136416778Y-90783002D01*
X136544117Y-90602822D01*
X136592650Y-90497546D01*
X136634072Y-90407695D01*
X136634072Y-90407694D01*
X136636489Y-90402452D01*
X136668200Y-90277592D01*
X136689378Y-90194205D01*
X136689379Y-90194200D01*
X136690800Y-90188604D01*
X136705230Y-89968440D01*
X136679296Y-89749333D01*
X136613869Y-89538620D01*
X136527387Y-89374245D01*
X136513828Y-89348473D01*
X136513826Y-89348470D01*
X136511137Y-89343359D01*
X136399457Y-89201693D01*
X136220511Y-89022748D01*
X136214874Y-89016729D01*
X136169910Y-88965457D01*
X136110559Y-88918668D01*
X136096886Y-88907889D01*
X136094324Y-88905814D01*
X136027325Y-88850092D01*
X136027323Y-88850090D01*
X136022883Y-88846398D01*
X136017839Y-88843573D01*
X136017713Y-88843502D01*
X136001291Y-88832529D01*
X136001176Y-88832438D01*
X136001171Y-88832435D01*
X135996640Y-88828863D01*
X135914383Y-88785585D01*
X135911502Y-88784021D01*
X135830379Y-88738590D01*
X135824780Y-88736690D01*
X135806613Y-88728884D01*
X135806494Y-88728822D01*
X135801380Y-88726131D01*
X135712606Y-88698566D01*
X135709480Y-88697550D01*
X135626921Y-88669525D01*
X135626916Y-88669524D01*
X135621452Y-88667669D01*
X135615584Y-88666818D01*
X135596330Y-88662461D01*
X135596183Y-88662415D01*
X135596177Y-88662414D01*
X135590667Y-88660703D01*
X135584939Y-88660025D01*
X135584934Y-88660024D01*
X135511194Y-88651297D01*
X135498344Y-88649776D01*
X135495085Y-88649347D01*
X135478827Y-88646990D01*
X135408811Y-88636837D01*
X135408807Y-88636837D01*
X135403098Y-88636009D01*
X135316714Y-88639403D01*
X135311767Y-88639500D01*
X132344030Y-88639500D01*
X132180289Y-88654546D01*
X132174727Y-88656115D01*
X132174725Y-88656115D01*
X132074112Y-88684491D01*
X131967936Y-88714435D01*
X131770053Y-88812020D01*
X131765427Y-88815474D01*
X131765426Y-88815475D01*
X131742710Y-88832438D01*
X131593267Y-88944033D01*
X131589343Y-88948278D01*
X131542428Y-88999030D01*
X131481500Y-89035475D01*
X131449904Y-89039501D01*
X131052624Y-89039501D01*
X131049230Y-89039870D01*
X131049224Y-89039870D01*
X130999278Y-89045295D01*
X130999274Y-89045296D01*
X130991420Y-89046149D01*
X130857176Y-89096474D01*
X130849997Y-89101854D01*
X130849994Y-89101856D01*
X130749635Y-89177072D01*
X130742454Y-89182454D01*
X130737072Y-89189635D01*
X130661856Y-89289994D01*
X130661854Y-89289997D01*
X130656474Y-89297176D01*
X130606149Y-89431420D01*
X130605296Y-89439270D01*
X130605296Y-89439271D01*
X130602087Y-89468812D01*
X130599500Y-89492623D01*
X118000000Y-89492623D01*
X118000000Y-86000000D01*
X110847044Y-78131748D01*
X111704500Y-78131748D01*
X111716133Y-78190231D01*
X111760448Y-78256552D01*
X111826769Y-78300867D01*
X111838938Y-78303288D01*
X111838939Y-78303288D01*
X111879184Y-78311293D01*
X111885252Y-78312500D01*
X115924748Y-78312500D01*
X115930816Y-78311293D01*
X115971061Y-78303288D01*
X115971062Y-78303288D01*
X115983231Y-78300867D01*
X116049552Y-78256552D01*
X116093867Y-78190231D01*
X116105500Y-78131748D01*
X116105500Y-73530741D01*
X120321833Y-73530741D01*
X120327929Y-73789390D01*
X120373078Y-74044142D01*
X120456241Y-74289133D01*
X120575505Y-74518725D01*
X120728125Y-74727636D01*
X120731499Y-74731028D01*
X120731501Y-74731030D01*
X120790636Y-74790475D01*
X120910589Y-74911058D01*
X120914435Y-74913899D01*
X120914440Y-74913903D01*
X121088651Y-75042577D01*
X121118698Y-75064770D01*
X121122928Y-75066996D01*
X121122932Y-75066998D01*
X121340277Y-75181348D01*
X121347663Y-75185234D01*
X121592215Y-75269679D01*
X121846726Y-75316161D01*
X121929519Y-75320500D01*
X127090782Y-75320500D01*
X127093161Y-75320319D01*
X127093162Y-75320319D01*
X127278209Y-75306243D01*
X127278214Y-75306242D01*
X127282976Y-75305880D01*
X127287630Y-75304801D01*
X127287632Y-75304801D01*
X127530351Y-75248542D01*
X127530350Y-75248542D01*
X127535015Y-75247461D01*
X127775318Y-75151590D01*
X127998354Y-75020473D01*
X128002065Y-75017452D01*
X128002069Y-75017449D01*
X128195279Y-74860151D01*
X128198991Y-74857129D01*
X128372613Y-74665315D01*
X128515222Y-74449447D01*
X128536634Y-74403002D01*
X128621532Y-74218843D01*
X128621533Y-74218840D01*
X128623538Y-74214491D01*
X128695068Y-73965855D01*
X128728167Y-73709259D01*
X128722071Y-73450610D01*
X128707718Y-73369622D01*
X128677756Y-73200562D01*
X128677755Y-73200558D01*
X128676922Y-73195858D01*
X128672474Y-73182753D01*
X128609461Y-72997124D01*
X128593759Y-72950867D01*
X128474495Y-72721275D01*
X128321875Y-72512364D01*
X128139411Y-72328942D01*
X128135565Y-72326101D01*
X128135560Y-72326097D01*
X127935154Y-72178075D01*
X127935153Y-72178074D01*
X127931302Y-72175230D01*
X127927072Y-72173004D01*
X127927068Y-72173002D01*
X127706574Y-72056995D01*
X127706572Y-72056994D01*
X127702337Y-72054766D01*
X127457785Y-71970321D01*
X127250796Y-71932518D01*
X127207244Y-71924564D01*
X127207243Y-71924564D01*
X127203274Y-71923839D01*
X127120481Y-71919500D01*
X121959218Y-71919500D01*
X121956839Y-71919681D01*
X121956838Y-71919681D01*
X121771791Y-71933757D01*
X121771786Y-71933758D01*
X121767024Y-71934120D01*
X121762370Y-71935199D01*
X121762368Y-71935199D01*
X121679762Y-71954346D01*
X121514985Y-71992539D01*
X121274682Y-72088410D01*
X121051646Y-72219527D01*
X121047935Y-72222548D01*
X121047931Y-72222551D01*
X120913083Y-72332335D01*
X120851009Y-72382871D01*
X120677387Y-72574685D01*
X120534778Y-72790553D01*
X120532777Y-72794893D01*
X120532775Y-72794897D01*
X120428468Y-73021157D01*
X120426462Y-73025509D01*
X120354932Y-73274145D01*
X120321833Y-73530741D01*
X116105500Y-73530741D01*
X116105500Y-71954346D01*
X116125502Y-71886225D01*
X116142405Y-71865251D01*
X118730251Y-69277405D01*
X118792563Y-69243379D01*
X118819346Y-69240500D01*
X120198500Y-69240500D01*
X120266621Y-69260502D01*
X120313114Y-69314158D01*
X120324500Y-69366500D01*
X120324500Y-70059748D01*
X120336133Y-70118231D01*
X120380448Y-70184552D01*
X120446769Y-70228867D01*
X120458938Y-70231288D01*
X120458939Y-70231288D01*
X120499184Y-70239293D01*
X120505252Y-70240500D01*
X128544748Y-70240500D01*
X128550816Y-70239293D01*
X128591061Y-70231288D01*
X128591062Y-70231288D01*
X128603231Y-70228867D01*
X128669552Y-70184552D01*
X128713867Y-70118231D01*
X128725500Y-70059748D01*
X128725500Y-67020252D01*
X128713867Y-66961769D01*
X128669552Y-66895448D01*
X128603231Y-66851133D01*
X128591062Y-66848712D01*
X128591061Y-66848712D01*
X128550816Y-66840707D01*
X128544748Y-66839500D01*
X120505252Y-66839500D01*
X120499184Y-66840707D01*
X120458939Y-66848712D01*
X120458938Y-66848712D01*
X120446769Y-66851133D01*
X120380448Y-66895448D01*
X120336133Y-66961769D01*
X120324500Y-67020252D01*
X120324500Y-67713500D01*
X120304498Y-67781621D01*
X120250842Y-67828114D01*
X120198500Y-67839500D01*
X118505637Y-67839500D01*
X118497066Y-67839208D01*
X118440070Y-67835322D01*
X118432594Y-67836627D01*
X118432590Y-67836627D01*
X118377868Y-67846178D01*
X118371342Y-67847141D01*
X118330904Y-67852035D01*
X118308680Y-67854724D01*
X118301573Y-67857409D01*
X118298280Y-67858218D01*
X118283809Y-67862177D01*
X118280533Y-67863166D01*
X118273046Y-67864473D01*
X118266088Y-67867528D01*
X118266086Y-67867528D01*
X118215242Y-67889846D01*
X118209137Y-67892338D01*
X118198126Y-67896499D01*
X118150077Y-67914655D01*
X118143824Y-67918953D01*
X118140793Y-67920537D01*
X118127716Y-67927817D01*
X118124757Y-67929567D01*
X118117797Y-67932622D01*
X118111770Y-67937247D01*
X118111766Y-67937249D01*
X118067700Y-67971062D01*
X118062381Y-67974927D01*
X118010349Y-68010688D01*
X118005292Y-68016364D01*
X117969400Y-68056648D01*
X117964419Y-68061924D01*
X116125748Y-69900595D01*
X116063436Y-69934621D01*
X115990679Y-69928110D01*
X115983231Y-69923133D01*
X115971062Y-69920712D01*
X115971061Y-69920712D01*
X115930816Y-69912707D01*
X115924748Y-69911500D01*
X111885252Y-69911500D01*
X111879184Y-69912707D01*
X111838939Y-69920712D01*
X111838938Y-69920712D01*
X111826769Y-69923133D01*
X111760448Y-69967448D01*
X111716133Y-70033769D01*
X111704500Y-70092252D01*
X111704500Y-78131748D01*
X110847044Y-78131748D01*
X108032768Y-75036045D01*
X108001745Y-74972185D01*
X108000000Y-74951288D01*
X108000000Y-74748414D01*
X108020002Y-74680293D01*
X108073658Y-74633800D01*
X108143932Y-74623696D01*
X108196002Y-74643649D01*
X108249717Y-74679540D01*
X108255020Y-74681818D01*
X108255023Y-74681820D01*
X108352674Y-74723774D01*
X108452436Y-74766635D01*
X108532088Y-74784658D01*
X108661995Y-74814054D01*
X108662001Y-74814055D01*
X108667632Y-74815329D01*
X108673403Y-74815556D01*
X108673405Y-74815556D01*
X108741211Y-74818220D01*
X108888098Y-74823991D01*
X108997275Y-74808161D01*
X109100738Y-74793160D01*
X109100743Y-74793159D01*
X109106452Y-74792331D01*
X109111916Y-74790476D01*
X109111921Y-74790475D01*
X109309907Y-74723268D01*
X109309912Y-74723266D01*
X109315379Y-74721410D01*
X109507884Y-74613602D01*
X109621961Y-74518725D01*
X109673086Y-74476204D01*
X109677518Y-74472518D01*
X109818602Y-74302884D01*
X109926410Y-74110379D01*
X109928266Y-74104912D01*
X109928268Y-74104907D01*
X109995475Y-73906921D01*
X109995476Y-73906916D01*
X109997331Y-73901452D01*
X109998159Y-73895743D01*
X109998160Y-73895738D01*
X110028458Y-73686772D01*
X110028991Y-73683098D01*
X110030643Y-73620000D01*
X110010454Y-73400289D01*
X109950565Y-73187936D01*
X109852980Y-72990053D01*
X109820552Y-72946626D01*
X109724420Y-72817891D01*
X109724420Y-72817890D01*
X109720967Y-72813267D01*
X109558949Y-72663499D01*
X109372350Y-72545764D01*
X109169955Y-72465017D01*
X109114096Y-72421196D01*
X109090795Y-72354132D01*
X109107451Y-72285117D01*
X109158775Y-72236063D01*
X109176144Y-72228674D01*
X109309907Y-72183268D01*
X109309912Y-72183266D01*
X109315379Y-72181410D01*
X109326415Y-72175230D01*
X109454231Y-72103649D01*
X109507884Y-72073602D01*
X109532413Y-72053202D01*
X109673086Y-71936204D01*
X109677518Y-71932518D01*
X109818602Y-71762884D01*
X109926410Y-71570379D01*
X109928266Y-71564912D01*
X109928268Y-71564907D01*
X109995475Y-71366921D01*
X109995476Y-71366916D01*
X109997331Y-71361452D01*
X109998159Y-71355743D01*
X109998160Y-71355738D01*
X110028458Y-71146772D01*
X110028991Y-71143098D01*
X110030643Y-71080000D01*
X110010454Y-70860289D01*
X109950565Y-70647936D01*
X109852980Y-70450053D01*
X109720967Y-70273267D01*
X109558949Y-70123499D01*
X109372350Y-70005764D01*
X109167421Y-69924006D01*
X109161761Y-69922880D01*
X109161757Y-69922879D01*
X108956691Y-69882089D01*
X108956688Y-69882089D01*
X108951024Y-69880962D01*
X108945249Y-69880886D01*
X108945245Y-69880886D01*
X108834504Y-69879437D01*
X108730406Y-69878074D01*
X108724709Y-69879053D01*
X108724708Y-69879053D01*
X108518654Y-69914459D01*
X108518653Y-69914459D01*
X108512957Y-69915438D01*
X108305957Y-69991804D01*
X108198323Y-70055840D01*
X108190423Y-70060540D01*
X108121653Y-70078180D01*
X108054263Y-70055840D01*
X108009649Y-70000612D01*
X108000000Y-69952255D01*
X108000000Y-62048414D01*
X108020002Y-61980293D01*
X108073658Y-61933800D01*
X108143932Y-61923696D01*
X108196002Y-61943649D01*
X108249717Y-61979540D01*
X108255020Y-61981818D01*
X108255023Y-61981820D01*
X108389145Y-62039443D01*
X108452436Y-62066635D01*
X108532088Y-62084658D01*
X108661995Y-62114054D01*
X108662001Y-62114055D01*
X108667632Y-62115329D01*
X108673403Y-62115556D01*
X108673405Y-62115556D01*
X108741211Y-62118220D01*
X108888098Y-62123991D01*
X108997275Y-62108161D01*
X109100738Y-62093160D01*
X109100743Y-62093159D01*
X109106452Y-62092331D01*
X109111916Y-62090476D01*
X109111921Y-62090475D01*
X109309907Y-62023268D01*
X109309912Y-62023266D01*
X109315379Y-62021410D01*
X109507884Y-61913602D01*
X109514923Y-61907748D01*
X111704500Y-61907748D01*
X111716133Y-61966231D01*
X111760448Y-62032552D01*
X111826769Y-62076867D01*
X111838938Y-62079288D01*
X111838939Y-62079288D01*
X111879184Y-62087293D01*
X111885252Y-62088500D01*
X115924748Y-62088500D01*
X115983231Y-62076867D01*
X115990753Y-62071841D01*
X116059028Y-62064502D01*
X116125749Y-62099405D01*
X117961411Y-63935067D01*
X117967264Y-63941332D01*
X118004831Y-63984396D01*
X118011042Y-63988761D01*
X118011045Y-63988764D01*
X118056493Y-64020705D01*
X118061788Y-64024638D01*
X118111457Y-64063583D01*
X118118379Y-64066708D01*
X118121306Y-64068481D01*
X118134325Y-64075906D01*
X118137329Y-64077517D01*
X118143547Y-64081887D01*
X118186412Y-64098599D01*
X118202363Y-64104818D01*
X118208445Y-64107375D01*
X118259057Y-64130228D01*
X118259059Y-64130229D01*
X118265983Y-64133355D01*
X118273455Y-64134740D01*
X118276733Y-64135767D01*
X118291114Y-64139863D01*
X118294430Y-64140715D01*
X118301513Y-64143476D01*
X118364111Y-64151717D01*
X118370614Y-64152747D01*
X118432692Y-64164252D01*
X118440272Y-64163815D01*
X118440273Y-64163815D01*
X118494138Y-64160709D01*
X118501391Y-64160500D01*
X120198500Y-64160500D01*
X120266621Y-64180502D01*
X120313114Y-64234158D01*
X120324500Y-64286500D01*
X120324500Y-64979748D01*
X120325707Y-64985816D01*
X120329419Y-65004475D01*
X120336133Y-65038231D01*
X120380448Y-65104552D01*
X120446769Y-65148867D01*
X120458938Y-65151288D01*
X120458939Y-65151288D01*
X120499184Y-65159293D01*
X120505252Y-65160500D01*
X128544748Y-65160500D01*
X128550816Y-65159293D01*
X128591061Y-65151288D01*
X128591062Y-65151288D01*
X128603231Y-65148867D01*
X128669552Y-65104552D01*
X128713867Y-65038231D01*
X128720582Y-65004475D01*
X128724293Y-64985816D01*
X128725500Y-64979748D01*
X128725500Y-61940252D01*
X128713867Y-61881769D01*
X128669552Y-61815448D01*
X128603231Y-61771133D01*
X128591062Y-61768712D01*
X128591061Y-61768712D01*
X128550816Y-61760707D01*
X128544748Y-61759500D01*
X120505252Y-61759500D01*
X120499184Y-61760707D01*
X120458939Y-61768712D01*
X120458938Y-61768712D01*
X120446769Y-61771133D01*
X120380448Y-61815448D01*
X120336133Y-61881769D01*
X120324500Y-61940252D01*
X120324500Y-62633500D01*
X120304498Y-62701621D01*
X120250842Y-62748114D01*
X120198500Y-62759500D01*
X118819347Y-62759500D01*
X118751226Y-62739498D01*
X118730252Y-62722595D01*
X116142405Y-60134748D01*
X116108379Y-60072436D01*
X116105500Y-60045653D01*
X116105500Y-58290741D01*
X120321833Y-58290741D01*
X120323850Y-58376305D01*
X120324124Y-58387941D01*
X120324148Y-58392543D01*
X120323074Y-58474594D01*
X120324053Y-58480289D01*
X120324053Y-58480293D01*
X120325091Y-58486334D01*
X120326876Y-58504704D01*
X120327929Y-58549390D01*
X120373078Y-58804142D01*
X120456241Y-59049133D01*
X120575505Y-59278725D01*
X120728125Y-59487636D01*
X120731499Y-59491028D01*
X120731501Y-59491030D01*
X120768507Y-59528230D01*
X120910589Y-59671058D01*
X120914435Y-59673899D01*
X120914440Y-59673903D01*
X120974243Y-59718074D01*
X121118698Y-59824770D01*
X121122928Y-59826996D01*
X121122932Y-59826998D01*
X121343426Y-59943005D01*
X121347663Y-59945234D01*
X121592215Y-60029679D01*
X121846726Y-60076161D01*
X121929519Y-60080500D01*
X127090782Y-60080500D01*
X127093161Y-60080319D01*
X127093162Y-60080319D01*
X127113706Y-60078756D01*
X127270944Y-60066795D01*
X127340384Y-60081572D01*
X127369595Y-60103337D01*
X132262595Y-64996337D01*
X132296621Y-65058649D01*
X132299500Y-65085432D01*
X132299500Y-75955271D01*
X132299230Y-75963512D01*
X132294770Y-76031560D01*
X132302828Y-76099636D01*
X132305699Y-76123895D01*
X132306040Y-76127149D01*
X132314546Y-76219711D01*
X132316116Y-76225278D01*
X132316117Y-76225282D01*
X132316152Y-76225406D01*
X132320008Y-76244789D01*
X132320704Y-76250667D01*
X132336543Y-76301677D01*
X132348272Y-76339451D01*
X132349186Y-76342535D01*
X132374435Y-76432064D01*
X132376988Y-76437241D01*
X132376992Y-76437251D01*
X132377054Y-76437376D01*
X132384379Y-76455737D01*
X132386131Y-76461379D01*
X132429403Y-76543625D01*
X132430896Y-76546556D01*
X132472020Y-76629947D01*
X132475564Y-76634693D01*
X132486108Y-76651405D01*
X132488863Y-76656641D01*
X132492440Y-76661178D01*
X132546417Y-76729648D01*
X132548413Y-76732250D01*
X132604033Y-76806733D01*
X132622099Y-76823433D01*
X132667517Y-76865417D01*
X132671083Y-76868847D01*
X134585688Y-78783451D01*
X136476791Y-80674554D01*
X136510817Y-80736866D01*
X136511724Y-80785853D01*
X136459351Y-81078391D01*
X136459348Y-81078409D01*
X136458936Y-81080713D01*
X136458698Y-81083039D01*
X136458696Y-81083051D01*
X136415491Y-81504739D01*
X136408421Y-81573742D01*
X136395015Y-82069170D01*
X136395128Y-82071521D01*
X136395128Y-82071527D01*
X136418499Y-82558061D01*
X136418794Y-82564208D01*
X136419084Y-82566554D01*
X136419085Y-82566564D01*
X136464997Y-82937808D01*
X136479622Y-83056071D01*
X136577159Y-83541988D01*
X136577798Y-83544269D01*
X136663588Y-83850500D01*
X136710855Y-84019224D01*
X136711662Y-84021447D01*
X136847021Y-84394354D01*
X136879957Y-84485092D01*
X136880920Y-84487231D01*
X136880925Y-84487242D01*
X137000095Y-84751789D01*
X137083513Y-84936970D01*
X137320377Y-85372313D01*
X137589217Y-85788671D01*
X137888517Y-86183700D01*
X138096753Y-86419483D01*
X138192574Y-86527978D01*
X138216594Y-86555176D01*
X138571600Y-86901008D01*
X138951536Y-87219248D01*
X139354265Y-87508105D01*
X139777518Y-87765953D01*
X139779620Y-87767026D01*
X139779623Y-87767028D01*
X140042047Y-87901028D01*
X140218912Y-87991340D01*
X140221072Y-87992246D01*
X140221079Y-87992249D01*
X140673789Y-88182086D01*
X140675964Y-88182998D01*
X140678188Y-88183740D01*
X140678196Y-88183743D01*
X140959734Y-88277671D01*
X141146099Y-88339847D01*
X141626671Y-88461004D01*
X141628975Y-88461404D01*
X141628989Y-88461407D01*
X141675550Y-88469491D01*
X141695055Y-88472877D01*
X141758749Y-88504237D01*
X141795378Y-88565055D01*
X141799500Y-88597020D01*
X141799500Y-88850547D01*
X141779498Y-88918668D01*
X141762595Y-88939642D01*
X131601698Y-99100539D01*
X131601693Y-99100543D01*
X131539640Y-99162596D01*
X131477328Y-99196622D01*
X131450545Y-99199501D01*
X131052624Y-99199501D01*
X131049230Y-99199870D01*
X131049224Y-99199870D01*
X130999278Y-99205295D01*
X130999274Y-99205296D01*
X130991420Y-99206149D01*
X130857176Y-99256474D01*
X130849997Y-99261854D01*
X130849994Y-99261856D01*
X130767660Y-99323563D01*
X130742454Y-99342454D01*
X130737072Y-99349635D01*
X130661856Y-99449994D01*
X130661854Y-99449997D01*
X130656474Y-99457176D01*
X130606149Y-99591420D01*
X130599500Y-99652623D01*
X130599501Y-99860360D01*
X130599501Y-100050546D01*
X130579499Y-100118666D01*
X130562596Y-100139641D01*
X128182757Y-102519480D01*
X128176739Y-102525117D01*
X128125457Y-102570090D01*
X128121885Y-102574621D01*
X128067889Y-102643114D01*
X128065814Y-102645676D01*
X128006398Y-102717117D01*
X128003573Y-102722161D01*
X128003502Y-102722287D01*
X127992529Y-102738709D01*
X127992438Y-102738824D01*
X127992435Y-102738829D01*
X127988863Y-102743360D01*
X127986173Y-102748473D01*
X127945585Y-102825617D01*
X127944021Y-102828498D01*
X127898590Y-102909621D01*
X127896690Y-102915220D01*
X127888884Y-102933387D01*
X127886131Y-102938620D01*
X127884418Y-102944137D01*
X127858569Y-103027384D01*
X127857550Y-103030520D01*
X127827669Y-103118548D01*
X127826818Y-103124416D01*
X127822461Y-103143670D01*
X127822415Y-103143817D01*
X127822414Y-103143823D01*
X127820703Y-103149333D01*
X127820025Y-103155061D01*
X127820024Y-103155066D01*
X127809777Y-103241650D01*
X127809347Y-103244915D01*
X127796009Y-103336902D01*
X127796236Y-103342670D01*
X127799403Y-103423286D01*
X127799500Y-103428233D01*
X127799500Y-111368499D01*
X127779498Y-111436620D01*
X127725842Y-111483113D01*
X127715248Y-111487382D01*
X127695706Y-111494244D01*
X127695704Y-111494245D01*
X127686817Y-111497366D01*
X127577850Y-111577850D01*
X127497366Y-111686817D01*
X127494245Y-111695704D01*
X127494244Y-111695706D01*
X127478078Y-111741741D01*
X127452481Y-111814632D01*
X127449500Y-111846167D01*
X127449501Y-114153832D01*
X127452481Y-114185368D01*
X127455024Y-114192609D01*
X127455024Y-114192610D01*
X127478986Y-114260843D01*
X127497366Y-114313183D01*
X127577850Y-114422150D01*
X127686817Y-114502634D01*
X127695704Y-114505755D01*
X127695706Y-114505756D01*
X127778957Y-114534991D01*
X127814632Y-114547519D01*
X127822278Y-114548242D01*
X127822279Y-114548242D01*
X127828249Y-114548806D01*
X127846167Y-114550500D01*
X128999416Y-114550500D01*
X130153832Y-114550499D01*
X130156782Y-114550220D01*
X130156787Y-114550220D01*
X130167406Y-114549216D01*
X130185368Y-114547519D01*
X130192609Y-114544976D01*
X130192610Y-114544976D01*
X130304294Y-114505756D01*
X130304296Y-114505755D01*
X130313183Y-114502634D01*
X130422150Y-114422150D01*
X130502634Y-114313183D01*
X130521015Y-114260843D01*
X130544974Y-114192615D01*
X130547519Y-114185368D01*
X130550500Y-114153833D01*
X130550499Y-111846168D01*
X130547519Y-111814632D01*
X130521922Y-111741741D01*
X130505756Y-111695706D01*
X130505755Y-111695704D01*
X130502634Y-111686817D01*
X130422150Y-111577850D01*
X130313183Y-111497366D01*
X130304296Y-111494245D01*
X130304294Y-111494244D01*
X130284752Y-111487382D01*
X130227107Y-111445939D01*
X130201018Y-111379910D01*
X130200500Y-111368499D01*
X130200500Y-103949454D01*
X130220502Y-103881333D01*
X130237405Y-103860359D01*
X131028594Y-103069170D01*
X136395015Y-103069170D01*
X136395128Y-103071521D01*
X136395128Y-103071527D01*
X136415712Y-103500044D01*
X136418794Y-103564208D01*
X136419084Y-103566554D01*
X136419085Y-103566564D01*
X136475163Y-104020012D01*
X136479622Y-104056071D01*
X136577159Y-104541988D01*
X136577798Y-104544269D01*
X136698393Y-104974739D01*
X136710855Y-105019224D01*
X136711662Y-105021447D01*
X136867474Y-105450701D01*
X136879957Y-105485092D01*
X136880920Y-105487231D01*
X136880925Y-105487242D01*
X137000095Y-105751789D01*
X137083513Y-105936970D01*
X137320377Y-106372313D01*
X137359073Y-106432242D01*
X137587713Y-106786341D01*
X137589217Y-106788671D01*
X137888517Y-107183700D01*
X138216594Y-107555176D01*
X138571600Y-107901008D01*
X138573421Y-107902533D01*
X138573424Y-107902536D01*
X138636913Y-107955715D01*
X138951536Y-108219248D01*
X139354265Y-108508105D01*
X139777518Y-108765953D01*
X139779620Y-108767026D01*
X139779623Y-108767028D01*
X140042047Y-108901028D01*
X140218912Y-108991340D01*
X140221072Y-108992246D01*
X140221079Y-108992249D01*
X140586742Y-109145584D01*
X140675964Y-109182998D01*
X140678188Y-109183740D01*
X140678196Y-109183743D01*
X140959734Y-109277671D01*
X141146099Y-109339847D01*
X141626671Y-109461004D01*
X141628979Y-109461405D01*
X141628985Y-109461406D01*
X141896034Y-109507773D01*
X142114975Y-109545788D01*
X142117322Y-109546016D01*
X142117329Y-109546017D01*
X142605900Y-109593491D01*
X142605911Y-109593492D01*
X142608261Y-109593720D01*
X142610619Y-109593771D01*
X142610628Y-109593772D01*
X142901278Y-109600114D01*
X143103752Y-109604532D01*
X143335954Y-109592160D01*
X143596316Y-109578287D01*
X143596319Y-109578287D01*
X143598660Y-109578162D01*
X143862783Y-109544093D01*
X144087851Y-109515062D01*
X144087861Y-109515060D01*
X144090197Y-109514759D01*
X144575596Y-109414679D01*
X144577860Y-109414032D01*
X144577868Y-109414030D01*
X145049860Y-109279134D01*
X145049869Y-109279131D01*
X145052126Y-109278486D01*
X145054329Y-109277673D01*
X145054336Y-109277671D01*
X145514872Y-109107770D01*
X145514879Y-109107767D01*
X145517102Y-109106947D01*
X145967908Y-108901028D01*
X145969965Y-108899895D01*
X146399947Y-108663021D01*
X146399952Y-108663018D01*
X146402005Y-108661887D01*
X146403955Y-108660614D01*
X146403969Y-108660605D01*
X146814967Y-108392167D01*
X146816950Y-108390872D01*
X146818837Y-108389427D01*
X147208517Y-108090955D01*
X147208523Y-108090950D01*
X147210407Y-108089507D01*
X147580160Y-107759490D01*
X147581802Y-107757787D01*
X147922480Y-107404388D01*
X147922486Y-107404382D01*
X147924128Y-107402678D01*
X148233824Y-107028984D01*
X148238877Y-107022887D01*
X148238884Y-107022878D01*
X148240374Y-107021080D01*
X148403902Y-106790548D01*
X148525760Y-106618761D01*
X148525761Y-106618759D01*
X148527119Y-106616845D01*
X148782747Y-106192248D01*
X148786936Y-106183939D01*
X148925303Y-105909421D01*
X149005820Y-105749679D01*
X149195082Y-105291630D01*
X149349467Y-104820680D01*
X149468106Y-104339480D01*
X149550332Y-103850740D01*
X149557704Y-103770517D01*
X149589155Y-103428233D01*
X149595681Y-103357209D01*
X149605347Y-103000000D01*
X149605263Y-102997745D01*
X149586843Y-102507107D01*
X149586843Y-102507104D01*
X149586754Y-102504739D01*
X149531079Y-102012267D01*
X149438636Y-101525356D01*
X149309945Y-101046746D01*
X149145731Y-100579132D01*
X148946918Y-100125148D01*
X148714625Y-99687348D01*
X148450161Y-99268197D01*
X148448766Y-99266316D01*
X148448757Y-99266302D01*
X148156424Y-98871957D01*
X148155014Y-98870055D01*
X147876366Y-98547807D01*
X147832397Y-98496958D01*
X147832387Y-98496947D01*
X147830845Y-98495164D01*
X147479480Y-98145634D01*
X147102897Y-97823433D01*
X147081000Y-97807377D01*
X146705137Y-97531783D01*
X146705132Y-97531780D01*
X146703215Y-97530374D01*
X146445692Y-97369768D01*
X146284698Y-97269363D01*
X146284690Y-97269358D01*
X146282685Y-97268108D01*
X145843675Y-97038111D01*
X145563540Y-96917176D01*
X145390818Y-96842611D01*
X145390810Y-96842608D01*
X145388656Y-96841678D01*
X145066034Y-96730275D01*
X144922423Y-96680685D01*
X144922413Y-96680682D01*
X144920189Y-96679914D01*
X144917917Y-96679316D01*
X144917911Y-96679314D01*
X144443199Y-96554333D01*
X144443196Y-96554332D01*
X144440912Y-96553731D01*
X144406272Y-96547342D01*
X144204716Y-96510168D01*
X143953523Y-96463839D01*
X143951198Y-96463589D01*
X143951188Y-96463587D01*
X143463127Y-96410997D01*
X143463116Y-96410996D01*
X143460766Y-96410743D01*
X143458389Y-96410666D01*
X143458386Y-96410666D01*
X142967775Y-96394820D01*
X142967769Y-96394820D01*
X142965415Y-96394744D01*
X142470258Y-96415930D01*
X142241483Y-96443007D01*
X141980421Y-96473905D01*
X141980411Y-96473907D01*
X141978084Y-96474182D01*
X141975771Y-96474634D01*
X141975769Y-96474634D01*
X141493977Y-96568722D01*
X141493974Y-96568723D01*
X141491663Y-96569174D01*
X141013734Y-96700369D01*
X141011512Y-96701163D01*
X141011507Y-96701164D01*
X140549227Y-96866229D01*
X140546987Y-96867029D01*
X140474042Y-96899430D01*
X140096230Y-97067247D01*
X140096225Y-97067250D01*
X140094049Y-97068216D01*
X140091957Y-97069340D01*
X140091949Y-97069344D01*
X139659556Y-97301677D01*
X139659542Y-97301685D01*
X139657471Y-97302798D01*
X139239711Y-97569453D01*
X138843120Y-97866681D01*
X138469932Y-98192808D01*
X138468282Y-98194484D01*
X138468280Y-98194486D01*
X138123911Y-98544307D01*
X138123903Y-98544316D01*
X138122246Y-98545999D01*
X137802021Y-98924264D01*
X137511059Y-99325474D01*
X137509824Y-99327477D01*
X137509819Y-99327485D01*
X137252243Y-99745353D01*
X137252237Y-99745363D01*
X137250999Y-99747372D01*
X137249916Y-99749467D01*
X137249908Y-99749480D01*
X137192556Y-99860360D01*
X137023303Y-100187580D01*
X137022376Y-100189759D01*
X137022373Y-100189765D01*
X136856696Y-100579132D01*
X136829255Y-100643622D01*
X136828497Y-100645855D01*
X136742410Y-100899461D01*
X136669947Y-101112929D01*
X136546275Y-101592860D01*
X136458936Y-102080713D01*
X136458696Y-102083060D01*
X136415733Y-102502381D01*
X136408421Y-102573742D01*
X136408358Y-102576076D01*
X136408357Y-102576089D01*
X136403957Y-102738709D01*
X136395015Y-103069170D01*
X131028594Y-103069170D01*
X133198297Y-100899466D01*
X133198304Y-100899460D01*
X133260360Y-100837404D01*
X133322672Y-100803378D01*
X133349455Y-100800499D01*
X133747376Y-100800499D01*
X133750770Y-100800130D01*
X133750776Y-100800130D01*
X133800722Y-100794705D01*
X133800726Y-100794704D01*
X133808580Y-100793851D01*
X133942824Y-100743526D01*
X133950003Y-100738146D01*
X133950006Y-100738144D01*
X134050365Y-100662928D01*
X134057546Y-100657546D01*
X134084271Y-100621887D01*
X134138144Y-100550006D01*
X134138146Y-100550003D01*
X134143526Y-100542824D01*
X134193851Y-100408580D01*
X134200500Y-100347377D01*
X134200499Y-99949455D01*
X134220501Y-99881335D01*
X134237404Y-99860360D01*
X143817251Y-90280513D01*
X143823269Y-90274876D01*
X143870196Y-90233722D01*
X143874543Y-90229910D01*
X143932100Y-90156899D01*
X143934138Y-90154381D01*
X143993602Y-90082883D01*
X143996498Y-90077713D01*
X144007471Y-90061291D01*
X144007562Y-90061176D01*
X144007565Y-90061171D01*
X144011137Y-90056640D01*
X144054415Y-89974383D01*
X144055989Y-89971483D01*
X144098585Y-89895423D01*
X144101410Y-89890379D01*
X144103266Y-89884912D01*
X144103270Y-89884903D01*
X144103315Y-89884769D01*
X144111116Y-89866613D01*
X144111180Y-89866491D01*
X144113869Y-89861380D01*
X144141429Y-89772625D01*
X144142448Y-89769489D01*
X144170475Y-89686923D01*
X144170475Y-89686922D01*
X144172332Y-89681452D01*
X144173182Y-89675590D01*
X144177544Y-89656313D01*
X144179297Y-89650667D01*
X144190222Y-89558360D01*
X144190653Y-89555089D01*
X144194144Y-89531013D01*
X144203991Y-89463098D01*
X144200597Y-89376714D01*
X144200500Y-89371767D01*
X144200500Y-88594688D01*
X144220502Y-88526567D01*
X144274158Y-88480074D01*
X144301055Y-88471284D01*
X144575596Y-88414679D01*
X144577860Y-88414032D01*
X144577868Y-88414030D01*
X145049860Y-88279134D01*
X145049869Y-88279131D01*
X145052126Y-88278486D01*
X145054329Y-88277673D01*
X145054336Y-88277671D01*
X145514872Y-88107770D01*
X145514879Y-88107767D01*
X145517102Y-88106947D01*
X145967908Y-87901028D01*
X145969965Y-87899895D01*
X146399947Y-87663021D01*
X146399952Y-87663018D01*
X146402005Y-87661887D01*
X146403955Y-87660614D01*
X146403969Y-87660605D01*
X146814967Y-87392167D01*
X146816950Y-87390872D01*
X147039227Y-87220621D01*
X147208517Y-87090955D01*
X147208523Y-87090950D01*
X147210407Y-87089507D01*
X147580160Y-86759490D01*
X147661101Y-86675527D01*
X147922480Y-86404388D01*
X147922486Y-86404382D01*
X147924128Y-86402678D01*
X148148040Y-86132495D01*
X148238877Y-86022887D01*
X148238884Y-86022878D01*
X148240374Y-86021080D01*
X148527119Y-85616845D01*
X148782747Y-85192248D01*
X149005820Y-84749679D01*
X149195082Y-84291630D01*
X149349467Y-83820680D01*
X149468106Y-83339480D01*
X149550332Y-82850740D01*
X149556358Y-82785168D01*
X149595493Y-82359253D01*
X149595681Y-82357209D01*
X149605347Y-82000000D01*
X149589345Y-81573742D01*
X149586843Y-81507107D01*
X149586843Y-81507104D01*
X149586754Y-81504739D01*
X149531079Y-81012267D01*
X149438636Y-80525356D01*
X149309945Y-80046746D01*
X149145731Y-79579132D01*
X148946918Y-79125148D01*
X148800046Y-78848340D01*
X148715730Y-78689430D01*
X148715726Y-78689424D01*
X148714625Y-78687348D01*
X148705225Y-78672449D01*
X148477352Y-78311293D01*
X148450161Y-78268197D01*
X148448766Y-78266316D01*
X148448757Y-78266302D01*
X148156424Y-77871957D01*
X148155014Y-77870055D01*
X147876366Y-77547807D01*
X147832397Y-77496958D01*
X147832387Y-77496947D01*
X147830845Y-77495164D01*
X147479480Y-77145634D01*
X147102897Y-76823433D01*
X147080122Y-76806733D01*
X146705137Y-76531783D01*
X146705132Y-76531780D01*
X146703215Y-76530374D01*
X146600782Y-76466491D01*
X146284698Y-76269363D01*
X146284690Y-76269358D01*
X146282685Y-76268108D01*
X145843675Y-76038111D01*
X145449617Y-75867995D01*
X145390818Y-75842611D01*
X145390810Y-75842608D01*
X145388656Y-75841678D01*
X145154423Y-75760796D01*
X144922423Y-75680685D01*
X144922413Y-75680682D01*
X144920189Y-75679914D01*
X144917917Y-75679316D01*
X144917911Y-75679314D01*
X144443199Y-75554333D01*
X144443196Y-75554332D01*
X144440912Y-75553731D01*
X143953523Y-75463839D01*
X143951198Y-75463589D01*
X143951188Y-75463587D01*
X143463127Y-75410997D01*
X143463116Y-75410996D01*
X143460766Y-75410743D01*
X143458389Y-75410666D01*
X143458386Y-75410666D01*
X142967775Y-75394820D01*
X142967769Y-75394820D01*
X142965415Y-75394744D01*
X142470258Y-75415930D01*
X142241483Y-75443007D01*
X141980421Y-75473905D01*
X141980411Y-75473907D01*
X141978084Y-75474182D01*
X141975771Y-75474634D01*
X141975769Y-75474634D01*
X141493977Y-75568722D01*
X141493974Y-75568723D01*
X141491663Y-75569174D01*
X141013734Y-75700369D01*
X141011512Y-75701163D01*
X141011507Y-75701164D01*
X140549227Y-75866229D01*
X140546987Y-75867029D01*
X140329772Y-75963512D01*
X140096230Y-76067247D01*
X140096225Y-76067250D01*
X140094049Y-76068216D01*
X140091957Y-76069340D01*
X140091949Y-76069344D01*
X139659556Y-76301677D01*
X139659542Y-76301685D01*
X139657471Y-76302798D01*
X139655476Y-76304072D01*
X139655475Y-76304072D01*
X139507477Y-76398539D01*
X139239711Y-76569453D01*
X139237812Y-76570876D01*
X139237808Y-76570879D01*
X139130193Y-76651532D01*
X138843120Y-76866681D01*
X138469932Y-77192808D01*
X138468282Y-77194484D01*
X138468280Y-77194486D01*
X138123911Y-77544307D01*
X138123903Y-77544316D01*
X138122246Y-77545999D01*
X138120721Y-77547801D01*
X138120715Y-77547807D01*
X137849435Y-77868256D01*
X137802021Y-77924264D01*
X137740455Y-78009158D01*
X137602864Y-78198882D01*
X137546679Y-78242285D01*
X137475948Y-78248422D01*
X137411768Y-78214005D01*
X134737405Y-75539642D01*
X134703379Y-75477330D01*
X134700500Y-75450547D01*
X134700500Y-64580718D01*
X134700770Y-64572477D01*
X134704853Y-64510184D01*
X134705231Y-64504418D01*
X134694297Y-64412038D01*
X134693953Y-64408758D01*
X134685983Y-64322021D01*
X134685982Y-64322018D01*
X134685454Y-64316267D01*
X134683849Y-64310575D01*
X134679994Y-64291196D01*
X134679977Y-64291052D01*
X134679976Y-64291046D01*
X134679297Y-64285311D01*
X134651729Y-64196527D01*
X134650792Y-64193364D01*
X134627131Y-64109466D01*
X134627130Y-64109464D01*
X134625565Y-64103914D01*
X134623015Y-64098743D01*
X134623010Y-64098730D01*
X134622945Y-64098599D01*
X134615627Y-64080256D01*
X134615585Y-64080120D01*
X134615582Y-64080114D01*
X134613870Y-64074599D01*
X134570582Y-63992321D01*
X134569089Y-63989391D01*
X134566626Y-63984396D01*
X134527980Y-63906031D01*
X134524438Y-63901288D01*
X134513895Y-63884578D01*
X134511138Y-63879338D01*
X134453576Y-63806322D01*
X134451580Y-63803720D01*
X134399420Y-63733869D01*
X134399420Y-63733868D01*
X134395967Y-63729245D01*
X134332468Y-63670548D01*
X134328903Y-63667118D01*
X128717741Y-58055956D01*
X128682769Y-57988849D01*
X128677756Y-57960562D01*
X128677755Y-57960558D01*
X128676922Y-57955858D01*
X128672474Y-57942753D01*
X128617619Y-57781157D01*
X128593759Y-57710867D01*
X128474495Y-57481275D01*
X128321875Y-57272364D01*
X128275899Y-57226146D01*
X128142786Y-57092335D01*
X128139411Y-57088942D01*
X128135565Y-57086101D01*
X128135560Y-57086097D01*
X127935154Y-56938075D01*
X127935153Y-56938074D01*
X127931302Y-56935230D01*
X127927072Y-56933004D01*
X127927068Y-56933002D01*
X127706574Y-56816995D01*
X127706572Y-56816994D01*
X127702337Y-56814766D01*
X127457785Y-56730321D01*
X127203274Y-56683839D01*
X127120481Y-56679500D01*
X121959218Y-56679500D01*
X121956839Y-56679681D01*
X121956838Y-56679681D01*
X121771791Y-56693757D01*
X121771786Y-56693758D01*
X121767024Y-56694120D01*
X121762370Y-56695199D01*
X121762368Y-56695199D01*
X121614551Y-56729461D01*
X121514985Y-56752539D01*
X121274682Y-56848410D01*
X121051646Y-56979527D01*
X121047935Y-56982548D01*
X121047931Y-56982551D01*
X120913083Y-57092335D01*
X120851009Y-57142871D01*
X120677387Y-57334685D01*
X120534778Y-57550553D01*
X120532777Y-57554893D01*
X120532775Y-57554897D01*
X120522175Y-57577891D01*
X120426462Y-57785509D01*
X120354932Y-58034145D01*
X120354320Y-58038886D01*
X120354320Y-58038888D01*
X120328255Y-58240955D01*
X120327158Y-58247651D01*
X120327089Y-58248312D01*
X120325962Y-58253976D01*
X120325921Y-58257109D01*
X120325076Y-58259164D01*
X120325893Y-58259269D01*
X120321833Y-58290741D01*
X116105500Y-58290741D01*
X116105500Y-53868252D01*
X116093867Y-53809769D01*
X116049552Y-53743448D01*
X115983231Y-53699133D01*
X115971062Y-53696712D01*
X115971061Y-53696712D01*
X115930816Y-53688707D01*
X115924748Y-53687500D01*
X111885252Y-53687500D01*
X111879184Y-53688707D01*
X111838939Y-53696712D01*
X111838938Y-53696712D01*
X111826769Y-53699133D01*
X111760448Y-53743448D01*
X111716133Y-53809769D01*
X111704500Y-53868252D01*
X111704500Y-61907748D01*
X109514923Y-61907748D01*
X109558563Y-61871453D01*
X109673086Y-61776204D01*
X109677518Y-61772518D01*
X109818602Y-61602884D01*
X109926410Y-61410379D01*
X109928266Y-61404912D01*
X109928268Y-61404907D01*
X109995475Y-61206921D01*
X109995476Y-61206916D01*
X109997331Y-61201452D01*
X109998159Y-61195743D01*
X109998160Y-61195738D01*
X110028458Y-60986772D01*
X110028991Y-60983098D01*
X110030643Y-60920000D01*
X110010454Y-60700289D01*
X109950565Y-60487936D01*
X109852980Y-60290053D01*
X109720967Y-60113267D01*
X109558949Y-59963499D01*
X109372350Y-59845764D01*
X109169955Y-59765017D01*
X109114096Y-59721196D01*
X109090795Y-59654132D01*
X109107451Y-59585117D01*
X109158775Y-59536063D01*
X109176144Y-59528674D01*
X109309907Y-59483268D01*
X109309912Y-59483266D01*
X109315379Y-59481410D01*
X109507884Y-59373602D01*
X109621961Y-59278725D01*
X109673086Y-59236204D01*
X109677518Y-59232518D01*
X109818602Y-59062884D01*
X109926410Y-58870379D01*
X109928266Y-58864912D01*
X109928268Y-58864907D01*
X109995475Y-58666921D01*
X109995476Y-58666916D01*
X109997331Y-58661452D01*
X109998159Y-58655743D01*
X109998160Y-58655738D01*
X110017346Y-58523413D01*
X110028991Y-58443098D01*
X110030643Y-58380000D01*
X110010454Y-58160289D01*
X109950565Y-57947936D01*
X109852980Y-57750053D01*
X109820552Y-57706626D01*
X109724420Y-57577891D01*
X109724420Y-57577890D01*
X109720967Y-57573267D01*
X109558949Y-57423499D01*
X109372350Y-57305764D01*
X109167421Y-57224006D01*
X109161761Y-57222880D01*
X109161757Y-57222879D01*
X108956691Y-57182089D01*
X108956688Y-57182089D01*
X108951024Y-57180962D01*
X108945249Y-57180886D01*
X108945245Y-57180886D01*
X108834504Y-57179437D01*
X108730406Y-57178074D01*
X108724709Y-57179053D01*
X108724708Y-57179053D01*
X108518654Y-57214459D01*
X108518653Y-57214459D01*
X108512957Y-57215438D01*
X108305957Y-57291804D01*
X108198323Y-57355840D01*
X108190423Y-57360540D01*
X108121653Y-57378180D01*
X108054263Y-57355840D01*
X108009649Y-57300612D01*
X108000000Y-57252255D01*
X108000000Y-50126500D01*
X108020002Y-50058379D01*
X108073658Y-50011886D01*
X108126000Y-50000500D01*
X135874000Y-50000500D01*
X135942121Y-50020502D01*
G37*
%TD.AperFunction*%
%TA.AperFunction,Conductor*%
%TO.N,HVGND*%
G36*
X105942121Y-50020502D02*
G01*
X105988614Y-50074158D01*
X106000000Y-50126500D01*
X106000000Y-75705154D01*
X105979998Y-75773275D01*
X105926342Y-75819768D01*
X105856068Y-75829872D01*
X105791488Y-75800378D01*
X105784905Y-75794249D01*
X104463175Y-74472518D01*
X101598948Y-71608291D01*
X101564922Y-71545979D01*
X101571012Y-71472508D01*
X101588854Y-71427784D01*
X101590994Y-71422421D01*
X101603122Y-71361452D01*
X101632911Y-71211691D01*
X101632911Y-71211688D01*
X101634038Y-71206024D01*
X101634450Y-71174594D01*
X101636850Y-70991188D01*
X101636926Y-70985406D01*
X101635947Y-70979708D01*
X101600541Y-70773654D01*
X101600541Y-70773653D01*
X101599562Y-70767957D01*
X101523196Y-70560957D01*
X101410386Y-70371341D01*
X101264910Y-70205457D01*
X101091640Y-70068863D01*
X100896380Y-69966131D01*
X100781408Y-69930431D01*
X100722284Y-69891129D01*
X100693793Y-69826100D01*
X100704983Y-69755990D01*
X100752300Y-69703060D01*
X100784572Y-69688830D01*
X100816754Y-69679754D01*
X100867064Y-69665565D01*
X101064947Y-69567980D01*
X101241733Y-69435967D01*
X101391501Y-69273949D01*
X101509236Y-69087350D01*
X101590994Y-68882421D01*
X101634038Y-68666024D01*
X101634450Y-68634594D01*
X101636850Y-68451188D01*
X101636926Y-68445406D01*
X101635947Y-68439708D01*
X101600541Y-68233654D01*
X101600541Y-68233653D01*
X101599562Y-68227957D01*
X101523196Y-68020957D01*
X101410386Y-67831341D01*
X101264910Y-67665457D01*
X101091640Y-67528863D01*
X100896380Y-67426131D01*
X100781408Y-67390431D01*
X100722284Y-67351129D01*
X100693793Y-67286100D01*
X100704983Y-67215990D01*
X100752300Y-67163060D01*
X100784572Y-67148830D01*
X100816754Y-67139754D01*
X100867064Y-67125565D01*
X101064947Y-67027980D01*
X101241733Y-66895967D01*
X101391501Y-66733949D01*
X101509236Y-66547350D01*
X101590994Y-66342421D01*
X101634038Y-66126024D01*
X101634450Y-66094594D01*
X101636850Y-65911188D01*
X101636926Y-65905406D01*
X101635947Y-65899708D01*
X101600541Y-65693654D01*
X101600541Y-65693653D01*
X101599562Y-65687957D01*
X101523196Y-65480957D01*
X101410386Y-65291341D01*
X101264910Y-65125457D01*
X101091640Y-64988863D01*
X100896380Y-64886131D01*
X100781408Y-64850431D01*
X100722284Y-64811129D01*
X100693793Y-64746100D01*
X100704983Y-64675990D01*
X100752300Y-64623060D01*
X100784572Y-64608830D01*
X100816754Y-64599754D01*
X100867064Y-64585565D01*
X101064947Y-64487980D01*
X101087503Y-64471137D01*
X101237109Y-64359420D01*
X101237110Y-64359420D01*
X101241733Y-64355967D01*
X101331751Y-64258586D01*
X101387582Y-64198189D01*
X101387584Y-64198186D01*
X101391501Y-64193949D01*
X101509236Y-64007350D01*
X101590994Y-63802421D01*
X101634038Y-63586024D01*
X101636926Y-63365406D01*
X101599562Y-63147957D01*
X101523196Y-62940957D01*
X101410386Y-62751341D01*
X101264910Y-62585457D01*
X101118274Y-62469859D01*
X101077161Y-62411981D01*
X101073867Y-62341061D01*
X101109438Y-62279618D01*
X101137900Y-62259252D01*
X101140201Y-62258049D01*
X101336987Y-62134126D01*
X101345060Y-62128086D01*
X101519500Y-61974297D01*
X101526504Y-61967044D01*
X101674110Y-61787346D01*
X101679866Y-61779064D01*
X101796841Y-61578081D01*
X101801203Y-61568976D01*
X101884537Y-61351885D01*
X101887388Y-61342196D01*
X101918821Y-61191736D01*
X101917698Y-61177675D01*
X101907590Y-61174000D01*
X95964410Y-61174000D01*
X95950324Y-61178136D01*
X95948275Y-61191114D01*
X95950325Y-61208830D01*
X95952285Y-61218727D01*
X96015604Y-61442494D01*
X96019116Y-61451938D01*
X96117399Y-61662705D01*
X96122378Y-61671471D01*
X96253087Y-61863802D01*
X96259419Y-61871677D01*
X96419186Y-62040626D01*
X96426695Y-62047387D01*
X96611426Y-62188625D01*
X96619901Y-62194086D01*
X96738659Y-62257764D01*
X96789242Y-62307582D01*
X96804861Y-62376840D01*
X96780557Y-62443547D01*
X96754508Y-62469764D01*
X96628267Y-62564033D01*
X96608463Y-62585457D01*
X96484990Y-62719029D01*
X96424061Y-62755474D01*
X96392465Y-62759500D01*
X94802347Y-62759500D01*
X94734226Y-62739498D01*
X94713251Y-62722595D01*
X94572534Y-62581877D01*
X94403576Y-62412919D01*
X94397723Y-62406653D01*
X94365165Y-62369331D01*
X94360169Y-62363604D01*
X94308527Y-62327310D01*
X94303242Y-62323384D01*
X94259524Y-62289105D01*
X94259520Y-62289103D01*
X94253543Y-62284416D01*
X94246620Y-62281290D01*
X94243672Y-62279505D01*
X94230712Y-62272113D01*
X94227666Y-62270480D01*
X94221453Y-62266113D01*
X94162633Y-62243180D01*
X94156554Y-62240624D01*
X94099016Y-62214645D01*
X94091545Y-62213260D01*
X94088277Y-62212236D01*
X94073836Y-62208123D01*
X94070563Y-62207283D01*
X94063487Y-62204524D01*
X94018817Y-62198644D01*
X94000894Y-62196284D01*
X93994377Y-62195252D01*
X93939775Y-62185132D01*
X93932308Y-62183748D01*
X93924728Y-62184185D01*
X93924727Y-62184185D01*
X93870856Y-62187291D01*
X93863604Y-62187500D01*
X91081500Y-62187500D01*
X91013379Y-62167498D01*
X90966886Y-62113842D01*
X90955500Y-62061500D01*
X90955500Y-62018252D01*
X90943867Y-61959769D01*
X90899552Y-61893448D01*
X90833231Y-61849133D01*
X90821062Y-61846712D01*
X90821061Y-61846712D01*
X90780816Y-61838707D01*
X90774748Y-61837500D01*
X89035252Y-61837500D01*
X89029184Y-61838707D01*
X88988939Y-61846712D01*
X88988938Y-61846712D01*
X88976769Y-61849133D01*
X88910448Y-61893448D01*
X88866133Y-61959769D01*
X88854500Y-62018252D01*
X88854500Y-63757748D01*
X88866133Y-63816231D01*
X88910448Y-63882552D01*
X88976769Y-63926867D01*
X88988938Y-63929288D01*
X88988939Y-63929288D01*
X89029184Y-63937293D01*
X89035252Y-63938500D01*
X90774748Y-63938500D01*
X90780816Y-63937293D01*
X90821061Y-63929288D01*
X90821062Y-63929288D01*
X90833231Y-63926867D01*
X90899552Y-63882552D01*
X90943867Y-63816231D01*
X90955500Y-63757748D01*
X90955500Y-63714500D01*
X90975502Y-63646379D01*
X91029158Y-63599886D01*
X91081500Y-63588500D01*
X93545653Y-63588500D01*
X93613774Y-63608502D01*
X93634748Y-63625405D01*
X93944424Y-63935081D01*
X93950277Y-63941347D01*
X93987831Y-63984396D01*
X94039490Y-64020702D01*
X94044774Y-64024627D01*
X94094457Y-64063583D01*
X94101384Y-64066711D01*
X94104315Y-64068486D01*
X94117318Y-64075903D01*
X94120332Y-64077519D01*
X94126547Y-64081887D01*
X94133623Y-64084646D01*
X94133627Y-64084648D01*
X94185364Y-64104819D01*
X94191445Y-64107375D01*
X94248984Y-64133355D01*
X94256450Y-64134739D01*
X94259699Y-64135757D01*
X94274164Y-64139877D01*
X94277437Y-64140717D01*
X94284513Y-64143476D01*
X94329183Y-64149356D01*
X94347106Y-64151716D01*
X94353623Y-64152748D01*
X94363033Y-64154492D01*
X94415692Y-64164252D01*
X94423272Y-64163815D01*
X94423273Y-64163815D01*
X94477144Y-64160709D01*
X94484396Y-64160500D01*
X96395369Y-64160500D01*
X96463490Y-64180502D01*
X96490098Y-64203419D01*
X96605090Y-64334543D01*
X96778360Y-64471137D01*
X96973620Y-64573869D01*
X97088592Y-64609569D01*
X97147716Y-64648871D01*
X97176207Y-64713900D01*
X97165017Y-64784010D01*
X97117700Y-64836940D01*
X97085427Y-64851170D01*
X97002936Y-64874435D01*
X96805053Y-64972020D01*
X96800427Y-64975474D01*
X96800426Y-64975475D01*
X96777709Y-64992439D01*
X96628267Y-65104033D01*
X96478499Y-65266051D01*
X96360764Y-65452650D01*
X96279006Y-65657579D01*
X96235962Y-65873976D01*
X96235886Y-65879751D01*
X96235886Y-65879755D01*
X96235475Y-65911188D01*
X96233074Y-66094594D01*
X96259152Y-66246361D01*
X96250975Y-66316883D01*
X96224067Y-66356792D01*
X89325405Y-73255454D01*
X89319140Y-73261307D01*
X89276084Y-73298867D01*
X89239797Y-73350499D01*
X89235864Y-73355794D01*
X89201585Y-73399512D01*
X89201583Y-73399516D01*
X89196896Y-73405493D01*
X89193770Y-73412416D01*
X89191985Y-73415364D01*
X89184593Y-73428324D01*
X89182960Y-73431370D01*
X89178593Y-73437583D01*
X89175834Y-73444660D01*
X89155660Y-73496402D01*
X89153105Y-73502481D01*
X89127125Y-73560020D01*
X89125740Y-73567491D01*
X89124716Y-73570759D01*
X89120603Y-73585200D01*
X89119763Y-73588473D01*
X89117004Y-73595549D01*
X89116013Y-73603079D01*
X89108764Y-73658142D01*
X89107732Y-73664659D01*
X89100057Y-73706071D01*
X89096228Y-73726728D01*
X89096665Y-73734308D01*
X89096665Y-73734309D01*
X89099771Y-73788180D01*
X89099980Y-73795432D01*
X89099980Y-96631839D01*
X89099688Y-96640409D01*
X89098669Y-96655362D01*
X89095802Y-96697410D01*
X89097107Y-96704886D01*
X89097107Y-96704889D01*
X89106658Y-96759612D01*
X89107621Y-96766138D01*
X89115204Y-96828800D01*
X89117889Y-96835907D01*
X89118698Y-96839200D01*
X89122657Y-96853671D01*
X89123646Y-96856947D01*
X89124953Y-96864434D01*
X89128008Y-96871393D01*
X89128008Y-96871394D01*
X89150327Y-96922240D01*
X89152819Y-96928346D01*
X89175135Y-96987403D01*
X89179434Y-96993658D01*
X89181015Y-96996683D01*
X89188305Y-97009779D01*
X89190046Y-97012723D01*
X89193101Y-97019682D01*
X89197726Y-97025710D01*
X89197727Y-97025711D01*
X89231522Y-97069753D01*
X89235399Y-97075089D01*
X89266861Y-97120866D01*
X89266866Y-97120872D01*
X89271168Y-97127131D01*
X89276842Y-97132186D01*
X89317137Y-97168088D01*
X89322413Y-97173069D01*
X93262595Y-101113252D01*
X93296621Y-101175564D01*
X93299500Y-101202347D01*
X93299500Y-103679748D01*
X93311133Y-103738231D01*
X93355448Y-103804552D01*
X93421769Y-103848867D01*
X93433938Y-103851288D01*
X93433939Y-103851288D01*
X93474184Y-103859293D01*
X93480252Y-103860500D01*
X103519748Y-103860500D01*
X103525816Y-103859293D01*
X103566061Y-103851288D01*
X103566062Y-103851288D01*
X103578231Y-103848867D01*
X103644552Y-103804552D01*
X103688867Y-103738231D01*
X103700500Y-103679748D01*
X103700500Y-100640252D01*
X103688867Y-100581769D01*
X103644552Y-100515448D01*
X103578231Y-100471133D01*
X103566062Y-100468712D01*
X103566061Y-100468712D01*
X103525816Y-100460707D01*
X103519748Y-100459500D01*
X94642346Y-100459500D01*
X94574225Y-100439498D01*
X94553251Y-100422595D01*
X90537885Y-96407228D01*
X90503859Y-96344916D01*
X90500980Y-96318133D01*
X90500980Y-95795826D01*
X90520982Y-95727705D01*
X90574638Y-95681212D01*
X90644912Y-95671108D01*
X90709492Y-95700602D01*
X90716074Y-95706730D01*
X91641182Y-96631839D01*
X92564417Y-97555074D01*
X92570270Y-97561339D01*
X92607831Y-97604396D01*
X92659490Y-97640702D01*
X92664774Y-97644627D01*
X92714457Y-97683583D01*
X92721384Y-97686711D01*
X92724315Y-97688486D01*
X92737318Y-97695903D01*
X92740332Y-97697519D01*
X92746547Y-97701887D01*
X92753623Y-97704646D01*
X92753627Y-97704648D01*
X92805364Y-97724819D01*
X92811445Y-97727375D01*
X92868984Y-97753355D01*
X92876450Y-97754739D01*
X92879699Y-97755757D01*
X92894164Y-97759877D01*
X92897437Y-97760717D01*
X92904513Y-97763476D01*
X92949183Y-97769356D01*
X92967106Y-97771716D01*
X92973623Y-97772748D01*
X93015035Y-97780423D01*
X93035692Y-97784252D01*
X93043272Y-97783815D01*
X93043273Y-97783815D01*
X93097144Y-97780709D01*
X93104396Y-97780500D01*
X93173500Y-97780500D01*
X93241621Y-97800502D01*
X93288114Y-97854158D01*
X93299500Y-97906500D01*
X93299500Y-98599748D01*
X93311133Y-98658231D01*
X93355448Y-98724552D01*
X93421769Y-98768867D01*
X93433938Y-98771288D01*
X93433939Y-98771288D01*
X93474184Y-98779293D01*
X93480252Y-98780500D01*
X103519748Y-98780500D01*
X103525816Y-98779293D01*
X103566061Y-98771288D01*
X103566062Y-98771288D01*
X103578231Y-98768867D01*
X103644552Y-98724552D01*
X103688867Y-98658231D01*
X103700500Y-98599748D01*
X103700500Y-95560252D01*
X103688867Y-95501769D01*
X103644552Y-95435448D01*
X103578231Y-95391133D01*
X103566062Y-95388712D01*
X103566061Y-95388712D01*
X103525816Y-95380707D01*
X103519748Y-95379500D01*
X93480252Y-95379500D01*
X93474184Y-95380707D01*
X93433939Y-95388712D01*
X93433938Y-95388712D01*
X93421769Y-95391133D01*
X93355448Y-95435448D01*
X93311133Y-95501769D01*
X93299500Y-95560252D01*
X93299500Y-96004653D01*
X93279498Y-96072774D01*
X93225842Y-96119267D01*
X93155568Y-96129371D01*
X93090988Y-96099877D01*
X93084405Y-96093748D01*
X91856042Y-94865385D01*
X108017000Y-94865385D01*
X108021475Y-94880624D01*
X108022865Y-94881829D01*
X108030548Y-94883500D01*
X108727885Y-94883500D01*
X108743124Y-94879025D01*
X108744329Y-94877635D01*
X108746000Y-94869952D01*
X108746000Y-94865385D01*
X109254000Y-94865385D01*
X109258475Y-94880624D01*
X109259865Y-94881829D01*
X109267548Y-94883500D01*
X109964885Y-94883500D01*
X109980124Y-94879025D01*
X109981329Y-94877635D01*
X109983000Y-94869952D01*
X109983000Y-94791234D01*
X109982663Y-94784718D01*
X109972925Y-94690868D01*
X109970032Y-94677472D01*
X109919512Y-94526047D01*
X109913347Y-94512885D01*
X109829574Y-94377508D01*
X109820540Y-94366110D01*
X109707871Y-94253637D01*
X109696460Y-94244625D01*
X109560937Y-94161088D01*
X109547759Y-94154944D01*
X109396234Y-94104685D01*
X109382868Y-94101819D01*
X109290230Y-94092328D01*
X109283815Y-94092000D01*
X109272115Y-94092000D01*
X109256876Y-94096475D01*
X109255671Y-94097865D01*
X109254000Y-94105548D01*
X109254000Y-94865385D01*
X108746000Y-94865385D01*
X108746000Y-94110115D01*
X108741525Y-94094876D01*
X108740135Y-94093671D01*
X108732452Y-94092000D01*
X108716234Y-94092000D01*
X108709718Y-94092337D01*
X108615868Y-94102075D01*
X108602472Y-94104968D01*
X108451047Y-94155488D01*
X108437885Y-94161653D01*
X108302508Y-94245426D01*
X108291110Y-94254460D01*
X108178637Y-94367129D01*
X108169625Y-94378540D01*
X108086088Y-94514063D01*
X108079944Y-94527241D01*
X108029685Y-94678766D01*
X108026819Y-94692132D01*
X108017328Y-94784770D01*
X108017000Y-94791185D01*
X108017000Y-94865385D01*
X91856042Y-94865385D01*
X91737405Y-94746748D01*
X91703379Y-94684436D01*
X91700500Y-94657653D01*
X91700500Y-93544669D01*
X92992001Y-93544669D01*
X92992371Y-93551490D01*
X92997895Y-93602352D01*
X93001521Y-93617604D01*
X93046676Y-93738054D01*
X93055214Y-93753649D01*
X93131715Y-93855724D01*
X93144276Y-93868285D01*
X93246351Y-93944786D01*
X93261946Y-93953324D01*
X93382394Y-93998478D01*
X93397649Y-94002105D01*
X93448514Y-94007631D01*
X93455328Y-94008000D01*
X98227885Y-94008000D01*
X98243124Y-94003525D01*
X98244329Y-94002135D01*
X98246000Y-93994452D01*
X98246000Y-93989884D01*
X98754000Y-93989884D01*
X98758475Y-94005123D01*
X98759865Y-94006328D01*
X98767548Y-94007999D01*
X103544669Y-94007999D01*
X103551490Y-94007629D01*
X103602352Y-94002105D01*
X103617604Y-93998479D01*
X103738054Y-93953324D01*
X103753649Y-93944786D01*
X103855724Y-93868285D01*
X103868285Y-93855724D01*
X103944786Y-93753649D01*
X103953324Y-93738054D01*
X103998478Y-93617606D01*
X104002105Y-93602351D01*
X104007631Y-93551486D01*
X104008000Y-93544672D01*
X104008000Y-92766877D01*
X111492001Y-92766877D01*
X111492054Y-92768714D01*
X111493477Y-92778657D01*
X111531468Y-92943220D01*
X111536120Y-92956430D01*
X111608882Y-93106945D01*
X111616343Y-93118793D01*
X111720653Y-93249460D01*
X111730540Y-93259347D01*
X111861207Y-93363657D01*
X111873055Y-93371118D01*
X112023570Y-93443880D01*
X112036780Y-93448532D01*
X112201342Y-93486523D01*
X112211277Y-93487946D01*
X112213153Y-93488000D01*
X113327885Y-93488000D01*
X113343124Y-93483525D01*
X113344329Y-93482135D01*
X113346000Y-93474452D01*
X113346000Y-93469884D01*
X113854000Y-93469884D01*
X113858475Y-93485123D01*
X113859865Y-93486328D01*
X113867548Y-93487999D01*
X114986877Y-93487999D01*
X114988714Y-93487946D01*
X114998657Y-93486523D01*
X115163220Y-93448532D01*
X115176430Y-93443880D01*
X115326945Y-93371118D01*
X115338793Y-93363657D01*
X115469460Y-93259347D01*
X115479347Y-93249460D01*
X115583657Y-93118793D01*
X115591118Y-93106945D01*
X115663880Y-92956430D01*
X115668532Y-92943220D01*
X115706523Y-92778658D01*
X115707946Y-92768723D01*
X115708000Y-92766847D01*
X115708000Y-92652115D01*
X115703525Y-92636876D01*
X115702135Y-92635671D01*
X115694452Y-92634000D01*
X113872115Y-92634000D01*
X113856876Y-92638475D01*
X113855671Y-92639865D01*
X113854000Y-92647548D01*
X113854000Y-93469884D01*
X113346000Y-93469884D01*
X113346000Y-92652115D01*
X113341525Y-92636876D01*
X113340135Y-92635671D01*
X113332452Y-92634000D01*
X111510116Y-92634000D01*
X111494877Y-92638475D01*
X111493672Y-92639865D01*
X111492001Y-92647548D01*
X111492001Y-92766877D01*
X104008000Y-92766877D01*
X104008000Y-92272115D01*
X104003525Y-92256876D01*
X104002135Y-92255671D01*
X103994452Y-92254000D01*
X98772115Y-92254000D01*
X98756876Y-92258475D01*
X98755671Y-92259865D01*
X98754000Y-92267548D01*
X98754000Y-93989884D01*
X98246000Y-93989884D01*
X98246000Y-92272115D01*
X98241525Y-92256876D01*
X98240135Y-92255671D01*
X98232452Y-92254000D01*
X93010116Y-92254000D01*
X92994877Y-92258475D01*
X92993672Y-92259865D01*
X92992001Y-92267548D01*
X92992001Y-93544669D01*
X91700500Y-93544669D01*
X91700500Y-92107885D01*
X111492000Y-92107885D01*
X111496475Y-92123124D01*
X111497865Y-92124329D01*
X111505548Y-92126000D01*
X113327885Y-92126000D01*
X113343124Y-92121525D01*
X113344329Y-92120135D01*
X113346000Y-92112452D01*
X113346000Y-92107885D01*
X113854000Y-92107885D01*
X113858475Y-92123124D01*
X113859865Y-92124329D01*
X113867548Y-92126000D01*
X115689884Y-92126000D01*
X115705123Y-92121525D01*
X115706328Y-92120135D01*
X115707999Y-92112452D01*
X115707999Y-91993123D01*
X115707946Y-91991286D01*
X115706523Y-91981343D01*
X115668532Y-91816780D01*
X115663880Y-91803570D01*
X115591118Y-91653055D01*
X115583657Y-91641207D01*
X115479347Y-91510540D01*
X115469460Y-91500653D01*
X115338793Y-91396343D01*
X115326945Y-91388882D01*
X115176430Y-91316120D01*
X115163220Y-91311468D01*
X114998658Y-91273477D01*
X114988723Y-91272054D01*
X114986847Y-91272000D01*
X113872115Y-91272000D01*
X113856876Y-91276475D01*
X113855671Y-91277865D01*
X113854000Y-91285548D01*
X113854000Y-92107885D01*
X113346000Y-92107885D01*
X113346000Y-91290116D01*
X113341525Y-91274877D01*
X113340135Y-91273672D01*
X113332452Y-91272001D01*
X112213123Y-91272001D01*
X112211286Y-91272054D01*
X112201343Y-91273477D01*
X112036780Y-91311468D01*
X112023570Y-91316120D01*
X111873055Y-91388882D01*
X111861207Y-91396343D01*
X111730540Y-91500653D01*
X111720653Y-91510540D01*
X111616343Y-91641207D01*
X111608882Y-91653055D01*
X111536120Y-91803570D01*
X111531468Y-91816780D01*
X111493477Y-91981342D01*
X111492054Y-91991277D01*
X111492000Y-91993153D01*
X111492000Y-92107885D01*
X91700500Y-92107885D01*
X91700500Y-91727885D01*
X92992000Y-91727885D01*
X92996475Y-91743124D01*
X92997865Y-91744329D01*
X93005548Y-91746000D01*
X98227885Y-91746000D01*
X98243124Y-91741525D01*
X98244329Y-91740135D01*
X98246000Y-91732452D01*
X98246000Y-91727885D01*
X98754000Y-91727885D01*
X98758475Y-91743124D01*
X98759865Y-91744329D01*
X98767548Y-91746000D01*
X103989884Y-91746000D01*
X104005123Y-91741525D01*
X104006328Y-91740135D01*
X104007999Y-91732452D01*
X104007999Y-90455331D01*
X104007629Y-90448510D01*
X104002105Y-90397648D01*
X103998479Y-90382396D01*
X103953324Y-90261946D01*
X103944786Y-90246351D01*
X103868285Y-90144276D01*
X103855724Y-90131715D01*
X103753649Y-90055214D01*
X103738054Y-90046676D01*
X103617606Y-90001522D01*
X103602351Y-89997895D01*
X103551486Y-89992369D01*
X103544672Y-89992000D01*
X98772115Y-89992000D01*
X98756876Y-89996475D01*
X98755671Y-89997865D01*
X98754000Y-90005548D01*
X98754000Y-91727885D01*
X98246000Y-91727885D01*
X98246000Y-90010116D01*
X98241525Y-89994877D01*
X98240135Y-89993672D01*
X98232452Y-89992001D01*
X93455331Y-89992001D01*
X93448510Y-89992371D01*
X93397648Y-89997895D01*
X93382396Y-90001521D01*
X93261946Y-90046676D01*
X93246351Y-90055214D01*
X93144276Y-90131715D01*
X93131715Y-90144276D01*
X93055214Y-90246351D01*
X93046676Y-90261946D01*
X93001522Y-90382394D01*
X92997895Y-90397649D01*
X92992369Y-90448514D01*
X92992000Y-90455328D01*
X92992000Y-91727885D01*
X91700500Y-91727885D01*
X91700500Y-89492623D01*
X111799500Y-89492623D01*
X111799501Y-90187376D01*
X111806149Y-90248580D01*
X111856474Y-90382824D01*
X111861854Y-90390003D01*
X111861856Y-90390006D01*
X111905703Y-90448510D01*
X111942454Y-90497546D01*
X111949635Y-90502928D01*
X112049994Y-90578144D01*
X112049997Y-90578146D01*
X112057176Y-90583526D01*
X112146561Y-90617034D01*
X112184025Y-90631079D01*
X112184027Y-90631079D01*
X112191420Y-90633851D01*
X112199270Y-90634704D01*
X112199271Y-90634704D01*
X112249217Y-90640130D01*
X112252623Y-90640500D01*
X113599802Y-90640500D01*
X114947376Y-90640499D01*
X114950770Y-90640130D01*
X114950776Y-90640130D01*
X115000722Y-90634705D01*
X115000726Y-90634704D01*
X115008580Y-90633851D01*
X115142824Y-90583526D01*
X115150003Y-90578146D01*
X115150006Y-90578144D01*
X115250365Y-90502928D01*
X115257546Y-90497546D01*
X115294297Y-90448510D01*
X115338144Y-90390006D01*
X115338146Y-90390003D01*
X115343526Y-90382824D01*
X115377034Y-90293439D01*
X115391079Y-90255975D01*
X115391079Y-90255973D01*
X115393851Y-90248580D01*
X115400500Y-90187377D01*
X115400499Y-89492624D01*
X115393851Y-89431420D01*
X115343526Y-89297176D01*
X115338146Y-89289997D01*
X115338144Y-89289994D01*
X115262928Y-89189635D01*
X115257546Y-89182454D01*
X115250365Y-89177072D01*
X115150006Y-89101856D01*
X115150003Y-89101854D01*
X115142824Y-89096474D01*
X115053439Y-89062966D01*
X115015975Y-89048921D01*
X115015973Y-89048921D01*
X115008580Y-89046149D01*
X115000730Y-89045296D01*
X115000729Y-89045296D01*
X114950774Y-89039869D01*
X114950773Y-89039869D01*
X114947377Y-89039500D01*
X113600198Y-89039500D01*
X112252624Y-89039501D01*
X112249230Y-89039870D01*
X112249224Y-89039870D01*
X112199278Y-89045295D01*
X112199274Y-89045296D01*
X112191420Y-89046149D01*
X112057176Y-89096474D01*
X112049997Y-89101854D01*
X112049994Y-89101856D01*
X111949635Y-89177072D01*
X111942454Y-89182454D01*
X111937072Y-89189635D01*
X111861856Y-89289994D01*
X111861854Y-89289997D01*
X111856474Y-89297176D01*
X111806149Y-89431420D01*
X111799500Y-89492623D01*
X91700500Y-89492623D01*
X91700500Y-85575244D01*
X93294769Y-85575244D01*
X93309756Y-85932806D01*
X93364506Y-86286470D01*
X93458337Y-86631827D01*
X93590080Y-86964572D01*
X93591735Y-86967684D01*
X93591737Y-86967689D01*
X93756436Y-87277443D01*
X93756442Y-87277453D01*
X93758093Y-87280558D01*
X93760085Y-87283467D01*
X93958290Y-87572940D01*
X93958295Y-87572946D01*
X93960281Y-87575847D01*
X94194125Y-87846757D01*
X94456710Y-88089913D01*
X94744763Y-88302284D01*
X94747800Y-88304038D01*
X94747804Y-88304040D01*
X94911892Y-88398776D01*
X95054693Y-88481222D01*
X95183748Y-88537605D01*
X95379416Y-88623091D01*
X95379420Y-88623092D01*
X95382637Y-88624498D01*
X95385994Y-88625537D01*
X95385999Y-88625539D01*
X95528173Y-88669549D01*
X95724509Y-88730325D01*
X95727965Y-88730984D01*
X95727964Y-88730984D01*
X96072595Y-88796726D01*
X96072600Y-88796727D01*
X96076046Y-88797384D01*
X96272145Y-88812473D01*
X96429371Y-88824571D01*
X96429372Y-88824571D01*
X96432868Y-88824840D01*
X96656962Y-88817014D01*
X96787012Y-88812473D01*
X96787016Y-88812473D01*
X96790527Y-88812350D01*
X96794008Y-88811836D01*
X97141072Y-88760587D01*
X97141078Y-88760586D01*
X97144564Y-88760071D01*
X97147968Y-88759172D01*
X97147971Y-88759171D01*
X97487176Y-88669549D01*
X97487177Y-88669549D01*
X97490567Y-88668653D01*
X97824224Y-88539236D01*
X98141375Y-88373433D01*
X98438068Y-88173311D01*
X98536061Y-88089913D01*
X98707932Y-87943639D01*
X98707933Y-87943638D01*
X98710605Y-87941364D01*
X98713000Y-87938814D01*
X98713008Y-87938806D01*
X98953177Y-87683051D01*
X98953181Y-87683046D01*
X98955588Y-87680483D01*
X98957693Y-87677669D01*
X98957699Y-87677662D01*
X99167856Y-87396739D01*
X99169965Y-87393920D01*
X99351062Y-87085247D01*
X99352494Y-87082031D01*
X99495192Y-86761528D01*
X99495194Y-86761523D01*
X99496624Y-86758311D01*
X99604835Y-86417186D01*
X99624128Y-86319748D01*
X103999500Y-86319748D01*
X104011133Y-86378231D01*
X104055448Y-86444552D01*
X104121769Y-86488867D01*
X104133938Y-86491288D01*
X104133939Y-86491288D01*
X104174184Y-86499293D01*
X104180252Y-86500500D01*
X105819748Y-86500500D01*
X105825816Y-86499293D01*
X105866061Y-86491288D01*
X105866062Y-86491288D01*
X105878231Y-86488867D01*
X105944552Y-86444552D01*
X105988867Y-86378231D01*
X106000500Y-86319748D01*
X106000500Y-85742346D01*
X106020502Y-85674225D01*
X106037405Y-85653251D01*
X106188648Y-85502008D01*
X106250960Y-85467982D01*
X106321775Y-85473047D01*
X106378611Y-85515594D01*
X106403422Y-85582114D01*
X106392580Y-85642953D01*
X106326645Y-85788984D01*
X106295748Y-85955692D01*
X106305507Y-86124959D01*
X106355361Y-86287011D01*
X106442431Y-86432495D01*
X106447768Y-86437888D01*
X106447771Y-86437892D01*
X106491394Y-86481974D01*
X106561690Y-86553010D01*
X106706254Y-86641598D01*
X106792521Y-86669129D01*
X106860536Y-86690836D01*
X106860538Y-86690836D01*
X106867775Y-86693146D01*
X106875355Y-86693663D01*
X106875356Y-86693663D01*
X107029354Y-86704162D01*
X107029358Y-86704162D01*
X107036930Y-86704678D01*
X107044407Y-86703373D01*
X107044408Y-86703373D01*
X107196477Y-86676832D01*
X107203954Y-86675527D01*
X107210903Y-86672476D01*
X107210905Y-86672476D01*
X107352249Y-86610431D01*
X107352248Y-86610431D01*
X107359202Y-86607379D01*
X107424883Y-86556980D01*
X107459407Y-86530488D01*
X107462678Y-86527978D01*
X108353251Y-85637405D01*
X108415563Y-85603379D01*
X108442346Y-85600500D01*
X108768340Y-85600499D01*
X108789832Y-85600499D01*
X108792782Y-85600220D01*
X108792787Y-85600220D01*
X108812850Y-85598324D01*
X108812851Y-85598324D01*
X108820500Y-85597601D01*
X108827748Y-85595056D01*
X108827751Y-85595055D01*
X108935879Y-85557083D01*
X108935881Y-85557082D01*
X108944768Y-85553961D01*
X108952343Y-85548366D01*
X108952345Y-85548365D01*
X109043140Y-85481303D01*
X109050711Y-85475711D01*
X109128961Y-85369768D01*
X109165334Y-85266195D01*
X109170056Y-85252748D01*
X109170057Y-85252746D01*
X109172601Y-85245500D01*
X109175500Y-85214833D01*
X109175500Y-85076886D01*
X109179296Y-85046191D01*
X109198230Y-84970812D01*
X109198230Y-84970808D01*
X109200081Y-84963441D01*
X109200969Y-84793895D01*
X109178981Y-84702311D01*
X109175499Y-84672896D01*
X109175499Y-84535168D01*
X109172601Y-84504500D01*
X109170055Y-84497249D01*
X109132083Y-84389121D01*
X109132082Y-84389119D01*
X109128961Y-84380232D01*
X109050711Y-84274289D01*
X109038068Y-84264951D01*
X108952345Y-84201635D01*
X108952343Y-84201634D01*
X108944768Y-84196039D01*
X108935881Y-84192918D01*
X108935879Y-84192917D01*
X108827748Y-84154944D01*
X108827746Y-84154943D01*
X108820500Y-84152399D01*
X108812856Y-84151676D01*
X108812854Y-84151676D01*
X108804879Y-84150922D01*
X108789833Y-84149500D01*
X108500147Y-84149500D01*
X108210168Y-84149501D01*
X108207218Y-84149780D01*
X108207213Y-84149780D01*
X108197108Y-84150735D01*
X108179500Y-84152399D01*
X108172260Y-84154942D01*
X108172258Y-84154942D01*
X108146351Y-84164040D01*
X108103203Y-84169892D01*
X108103232Y-84170441D01*
X108096592Y-84170789D01*
X108096032Y-84170865D01*
X108088070Y-84170322D01*
X108080594Y-84171627D01*
X108080591Y-84171627D01*
X108025868Y-84181178D01*
X108019342Y-84182141D01*
X107978904Y-84187035D01*
X107956680Y-84189724D01*
X107949573Y-84192409D01*
X107946280Y-84193218D01*
X107931809Y-84197177D01*
X107928533Y-84198166D01*
X107921046Y-84199473D01*
X107914088Y-84202528D01*
X107914086Y-84202528D01*
X107863242Y-84224846D01*
X107857137Y-84227338D01*
X107846126Y-84231499D01*
X107798077Y-84249655D01*
X107791821Y-84253955D01*
X107788792Y-84255538D01*
X107771881Y-84264951D01*
X107768380Y-84266488D01*
X107697965Y-84275557D01*
X107633825Y-84245117D01*
X107596325Y-84184832D01*
X107597369Y-84113844D01*
X107628635Y-84062022D01*
X107828252Y-83862405D01*
X107890564Y-83828379D01*
X107917347Y-83825500D01*
X108095086Y-83825500D01*
X108136835Y-83832618D01*
X108172252Y-83845056D01*
X108172255Y-83845057D01*
X108179500Y-83847601D01*
X108187144Y-83848324D01*
X108187146Y-83848324D01*
X108195121Y-83849078D01*
X108210167Y-83850500D01*
X108499853Y-83850500D01*
X108789832Y-83850499D01*
X108792782Y-83850220D01*
X108792787Y-83850220D01*
X108812850Y-83848324D01*
X108812851Y-83848324D01*
X108820500Y-83847601D01*
X108827748Y-83845056D01*
X108827751Y-83845055D01*
X108935879Y-83807083D01*
X108935881Y-83807082D01*
X108944768Y-83803961D01*
X108952343Y-83798366D01*
X108952345Y-83798365D01*
X109043140Y-83731303D01*
X109050711Y-83725711D01*
X109056303Y-83718140D01*
X109123365Y-83627345D01*
X109123366Y-83627343D01*
X109128961Y-83619768D01*
X109138923Y-83591402D01*
X109170056Y-83502748D01*
X109170057Y-83502746D01*
X109172601Y-83495500D01*
X109175500Y-83464833D01*
X109175500Y-83326886D01*
X109179296Y-83296191D01*
X109198230Y-83220812D01*
X109198230Y-83220808D01*
X109200081Y-83213441D01*
X109200969Y-83043895D01*
X109194658Y-83017606D01*
X109178981Y-82952311D01*
X109175499Y-82922896D01*
X109175499Y-82785168D01*
X109172601Y-82754500D01*
X109170055Y-82747249D01*
X109132083Y-82639121D01*
X109132082Y-82639119D01*
X109128961Y-82630232D01*
X109107638Y-82601362D01*
X109056303Y-82531860D01*
X109050711Y-82524289D01*
X109004531Y-82490180D01*
X108952345Y-82451635D01*
X108952343Y-82451634D01*
X108944768Y-82446039D01*
X108935881Y-82442918D01*
X108935879Y-82442917D01*
X108827748Y-82404944D01*
X108827746Y-82404943D01*
X108820500Y-82402399D01*
X108812856Y-82401676D01*
X108812854Y-82401676D01*
X108804879Y-82400922D01*
X108789833Y-82399500D01*
X108500147Y-82399500D01*
X108210168Y-82399501D01*
X108207218Y-82399780D01*
X108207213Y-82399780D01*
X108187150Y-82401676D01*
X108187149Y-82401676D01*
X108179500Y-82402399D01*
X108172252Y-82404944D01*
X108172249Y-82404945D01*
X108136835Y-82417382D01*
X108095086Y-82424500D01*
X107603641Y-82424500D01*
X107595071Y-82424208D01*
X107545646Y-82420838D01*
X107545642Y-82420838D01*
X107538070Y-82420322D01*
X107530594Y-82421627D01*
X107530591Y-82421627D01*
X107475868Y-82431178D01*
X107469342Y-82432141D01*
X107429141Y-82437006D01*
X107406680Y-82439724D01*
X107399573Y-82442409D01*
X107396280Y-82443218D01*
X107381809Y-82447177D01*
X107378533Y-82448166D01*
X107371046Y-82449473D01*
X107364087Y-82452528D01*
X107364086Y-82452528D01*
X107313240Y-82474847D01*
X107307134Y-82477339D01*
X107255182Y-82496970D01*
X107255180Y-82496971D01*
X107248077Y-82499655D01*
X107241822Y-82503954D01*
X107238797Y-82505535D01*
X107225701Y-82512825D01*
X107222757Y-82514566D01*
X107215798Y-82517621D01*
X107209770Y-82522246D01*
X107209769Y-82522247D01*
X107165727Y-82556042D01*
X107160391Y-82559919D01*
X107114614Y-82591381D01*
X107114608Y-82591386D01*
X107108349Y-82595688D01*
X107067392Y-82641657D01*
X107062411Y-82646933D01*
X106473856Y-83235488D01*
X106411544Y-83269514D01*
X106340729Y-83264449D01*
X106283893Y-83221902D01*
X106259082Y-83155382D01*
X106266779Y-83102163D01*
X106298478Y-83017606D01*
X106302105Y-83002351D01*
X106307631Y-82951486D01*
X106308000Y-82944672D01*
X106308000Y-82572115D01*
X106303525Y-82556876D01*
X106302135Y-82555671D01*
X106294452Y-82554000D01*
X105272115Y-82554000D01*
X105256876Y-82558475D01*
X105255671Y-82559865D01*
X105254000Y-82567548D01*
X105254000Y-83389884D01*
X105258475Y-83405123D01*
X105259865Y-83406328D01*
X105267548Y-83407999D01*
X105844669Y-83407999D01*
X105851490Y-83407629D01*
X105902352Y-83402105D01*
X105917603Y-83398479D01*
X106002162Y-83366779D01*
X106072969Y-83361596D01*
X106135338Y-83395516D01*
X106169467Y-83457772D01*
X106164521Y-83528596D01*
X106135487Y-83573856D01*
X104846748Y-84862595D01*
X104784436Y-84896621D01*
X104757653Y-84899500D01*
X104180252Y-84899500D01*
X104174184Y-84900707D01*
X104133939Y-84908712D01*
X104133938Y-84908712D01*
X104121769Y-84911133D01*
X104055448Y-84955448D01*
X104011133Y-85021769D01*
X103999500Y-85080252D01*
X103999500Y-86319748D01*
X99624128Y-86319748D01*
X99674347Y-86066125D01*
X99688028Y-85903196D01*
X99704110Y-85711688D01*
X99704111Y-85711677D01*
X99704293Y-85709504D01*
X99704564Y-85690156D01*
X99705513Y-85622178D01*
X99705513Y-85622166D01*
X99705543Y-85620000D01*
X99704438Y-85600220D01*
X99695274Y-85436320D01*
X99685566Y-85262682D01*
X99646877Y-85033939D01*
X99626472Y-84913298D01*
X99626471Y-84913294D01*
X99625883Y-84909817D01*
X99527239Y-84565804D01*
X99479354Y-84449627D01*
X99392201Y-84238176D01*
X99392197Y-84238168D01*
X99390863Y-84234931D01*
X99218455Y-83921321D01*
X99168496Y-83850499D01*
X99014194Y-83631763D01*
X99014193Y-83631762D01*
X99012163Y-83628884D01*
X98774560Y-83361265D01*
X98508605Y-83121799D01*
X98505755Y-83119758D01*
X98505748Y-83119753D01*
X98261193Y-82944669D01*
X103692001Y-82944669D01*
X103692371Y-82951490D01*
X103697895Y-83002352D01*
X103701521Y-83017604D01*
X103746676Y-83138054D01*
X103755214Y-83153649D01*
X103831715Y-83255724D01*
X103844276Y-83268285D01*
X103946351Y-83344786D01*
X103961946Y-83353324D01*
X104082394Y-83398478D01*
X104097649Y-83402105D01*
X104148514Y-83407631D01*
X104155328Y-83408000D01*
X104727885Y-83408000D01*
X104743124Y-83403525D01*
X104744329Y-83402135D01*
X104746000Y-83394452D01*
X104746000Y-82572115D01*
X104741525Y-82556876D01*
X104740135Y-82555671D01*
X104732452Y-82554000D01*
X103710116Y-82554000D01*
X103694877Y-82558475D01*
X103693672Y-82559865D01*
X103692001Y-82567548D01*
X103692001Y-82944669D01*
X98261193Y-82944669D01*
X98220470Y-82915514D01*
X98220467Y-82915512D01*
X98217616Y-82913471D01*
X97905218Y-82738877D01*
X97575304Y-82600194D01*
X97571935Y-82599203D01*
X97571931Y-82599201D01*
X97418350Y-82554000D01*
X97231989Y-82499151D01*
X96932161Y-82446283D01*
X96883009Y-82437616D01*
X96883007Y-82437616D01*
X96879549Y-82437006D01*
X96876040Y-82436785D01*
X96876038Y-82436785D01*
X96525897Y-82414756D01*
X96525891Y-82414756D01*
X96522379Y-82414535D01*
X96420609Y-82419512D01*
X96168437Y-82431845D01*
X96168428Y-82431846D01*
X96164930Y-82432017D01*
X96161462Y-82432579D01*
X96161459Y-82432579D01*
X95815132Y-82488672D01*
X95815129Y-82488673D01*
X95811657Y-82489235D01*
X95808274Y-82490180D01*
X95808272Y-82490180D01*
X95772592Y-82500142D01*
X95466963Y-82585475D01*
X95135146Y-82719538D01*
X94820341Y-82889753D01*
X94526471Y-83093998D01*
X94523829Y-83096311D01*
X94523825Y-83096314D01*
X94476146Y-83138054D01*
X94257199Y-83329727D01*
X94015882Y-83594003D01*
X93805528Y-83883531D01*
X93628757Y-84194703D01*
X93610125Y-84238176D01*
X93492700Y-84512150D01*
X93487775Y-84523640D01*
X93384337Y-84866242D01*
X93367965Y-84955448D01*
X93320903Y-85211870D01*
X93319734Y-85218239D01*
X93294769Y-85575244D01*
X91700500Y-85575244D01*
X91700500Y-82027885D01*
X103692000Y-82027885D01*
X103696475Y-82043124D01*
X103697865Y-82044329D01*
X103705548Y-82046000D01*
X104727885Y-82046000D01*
X104743124Y-82041525D01*
X104744329Y-82040135D01*
X104746000Y-82032452D01*
X104746000Y-82027885D01*
X105254000Y-82027885D01*
X105258475Y-82043124D01*
X105259865Y-82044329D01*
X105267548Y-82046000D01*
X106289884Y-82046000D01*
X106305123Y-82041525D01*
X106306328Y-82040135D01*
X106307999Y-82032452D01*
X106307999Y-81655331D01*
X106307629Y-81648510D01*
X106302105Y-81597648D01*
X106298479Y-81582396D01*
X106253324Y-81461946D01*
X106244786Y-81446351D01*
X106168285Y-81344276D01*
X106155724Y-81331715D01*
X106053649Y-81255214D01*
X106038054Y-81246676D01*
X105917606Y-81201522D01*
X105902351Y-81197895D01*
X105851486Y-81192369D01*
X105844672Y-81192000D01*
X105272115Y-81192000D01*
X105256876Y-81196475D01*
X105255671Y-81197865D01*
X105254000Y-81205548D01*
X105254000Y-82027885D01*
X104746000Y-82027885D01*
X104746000Y-81210116D01*
X104741525Y-81194877D01*
X104740135Y-81193672D01*
X104732452Y-81192001D01*
X104155331Y-81192001D01*
X104148510Y-81192371D01*
X104097648Y-81197895D01*
X104082396Y-81201521D01*
X103961946Y-81246676D01*
X103946351Y-81255214D01*
X103844276Y-81331715D01*
X103831715Y-81344276D01*
X103755214Y-81446351D01*
X103746676Y-81461946D01*
X103701522Y-81582394D01*
X103697895Y-81597649D01*
X103692369Y-81648514D01*
X103692000Y-81655328D01*
X103692000Y-82027885D01*
X91700500Y-82027885D01*
X91700500Y-75453862D01*
X91720502Y-75385741D01*
X91737405Y-75364767D01*
X96018014Y-71084158D01*
X96080326Y-71050132D01*
X96151141Y-71055197D01*
X96207977Y-71097744D01*
X96232721Y-71163366D01*
X96233150Y-71168814D01*
X96233074Y-71174594D01*
X96234053Y-71180290D01*
X96234053Y-71180293D01*
X96269459Y-71386346D01*
X96270438Y-71392043D01*
X96346804Y-71599043D01*
X96459614Y-71788659D01*
X96605090Y-71954543D01*
X96778360Y-72091137D01*
X96973620Y-72193869D01*
X97184333Y-72259297D01*
X97190070Y-72259976D01*
X97359789Y-72280064D01*
X97359795Y-72280064D01*
X97363476Y-72280500D01*
X100237654Y-72280500D01*
X100305775Y-72300502D01*
X100326749Y-72317405D01*
X106534735Y-78525392D01*
X106537722Y-78527734D01*
X106537723Y-78527735D01*
X106580746Y-78561469D01*
X106634457Y-78603584D01*
X106788984Y-78673355D01*
X106955692Y-78704252D01*
X106963272Y-78703815D01*
X106963273Y-78703815D01*
X106994499Y-78702015D01*
X107124959Y-78694493D01*
X107287011Y-78644639D01*
X107432495Y-78557569D01*
X107437888Y-78552232D01*
X107437892Y-78552229D01*
X107493914Y-78496790D01*
X107553010Y-78438310D01*
X107641598Y-78293746D01*
X107693146Y-78132225D01*
X107702321Y-77997649D01*
X107726910Y-77931046D01*
X107783604Y-77888311D01*
X107854402Y-77883010D01*
X107917124Y-77917124D01*
X115963095Y-85963095D01*
X115997121Y-86025407D01*
X116000000Y-86052190D01*
X116000000Y-100947810D01*
X115979998Y-101015931D01*
X115963095Y-101036905D01*
X106000000Y-111000000D01*
X106000000Y-119873500D01*
X105979998Y-119941621D01*
X105926342Y-119988114D01*
X105874000Y-119999500D01*
X86126000Y-119999500D01*
X86057879Y-119979498D01*
X86011386Y-119925842D01*
X86000000Y-119873500D01*
X86000000Y-113575244D01*
X93294769Y-113575244D01*
X93309756Y-113932806D01*
X93364506Y-114286470D01*
X93458337Y-114631827D01*
X93590080Y-114964572D01*
X93591735Y-114967684D01*
X93591737Y-114967689D01*
X93756436Y-115277443D01*
X93756442Y-115277453D01*
X93758093Y-115280558D01*
X93760085Y-115283467D01*
X93958290Y-115572940D01*
X93958295Y-115572946D01*
X93960281Y-115575847D01*
X94194125Y-115846757D01*
X94456710Y-116089913D01*
X94744763Y-116302284D01*
X94747800Y-116304038D01*
X94747804Y-116304040D01*
X94911892Y-116398776D01*
X95054693Y-116481222D01*
X95183748Y-116537605D01*
X95379416Y-116623091D01*
X95379420Y-116623092D01*
X95382637Y-116624498D01*
X95385994Y-116625537D01*
X95385999Y-116625539D01*
X95528173Y-116669549D01*
X95724509Y-116730325D01*
X95727965Y-116730984D01*
X95727964Y-116730984D01*
X96072595Y-116796726D01*
X96072600Y-116796727D01*
X96076046Y-116797384D01*
X96272145Y-116812473D01*
X96429371Y-116824571D01*
X96429372Y-116824571D01*
X96432868Y-116824840D01*
X96656962Y-116817014D01*
X96787012Y-116812473D01*
X96787016Y-116812473D01*
X96790527Y-116812350D01*
X96794008Y-116811836D01*
X97141072Y-116760587D01*
X97141078Y-116760586D01*
X97144564Y-116760071D01*
X97147968Y-116759172D01*
X97147971Y-116759171D01*
X97487176Y-116669549D01*
X97487177Y-116669549D01*
X97490567Y-116668653D01*
X97824224Y-116539236D01*
X98141375Y-116373433D01*
X98438068Y-116173311D01*
X98536061Y-116089913D01*
X98707932Y-115943639D01*
X98707933Y-115943638D01*
X98710605Y-115941364D01*
X98713000Y-115938814D01*
X98713008Y-115938806D01*
X98953177Y-115683051D01*
X98953181Y-115683046D01*
X98955588Y-115680483D01*
X98957693Y-115677669D01*
X98957699Y-115677662D01*
X99167856Y-115396739D01*
X99169965Y-115393920D01*
X99351062Y-115085247D01*
X99377833Y-115025118D01*
X99495192Y-114761528D01*
X99495194Y-114761523D01*
X99496624Y-114758311D01*
X99604835Y-114417186D01*
X99674347Y-114066125D01*
X99704293Y-113709504D01*
X99705543Y-113620000D01*
X99685566Y-113262682D01*
X99648631Y-113044308D01*
X99626472Y-112913298D01*
X99626471Y-112913294D01*
X99625883Y-112909817D01*
X99607976Y-112847366D01*
X99592800Y-112794443D01*
X99527239Y-112565804D01*
X99455858Y-112392621D01*
X99392201Y-112238176D01*
X99392197Y-112238168D01*
X99390863Y-112234931D01*
X99218455Y-111921321D01*
X99012163Y-111628884D01*
X98774560Y-111361265D01*
X98508605Y-111121799D01*
X98505755Y-111119758D01*
X98505748Y-111119753D01*
X98220470Y-110915514D01*
X98220467Y-110915512D01*
X98217616Y-110913471D01*
X97905218Y-110738877D01*
X97575304Y-110600194D01*
X97571935Y-110599203D01*
X97571931Y-110599201D01*
X97420353Y-110554589D01*
X97231989Y-110499151D01*
X96950508Y-110449518D01*
X96883009Y-110437616D01*
X96883007Y-110437616D01*
X96879549Y-110437006D01*
X96876040Y-110436785D01*
X96876038Y-110436785D01*
X96525897Y-110414756D01*
X96525891Y-110414756D01*
X96522379Y-110414535D01*
X96420609Y-110419512D01*
X96168437Y-110431845D01*
X96168428Y-110431846D01*
X96164930Y-110432017D01*
X96161462Y-110432579D01*
X96161459Y-110432579D01*
X95815132Y-110488672D01*
X95815129Y-110488673D01*
X95811657Y-110489235D01*
X95466963Y-110585475D01*
X95135146Y-110719538D01*
X94820341Y-110889753D01*
X94526471Y-111093998D01*
X94523829Y-111096311D01*
X94523825Y-111096314D01*
X94270358Y-111318207D01*
X94257199Y-111329727D01*
X94015882Y-111594003D01*
X93805528Y-111883531D01*
X93628757Y-112194703D01*
X93610125Y-112238176D01*
X93498493Y-112498634D01*
X93487775Y-112523640D01*
X93458027Y-112622169D01*
X93403588Y-112802481D01*
X93384337Y-112866242D01*
X93376962Y-112906427D01*
X93321060Y-113211016D01*
X93319734Y-113218239D01*
X93294769Y-113575244D01*
X86000000Y-113575244D01*
X86000000Y-108759748D01*
X93299500Y-108759748D01*
X93311133Y-108818231D01*
X93355448Y-108884552D01*
X93421769Y-108928867D01*
X93433938Y-108931288D01*
X93433939Y-108931288D01*
X93474184Y-108939293D01*
X93480252Y-108940500D01*
X103519748Y-108940500D01*
X103525816Y-108939293D01*
X103566061Y-108931288D01*
X103566062Y-108931288D01*
X103578231Y-108928867D01*
X103644552Y-108884552D01*
X103688867Y-108818231D01*
X103700500Y-108759748D01*
X103700500Y-108066500D01*
X103720502Y-107998379D01*
X103774158Y-107951886D01*
X103826500Y-107940500D01*
X106331359Y-107940500D01*
X106339929Y-107940792D01*
X106389354Y-107944162D01*
X106389358Y-107944162D01*
X106396930Y-107944678D01*
X106404406Y-107943373D01*
X106404409Y-107943373D01*
X106459132Y-107933822D01*
X106465658Y-107932859D01*
X106506096Y-107927965D01*
X106528320Y-107925276D01*
X106535427Y-107922591D01*
X106538720Y-107921782D01*
X106553191Y-107917823D01*
X106556467Y-107916834D01*
X106563954Y-107915527D01*
X106570914Y-107912472D01*
X106621760Y-107890153D01*
X106627866Y-107887661D01*
X106679818Y-107868030D01*
X106679820Y-107868029D01*
X106686923Y-107865345D01*
X106693178Y-107861046D01*
X106696203Y-107859465D01*
X106709299Y-107852175D01*
X106712243Y-107850434D01*
X106719202Y-107847379D01*
X106769273Y-107808958D01*
X106774609Y-107805081D01*
X106820386Y-107773619D01*
X106820392Y-107773614D01*
X106826651Y-107769312D01*
X106867609Y-107723342D01*
X106872589Y-107718067D01*
X113753253Y-100837404D01*
X113815565Y-100803378D01*
X113842348Y-100800499D01*
X114947376Y-100800499D01*
X114950770Y-100800130D01*
X114950776Y-100800130D01*
X115000722Y-100794705D01*
X115000726Y-100794704D01*
X115008580Y-100793851D01*
X115142824Y-100743526D01*
X115150003Y-100738146D01*
X115150006Y-100738144D01*
X115250365Y-100662928D01*
X115257546Y-100657546D01*
X115287546Y-100617518D01*
X115338144Y-100550006D01*
X115338146Y-100550003D01*
X115343526Y-100542824D01*
X115393851Y-100408580D01*
X115400500Y-100347377D01*
X115400499Y-99652624D01*
X115400130Y-99649224D01*
X115394705Y-99599278D01*
X115394704Y-99599274D01*
X115393851Y-99591420D01*
X115343526Y-99457176D01*
X115338146Y-99449997D01*
X115338144Y-99449994D01*
X115262928Y-99349635D01*
X115257546Y-99342454D01*
X115250365Y-99337072D01*
X115150006Y-99261856D01*
X115150003Y-99261854D01*
X115142824Y-99256474D01*
X115053439Y-99222966D01*
X115015975Y-99208921D01*
X115015973Y-99208921D01*
X115008580Y-99206149D01*
X115000730Y-99205296D01*
X115000729Y-99205296D01*
X114950774Y-99199869D01*
X114950773Y-99199869D01*
X114947377Y-99199500D01*
X114786398Y-99199500D01*
X112379847Y-99199501D01*
X112311726Y-99179499D01*
X112290752Y-99162596D01*
X110240780Y-97112623D01*
X111799500Y-97112623D01*
X111799501Y-97807376D01*
X111806149Y-97868580D01*
X111856474Y-98002824D01*
X111861854Y-98010003D01*
X111861856Y-98010006D01*
X111937072Y-98110365D01*
X111942454Y-98117546D01*
X111949635Y-98122928D01*
X112049994Y-98198144D01*
X112049997Y-98198146D01*
X112057176Y-98203526D01*
X112146561Y-98237034D01*
X112184025Y-98251079D01*
X112184027Y-98251079D01*
X112191420Y-98253851D01*
X112199270Y-98254704D01*
X112199271Y-98254704D01*
X112249217Y-98260130D01*
X112252623Y-98260500D01*
X113599802Y-98260500D01*
X114947376Y-98260499D01*
X114950770Y-98260130D01*
X114950776Y-98260130D01*
X115000722Y-98254705D01*
X115000726Y-98254704D01*
X115008580Y-98253851D01*
X115142824Y-98203526D01*
X115150003Y-98198146D01*
X115150006Y-98198144D01*
X115250365Y-98122928D01*
X115257546Y-98117546D01*
X115262928Y-98110365D01*
X115338144Y-98010006D01*
X115338146Y-98010003D01*
X115343526Y-98002824D01*
X115393851Y-97868580D01*
X115400500Y-97807377D01*
X115400499Y-97112624D01*
X115396422Y-97075089D01*
X115394705Y-97059278D01*
X115394704Y-97059274D01*
X115393851Y-97051420D01*
X115343526Y-96917176D01*
X115338146Y-96909997D01*
X115338144Y-96909994D01*
X115262928Y-96809635D01*
X115257546Y-96802454D01*
X115204698Y-96762846D01*
X115150006Y-96721856D01*
X115150003Y-96721854D01*
X115142824Y-96716474D01*
X115053439Y-96682966D01*
X115015975Y-96668921D01*
X115015973Y-96668921D01*
X115008580Y-96666149D01*
X115000730Y-96665296D01*
X115000729Y-96665296D01*
X114950774Y-96659869D01*
X114950773Y-96659869D01*
X114947377Y-96659500D01*
X113600198Y-96659500D01*
X112252624Y-96659501D01*
X112249230Y-96659870D01*
X112249224Y-96659870D01*
X112199278Y-96665295D01*
X112199274Y-96665296D01*
X112191420Y-96666149D01*
X112057176Y-96716474D01*
X112049997Y-96721854D01*
X112049994Y-96721856D01*
X111995302Y-96762846D01*
X111942454Y-96802454D01*
X111937072Y-96809635D01*
X111861856Y-96909994D01*
X111861854Y-96909997D01*
X111856474Y-96917176D01*
X111806149Y-97051420D01*
X111805296Y-97059270D01*
X111805296Y-97059271D01*
X111803578Y-97075089D01*
X111799500Y-97112623D01*
X110240780Y-97112623D01*
X109711457Y-96583300D01*
X109677431Y-96520988D01*
X109675111Y-96506060D01*
X109673324Y-96487150D01*
X109673324Y-96487149D01*
X109672601Y-96479500D01*
X109628961Y-96355232D01*
X109623363Y-96347652D01*
X109566643Y-96270859D01*
X109542261Y-96204180D01*
X109557798Y-96134905D01*
X109601693Y-96088855D01*
X109697492Y-96029573D01*
X109708890Y-96020540D01*
X109821363Y-95907871D01*
X109830375Y-95896460D01*
X109913912Y-95760937D01*
X109920056Y-95747759D01*
X109970315Y-95596234D01*
X109973181Y-95582868D01*
X109982672Y-95490230D01*
X109983000Y-95483815D01*
X109983000Y-95409615D01*
X109978525Y-95394376D01*
X109977135Y-95393171D01*
X109969452Y-95391500D01*
X108035115Y-95391500D01*
X108019876Y-95395975D01*
X108018671Y-95397365D01*
X108017000Y-95405048D01*
X108017000Y-95483766D01*
X108017337Y-95490282D01*
X108027075Y-95584132D01*
X108029968Y-95597528D01*
X108080488Y-95748953D01*
X108086653Y-95762115D01*
X108170426Y-95897492D01*
X108179460Y-95908890D01*
X108292129Y-96021363D01*
X108303543Y-96030377D01*
X108398153Y-96088695D01*
X108445647Y-96141467D01*
X108457071Y-96211538D01*
X108433390Y-96270813D01*
X108376637Y-96347652D01*
X108376635Y-96347655D01*
X108371039Y-96355232D01*
X108327399Y-96479500D01*
X108324500Y-96510167D01*
X108324500Y-96655362D01*
X108318535Y-96693670D01*
X108309165Y-96723032D01*
X108309164Y-96723036D01*
X108306854Y-96730275D01*
X108306337Y-96737853D01*
X108306337Y-96737855D01*
X108297708Y-96864434D01*
X108295322Y-96899430D01*
X108296627Y-96906906D01*
X108296627Y-96906909D01*
X108322625Y-97055867D01*
X108324501Y-97077530D01*
X108324501Y-97214832D01*
X108327399Y-97245500D01*
X108371039Y-97369768D01*
X108449289Y-97475711D01*
X108456860Y-97481303D01*
X108547655Y-97548365D01*
X108547657Y-97548366D01*
X108555232Y-97553961D01*
X108564119Y-97557082D01*
X108564121Y-97557083D01*
X108672252Y-97595056D01*
X108672254Y-97595057D01*
X108679500Y-97597601D01*
X108687144Y-97598324D01*
X108687146Y-97598324D01*
X108698630Y-97599409D01*
X108706064Y-97600112D01*
X108772000Y-97626436D01*
X108783302Y-97636458D01*
X110231248Y-99084405D01*
X110265274Y-99146717D01*
X110260209Y-99217533D01*
X110217662Y-99274368D01*
X110151142Y-99299179D01*
X110142153Y-99299500D01*
X106957484Y-99299500D01*
X106831680Y-99314724D01*
X106673077Y-99374655D01*
X106666819Y-99378956D01*
X106563459Y-99449994D01*
X106533349Y-99470688D01*
X106528297Y-99476358D01*
X106528296Y-99476359D01*
X106425612Y-99591608D01*
X106425610Y-99591612D01*
X106420560Y-99597279D01*
X106341224Y-99747119D01*
X106299919Y-99911559D01*
X106299031Y-100081105D01*
X106338612Y-100245968D01*
X106416375Y-100396631D01*
X106421367Y-100402353D01*
X106421368Y-100402355D01*
X106453770Y-100439498D01*
X106527831Y-100524396D01*
X106586351Y-100565525D01*
X106660330Y-100617518D01*
X106660332Y-100617519D01*
X106666547Y-100621887D01*
X106824513Y-100683476D01*
X106832046Y-100684468D01*
X106832047Y-100684468D01*
X106949739Y-100699962D01*
X106953826Y-100700500D01*
X111604654Y-100700500D01*
X111672775Y-100720502D01*
X111719268Y-100774158D01*
X111729372Y-100844432D01*
X111699878Y-100909012D01*
X111693749Y-100915594D01*
X106106748Y-106502595D01*
X106044436Y-106536621D01*
X106017653Y-106539500D01*
X103826500Y-106539500D01*
X103758379Y-106519498D01*
X103711886Y-106465842D01*
X103700500Y-106413500D01*
X103700500Y-105720252D01*
X103688867Y-105661769D01*
X103644552Y-105595448D01*
X103578231Y-105551133D01*
X103566062Y-105548712D01*
X103566061Y-105548712D01*
X103525816Y-105540707D01*
X103519748Y-105539500D01*
X93480252Y-105539500D01*
X93474184Y-105540707D01*
X93433939Y-105548712D01*
X93433938Y-105548712D01*
X93421769Y-105551133D01*
X93355448Y-105595448D01*
X93311133Y-105661769D01*
X93299500Y-105720252D01*
X93299500Y-108759748D01*
X86000000Y-108759748D01*
X86000000Y-60648264D01*
X95951179Y-60648264D01*
X95952302Y-60662325D01*
X95962410Y-60666000D01*
X98662885Y-60666000D01*
X98678124Y-60661525D01*
X98679329Y-60660135D01*
X98681000Y-60652452D01*
X98681000Y-60647885D01*
X99189000Y-60647885D01*
X99193475Y-60663124D01*
X99194865Y-60664329D01*
X99202548Y-60666000D01*
X101905590Y-60666000D01*
X101919676Y-60661864D01*
X101921725Y-60648886D01*
X101919675Y-60631170D01*
X101917715Y-60621273D01*
X101854396Y-60397506D01*
X101850884Y-60388062D01*
X101752601Y-60177295D01*
X101747622Y-60168529D01*
X101616913Y-59976198D01*
X101610581Y-59968323D01*
X101450814Y-59799374D01*
X101443305Y-59792613D01*
X101258574Y-59651375D01*
X101250095Y-59645911D01*
X101045153Y-59536022D01*
X101035901Y-59531980D01*
X100816029Y-59456273D01*
X100806257Y-59453764D01*
X100576029Y-59413996D01*
X100568157Y-59413141D01*
X100544449Y-59412064D01*
X100541616Y-59412000D01*
X99207115Y-59412000D01*
X99191876Y-59416475D01*
X99190671Y-59417865D01*
X99189000Y-59425548D01*
X99189000Y-60647885D01*
X98681000Y-60647885D01*
X98681000Y-59430115D01*
X98676525Y-59414876D01*
X98675135Y-59413671D01*
X98667452Y-59412000D01*
X97376544Y-59412000D01*
X97371512Y-59412202D01*
X97198157Y-59426150D01*
X97188204Y-59427762D01*
X96962367Y-59483233D01*
X96952797Y-59486416D01*
X96738735Y-59577280D01*
X96729793Y-59581955D01*
X96533013Y-59705874D01*
X96524940Y-59711914D01*
X96350500Y-59865703D01*
X96343496Y-59872956D01*
X96195890Y-60052654D01*
X96190134Y-60060936D01*
X96073159Y-60261919D01*
X96068797Y-60271024D01*
X95985463Y-60488115D01*
X95982612Y-60497804D01*
X95951179Y-60648264D01*
X86000000Y-60648264D01*
X86000000Y-50126500D01*
X86020002Y-50058379D01*
X86073658Y-50011886D01*
X86126000Y-50000500D01*
X105874000Y-50000500D01*
X105942121Y-50020502D01*
G37*
%TD.AperFunction*%
%TD*%
%TA.AperFunction,Conductor*%
%TO.N,LVGND*%
G36*
X72918032Y-102552368D02*
G01*
X72974868Y-102594915D01*
X72999679Y-102661435D01*
X73000000Y-102670424D01*
X73000000Y-119366000D01*
X72979998Y-119434121D01*
X72926342Y-119480614D01*
X72874000Y-119492000D01*
X58126000Y-119492000D01*
X58057879Y-119471998D01*
X58011386Y-119418342D01*
X58000000Y-119366000D01*
X58000000Y-113620000D01*
X61986685Y-113620000D01*
X62005931Y-113987241D01*
X62063459Y-114350459D01*
X62158639Y-114705674D01*
X62290427Y-115048994D01*
X62457380Y-115376657D01*
X62657668Y-115685075D01*
X62889098Y-115970867D01*
X63149133Y-116230902D01*
X63434925Y-116462332D01*
X63743342Y-116662620D01*
X63746276Y-116664115D01*
X63746283Y-116664119D01*
X64068066Y-116828075D01*
X64071006Y-116829573D01*
X64414326Y-116961361D01*
X64769541Y-117056541D01*
X64962558Y-117087112D01*
X65129511Y-117113555D01*
X65129519Y-117113556D01*
X65132759Y-117114069D01*
X65500000Y-117133315D01*
X65867241Y-117114069D01*
X65870481Y-117113556D01*
X65870489Y-117113555D01*
X66037442Y-117087112D01*
X66230459Y-117056541D01*
X66585674Y-116961361D01*
X66928994Y-116829573D01*
X66931934Y-116828075D01*
X67253717Y-116664119D01*
X67253724Y-116664115D01*
X67256658Y-116662620D01*
X67565075Y-116462332D01*
X67850867Y-116230902D01*
X68110902Y-115970867D01*
X68342332Y-115685075D01*
X68542620Y-115376657D01*
X68709573Y-115048994D01*
X68841361Y-114705674D01*
X68936541Y-114350459D01*
X68994069Y-113987241D01*
X69013315Y-113620000D01*
X68994069Y-113252759D01*
X68936541Y-112889541D01*
X68841361Y-112534326D01*
X68709573Y-112191006D01*
X68708075Y-112188066D01*
X68544119Y-111866284D01*
X68544115Y-111866277D01*
X68542620Y-111863343D01*
X68342332Y-111554925D01*
X68110902Y-111269133D01*
X67850867Y-111009098D01*
X67565075Y-110777668D01*
X67256658Y-110577380D01*
X67253724Y-110575885D01*
X67253717Y-110575881D01*
X66931934Y-110411925D01*
X66928994Y-110410427D01*
X66585674Y-110278639D01*
X66230459Y-110183459D01*
X66037442Y-110152888D01*
X65870489Y-110126445D01*
X65870481Y-110126444D01*
X65867241Y-110125931D01*
X65500000Y-110106685D01*
X65132759Y-110125931D01*
X65129519Y-110126444D01*
X65129511Y-110126445D01*
X64962558Y-110152888D01*
X64769541Y-110183459D01*
X64414326Y-110278639D01*
X64071006Y-110410427D01*
X64068066Y-110411925D01*
X63746284Y-110575881D01*
X63746277Y-110575885D01*
X63743343Y-110577380D01*
X63434925Y-110777668D01*
X63149133Y-111009098D01*
X62889098Y-111269133D01*
X62657668Y-111554925D01*
X62457380Y-111863343D01*
X62455885Y-111866277D01*
X62455881Y-111866284D01*
X62291925Y-112188066D01*
X62290427Y-112191006D01*
X62158639Y-112534326D01*
X62063459Y-112889541D01*
X62005931Y-113252759D01*
X61986685Y-113620000D01*
X58000000Y-113620000D01*
X58000000Y-112000000D01*
X50634000Y-112000000D01*
X50565879Y-111979998D01*
X50519386Y-111926342D01*
X50508000Y-111874000D01*
X50508000Y-105839559D01*
X50528002Y-105771438D01*
X50581658Y-105724945D01*
X50651932Y-105714841D01*
X50716512Y-105744335D01*
X50734826Y-105763994D01*
X50786739Y-105833261D01*
X50903295Y-105920615D01*
X51039684Y-105971745D01*
X51101866Y-105978500D01*
X52898134Y-105978500D01*
X52960316Y-105971745D01*
X53096705Y-105920615D01*
X53213261Y-105833261D01*
X53300615Y-105716705D01*
X53303767Y-105708296D01*
X53308077Y-105700425D01*
X53309741Y-105701336D01*
X53345663Y-105653510D01*
X53412224Y-105628807D01*
X53421009Y-105628500D01*
X54150075Y-105628500D01*
X54218196Y-105648502D01*
X54239170Y-105665405D01*
X56483149Y-107909384D01*
X56492251Y-107919527D01*
X56515968Y-107949025D01*
X56554450Y-107981315D01*
X56558062Y-107984467D01*
X56559888Y-107986123D01*
X56562075Y-107988310D01*
X56564458Y-107990267D01*
X56564463Y-107990272D01*
X56595268Y-108015576D01*
X56596252Y-108016393D01*
X56667474Y-108076154D01*
X56672147Y-108078723D01*
X56676262Y-108082103D01*
X56681691Y-108085014D01*
X56681694Y-108085016D01*
X56758180Y-108126028D01*
X56759338Y-108126657D01*
X56835388Y-108168465D01*
X56840787Y-108171433D01*
X56845865Y-108173044D01*
X56850563Y-108175563D01*
X56939498Y-108202753D01*
X56940702Y-108203128D01*
X57029306Y-108231235D01*
X57034597Y-108231828D01*
X57039698Y-108233388D01*
X57132311Y-108242795D01*
X57133431Y-108242915D01*
X57183227Y-108248500D01*
X57186756Y-108248500D01*
X57187739Y-108248555D01*
X57193426Y-108249003D01*
X57213683Y-108251060D01*
X57230336Y-108252752D01*
X57230339Y-108252752D01*
X57236463Y-108253374D01*
X57282112Y-108249059D01*
X57293969Y-108248500D01*
X57865500Y-108248500D01*
X57933621Y-108268502D01*
X57980114Y-108322158D01*
X57991500Y-108374500D01*
X57991500Y-108788134D01*
X57998255Y-108850316D01*
X58049385Y-108986705D01*
X58136739Y-109103261D01*
X58253295Y-109190615D01*
X58389684Y-109241745D01*
X58451866Y-109248500D01*
X68548134Y-109248500D01*
X68610316Y-109241745D01*
X68746705Y-109190615D01*
X68863261Y-109103261D01*
X68950615Y-108986705D01*
X69001745Y-108850316D01*
X69008500Y-108788134D01*
X69008500Y-106409925D01*
X69028502Y-106341804D01*
X69045405Y-106320830D01*
X72784905Y-102581329D01*
X72847217Y-102547303D01*
X72918032Y-102552368D01*
G37*
%TD.AperFunction*%
%TA.AperFunction,Conductor*%
G36*
X71109052Y-96421348D02*
G01*
X71165888Y-96463895D01*
X71190699Y-96530415D01*
X71191020Y-96539404D01*
X71191020Y-101270556D01*
X71171018Y-101338677D01*
X71154115Y-101359651D01*
X69223595Y-103290171D01*
X69161283Y-103324197D01*
X69090468Y-103319132D01*
X69033632Y-103276585D01*
X69008821Y-103210065D01*
X69008500Y-103201076D01*
X69008500Y-100611866D01*
X69001745Y-100549684D01*
X68950615Y-100413295D01*
X68863261Y-100296739D01*
X68746705Y-100209385D01*
X68610316Y-100158255D01*
X68548134Y-100151500D01*
X58451866Y-100151500D01*
X58389684Y-100158255D01*
X58253295Y-100209385D01*
X58136739Y-100296739D01*
X58049385Y-100413295D01*
X57998255Y-100549684D01*
X57991500Y-100611866D01*
X57991500Y-103708134D01*
X57998255Y-103770316D01*
X58049385Y-103906705D01*
X58136739Y-104023261D01*
X58253295Y-104110615D01*
X58389684Y-104161745D01*
X58451866Y-104168500D01*
X68041076Y-104168500D01*
X68109197Y-104188502D01*
X68155690Y-104242158D01*
X68165794Y-104312432D01*
X68136300Y-104377012D01*
X68130171Y-104383595D01*
X67319171Y-105194595D01*
X67256859Y-105228621D01*
X67230076Y-105231500D01*
X58451866Y-105231500D01*
X58389684Y-105238255D01*
X58253295Y-105289385D01*
X58136739Y-105376739D01*
X58049385Y-105493295D01*
X57998255Y-105629684D01*
X57991500Y-105691866D01*
X57991500Y-106105500D01*
X57971498Y-106173621D01*
X57917842Y-106220114D01*
X57865500Y-106231500D01*
X57709924Y-106231500D01*
X57641803Y-106211498D01*
X57620829Y-106194595D01*
X55376855Y-103950621D01*
X55367753Y-103940478D01*
X55347897Y-103915782D01*
X55344032Y-103910975D01*
X55305578Y-103878708D01*
X55301931Y-103875528D01*
X55300119Y-103873885D01*
X55297925Y-103871691D01*
X55264651Y-103844358D01*
X55263853Y-103843696D01*
X55192526Y-103783846D01*
X55187856Y-103781278D01*
X55183739Y-103777897D01*
X55101914Y-103734023D01*
X55100755Y-103733394D01*
X55024619Y-103691538D01*
X55024611Y-103691535D01*
X55019213Y-103688567D01*
X55014131Y-103686955D01*
X55009437Y-103684438D01*
X54920469Y-103657238D01*
X54919441Y-103656918D01*
X54830694Y-103628765D01*
X54825398Y-103628171D01*
X54820302Y-103626613D01*
X54727743Y-103617210D01*
X54726607Y-103617089D01*
X54692992Y-103613319D01*
X54680270Y-103611892D01*
X54680266Y-103611892D01*
X54676773Y-103611500D01*
X54673246Y-103611500D01*
X54672261Y-103611445D01*
X54666581Y-103610998D01*
X54637175Y-103608011D01*
X54629663Y-103607248D01*
X54629661Y-103607248D01*
X54623538Y-103606626D01*
X54581259Y-103610623D01*
X54577891Y-103610941D01*
X54566033Y-103611500D01*
X53421009Y-103611500D01*
X53352888Y-103591498D01*
X53306395Y-103537842D01*
X53304097Y-103532306D01*
X53303768Y-103531704D01*
X53300615Y-103523295D01*
X53213261Y-103406739D01*
X53096705Y-103319385D01*
X53084132Y-103314672D01*
X52978203Y-103274960D01*
X52921439Y-103232318D01*
X52896739Y-103165756D01*
X52911947Y-103096408D01*
X52933493Y-103067727D01*
X53034435Y-102967137D01*
X53038096Y-102963489D01*
X53097594Y-102880689D01*
X53165435Y-102786277D01*
X53168453Y-102782077D01*
X53227836Y-102661925D01*
X53265136Y-102586453D01*
X53265137Y-102586451D01*
X53267430Y-102581811D01*
X53332370Y-102368069D01*
X53356232Y-102186824D01*
X53384955Y-102121897D01*
X53392059Y-102114176D01*
X57460829Y-98045405D01*
X57523141Y-98011379D01*
X57549924Y-98008500D01*
X57865500Y-98008500D01*
X57933621Y-98028502D01*
X57980114Y-98082158D01*
X57991500Y-98134500D01*
X57991500Y-98628134D01*
X57998255Y-98690316D01*
X58049385Y-98826705D01*
X58136739Y-98943261D01*
X58253295Y-99030615D01*
X58389684Y-99081745D01*
X58451866Y-99088500D01*
X68548134Y-99088500D01*
X68610316Y-99081745D01*
X68746705Y-99030615D01*
X68863261Y-98943261D01*
X68950615Y-98826705D01*
X69001745Y-98690316D01*
X69008500Y-98628134D01*
X69008500Y-98198415D01*
X69028502Y-98130294D01*
X69082158Y-98083801D01*
X69105956Y-98076127D01*
X69106413Y-98076087D01*
X69111532Y-98074600D01*
X69116833Y-98074080D01*
X69205834Y-98047209D01*
X69206967Y-98046874D01*
X69290414Y-98022630D01*
X69290418Y-98022628D01*
X69296336Y-98020909D01*
X69301068Y-98018456D01*
X69306169Y-98016916D01*
X69321998Y-98008500D01*
X69388260Y-97973269D01*
X69389426Y-97972657D01*
X69466453Y-97932729D01*
X69471926Y-97929892D01*
X69476089Y-97926569D01*
X69480796Y-97924066D01*
X69552918Y-97865245D01*
X69553774Y-97864554D01*
X69592973Y-97833262D01*
X69595477Y-97830758D01*
X69596195Y-97830116D01*
X69600528Y-97826415D01*
X69634062Y-97799065D01*
X69663288Y-97763737D01*
X69671277Y-97754958D01*
X70975925Y-96450309D01*
X71038237Y-96416284D01*
X71109052Y-96421348D01*
G37*
%TD.AperFunction*%
%TA.AperFunction,Conductor*%
G36*
X72942121Y-50528002D02*
G01*
X72988614Y-50581658D01*
X73000000Y-50634000D01*
X73000000Y-79269576D01*
X72979998Y-79337697D01*
X72926342Y-79384190D01*
X72856068Y-79394294D01*
X72791488Y-79364800D01*
X72784905Y-79358671D01*
X68395405Y-74969171D01*
X68361379Y-74906859D01*
X68358500Y-74880076D01*
X68358500Y-74224600D01*
X68354292Y-74184041D01*
X68348238Y-74125692D01*
X68348237Y-74125688D01*
X68347526Y-74118834D01*
X68340785Y-74098627D01*
X68293868Y-73958002D01*
X68291550Y-73951054D01*
X68198478Y-73800652D01*
X68073303Y-73675695D01*
X68042965Y-73656994D01*
X67928968Y-73586725D01*
X67928966Y-73586724D01*
X67922738Y-73582885D01*
X67809353Y-73545277D01*
X67761389Y-73529368D01*
X67761387Y-73529368D01*
X67754861Y-73527203D01*
X67748025Y-73526503D01*
X67748022Y-73526502D01*
X67704969Y-73522091D01*
X67650400Y-73516500D01*
X66349600Y-73516500D01*
X66346354Y-73516837D01*
X66346350Y-73516837D01*
X66250692Y-73526762D01*
X66250688Y-73526763D01*
X66243834Y-73527474D01*
X66237298Y-73529655D01*
X66237296Y-73529655D01*
X66105194Y-73573728D01*
X66076054Y-73583450D01*
X65925652Y-73676522D01*
X65800695Y-73801697D01*
X65727170Y-73920977D01*
X65710920Y-73947339D01*
X65658148Y-73994832D01*
X65588076Y-74006256D01*
X65522952Y-73977982D01*
X65512490Y-73968195D01*
X65407103Y-73857722D01*
X65403424Y-73853865D01*
X65218458Y-73716246D01*
X65213707Y-73713830D01*
X65213703Y-73713828D01*
X65095588Y-73653776D01*
X65012949Y-73611760D01*
X65007855Y-73610178D01*
X65007852Y-73610177D01*
X64797871Y-73544976D01*
X64792773Y-73543393D01*
X64787484Y-73542692D01*
X64569511Y-73513802D01*
X64569506Y-73513802D01*
X64564226Y-73513102D01*
X64558897Y-73513302D01*
X64558895Y-73513302D01*
X64449034Y-73517427D01*
X64333842Y-73521751D01*
X64328623Y-73522846D01*
X64306566Y-73527474D01*
X64108209Y-73569093D01*
X64103250Y-73571051D01*
X64103248Y-73571052D01*
X63898744Y-73651815D01*
X63898742Y-73651816D01*
X63893779Y-73653776D01*
X63889220Y-73656543D01*
X63889217Y-73656544D01*
X63794113Y-73714255D01*
X63696683Y-73773377D01*
X63692653Y-73776874D01*
X63599484Y-73857722D01*
X63522555Y-73924477D01*
X63503809Y-73947339D01*
X63379760Y-74098627D01*
X63379756Y-74098633D01*
X63376376Y-74102755D01*
X63358448Y-74134250D01*
X63307368Y-74183555D01*
X63237738Y-74197417D01*
X63171667Y-74171434D01*
X63144427Y-74142284D01*
X63117814Y-74102755D01*
X63062559Y-74020681D01*
X62903424Y-73853865D01*
X62718458Y-73716246D01*
X62713707Y-73713830D01*
X62713703Y-73713828D01*
X62595588Y-73653776D01*
X62512949Y-73611760D01*
X62507855Y-73610178D01*
X62507852Y-73610177D01*
X62297871Y-73544976D01*
X62292773Y-73543393D01*
X62287484Y-73542692D01*
X62069511Y-73513802D01*
X62069506Y-73513802D01*
X62064226Y-73513102D01*
X62058897Y-73513302D01*
X62058895Y-73513302D01*
X61949034Y-73517427D01*
X61833842Y-73521751D01*
X61828623Y-73522846D01*
X61806566Y-73527474D01*
X61608209Y-73569093D01*
X61603250Y-73571051D01*
X61603248Y-73571052D01*
X61398744Y-73651815D01*
X61398742Y-73651816D01*
X61393779Y-73653776D01*
X61389220Y-73656543D01*
X61389217Y-73656544D01*
X61294113Y-73714255D01*
X61196683Y-73773377D01*
X61192653Y-73776874D01*
X61099484Y-73857722D01*
X61022555Y-73924477D01*
X61003809Y-73947339D01*
X60879760Y-74098627D01*
X60879756Y-74098633D01*
X60876376Y-74102755D01*
X60873738Y-74107390D01*
X60873733Y-74107398D01*
X60858171Y-74134735D01*
X60807088Y-74184041D01*
X60737458Y-74197902D01*
X60671387Y-74171918D01*
X60644149Y-74142768D01*
X60565148Y-74025422D01*
X60558481Y-74017130D01*
X60406772Y-73858100D01*
X60398814Y-73851059D01*
X60222475Y-73719859D01*
X60213438Y-73714255D01*
X60017516Y-73614643D01*
X60007665Y-73610643D01*
X59797760Y-73545466D01*
X59787376Y-73543183D01*
X59771957Y-73541139D01*
X59757793Y-73543335D01*
X59754000Y-73556522D01*
X59754000Y-76441192D01*
X59757973Y-76454723D01*
X59768580Y-76456248D01*
X59886421Y-76431523D01*
X59896617Y-76428463D01*
X60101029Y-76347737D01*
X60110561Y-76343006D01*
X60298462Y-76228984D01*
X60307052Y-76222720D01*
X60473052Y-76078673D01*
X60480472Y-76071042D01*
X60619826Y-75901089D01*
X60625848Y-75892326D01*
X60641238Y-75865289D01*
X60692320Y-75815982D01*
X60761951Y-75802120D01*
X60828022Y-75828103D01*
X60855261Y-75857253D01*
X60884773Y-75901089D01*
X60937441Y-75979319D01*
X61096576Y-76146135D01*
X61281542Y-76283754D01*
X61286293Y-76286170D01*
X61286297Y-76286172D01*
X61351129Y-76319134D01*
X61487051Y-76388240D01*
X61492145Y-76389822D01*
X61492148Y-76389823D01*
X61616589Y-76428463D01*
X61707227Y-76456607D01*
X61712516Y-76457308D01*
X61930489Y-76486198D01*
X61930494Y-76486198D01*
X61935774Y-76486898D01*
X61941103Y-76486698D01*
X61941105Y-76486698D01*
X62001202Y-76484442D01*
X62070025Y-76501874D01*
X62095023Y-76521258D01*
X69954595Y-84380829D01*
X69988621Y-84443141D01*
X69991500Y-84469924D01*
X69991500Y-94530075D01*
X69971498Y-94598196D01*
X69954600Y-94619165D01*
X69168028Y-95405737D01*
X69105718Y-95439761D01*
X69034903Y-95434697D01*
X68978067Y-95392150D01*
X68960953Y-95360871D01*
X68953767Y-95341703D01*
X68950615Y-95333295D01*
X68863261Y-95216739D01*
X68746705Y-95129385D01*
X68610316Y-95078255D01*
X68548134Y-95071500D01*
X58451866Y-95071500D01*
X58389684Y-95078255D01*
X58253295Y-95129385D01*
X58136739Y-95216739D01*
X58049385Y-95333295D01*
X57998255Y-95469684D01*
X57991500Y-95531866D01*
X57991500Y-95865500D01*
X57971498Y-95933621D01*
X57917842Y-95980114D01*
X57865500Y-95991500D01*
X57141843Y-95991500D01*
X57128236Y-95990763D01*
X57096738Y-95987341D01*
X57096733Y-95987341D01*
X57090612Y-95986676D01*
X57064362Y-95988973D01*
X57040612Y-95991050D01*
X57035786Y-95991379D01*
X57033314Y-95991500D01*
X57030231Y-95991500D01*
X57018262Y-95992674D01*
X56987494Y-95995690D01*
X56986181Y-95995812D01*
X56941916Y-95999685D01*
X56893587Y-96003913D01*
X56888468Y-96005400D01*
X56883167Y-96005920D01*
X56794166Y-96032791D01*
X56793033Y-96033126D01*
X56709586Y-96057370D01*
X56709582Y-96057372D01*
X56703664Y-96059091D01*
X56698932Y-96061544D01*
X56693831Y-96063084D01*
X56688388Y-96065978D01*
X56611740Y-96106731D01*
X56610574Y-96107343D01*
X56533547Y-96147271D01*
X56528074Y-96150108D01*
X56523911Y-96153431D01*
X56519204Y-96155934D01*
X56447082Y-96214755D01*
X56446226Y-96215446D01*
X56407027Y-96246738D01*
X56404523Y-96249242D01*
X56403805Y-96249884D01*
X56399472Y-96253585D01*
X56365938Y-96280935D01*
X56362011Y-96285682D01*
X56362009Y-96285684D01*
X56336713Y-96316262D01*
X56328723Y-96325042D01*
X53499935Y-99153830D01*
X53437623Y-99187856D01*
X53366808Y-99182791D01*
X53309972Y-99140244D01*
X53291627Y-99105465D01*
X53290431Y-99100702D01*
X53201354Y-98895840D01*
X53080014Y-98708277D01*
X52929670Y-98543051D01*
X52925619Y-98539852D01*
X52925615Y-98539848D01*
X52758414Y-98407800D01*
X52758410Y-98407798D01*
X52754359Y-98404598D01*
X52712569Y-98381529D01*
X52662598Y-98331097D01*
X52647826Y-98261654D01*
X52672942Y-98195248D01*
X52700294Y-98168641D01*
X52875328Y-98043792D01*
X52883200Y-98037139D01*
X53034052Y-97886812D01*
X53040730Y-97878965D01*
X53165003Y-97706020D01*
X53170313Y-97697183D01*
X53264670Y-97506267D01*
X53268469Y-97496672D01*
X53330377Y-97292910D01*
X53332555Y-97282837D01*
X53333986Y-97271962D01*
X53331775Y-97257778D01*
X53318617Y-97254000D01*
X51872000Y-97254000D01*
X51803879Y-97233998D01*
X51757386Y-97180342D01*
X51746000Y-97128000D01*
X51746000Y-96727885D01*
X52254000Y-96727885D01*
X52258475Y-96743124D01*
X52259865Y-96744329D01*
X52267548Y-96746000D01*
X53318344Y-96746000D01*
X53331875Y-96742027D01*
X53333180Y-96732947D01*
X53291214Y-96565875D01*
X53287894Y-96556124D01*
X53202972Y-96360814D01*
X53198105Y-96351739D01*
X53082426Y-96172926D01*
X53076136Y-96164757D01*
X52932806Y-96007240D01*
X52925273Y-96000215D01*
X52758139Y-95868222D01*
X52749552Y-95862517D01*
X52712116Y-95841851D01*
X52662146Y-95791419D01*
X52647374Y-95721976D01*
X52672490Y-95655571D01*
X52699842Y-95628964D01*
X52875327Y-95503792D01*
X52883200Y-95497139D01*
X53034052Y-95346812D01*
X53040730Y-95338965D01*
X53165003Y-95166020D01*
X53170313Y-95157183D01*
X53264670Y-94966267D01*
X53268469Y-94956672D01*
X53330377Y-94752910D01*
X53332555Y-94742837D01*
X53333986Y-94731962D01*
X53331775Y-94717778D01*
X53318617Y-94714000D01*
X52272115Y-94714000D01*
X52256876Y-94718475D01*
X52255671Y-94719865D01*
X52254000Y-94727548D01*
X52254000Y-96727885D01*
X51746000Y-96727885D01*
X51746000Y-94187885D01*
X52254000Y-94187885D01*
X52258475Y-94203124D01*
X52259865Y-94204329D01*
X52267548Y-94206000D01*
X53318344Y-94206000D01*
X53331875Y-94202027D01*
X53333180Y-94192947D01*
X53291214Y-94025875D01*
X53287894Y-94016124D01*
X53202972Y-93820814D01*
X53198105Y-93811739D01*
X53082426Y-93632926D01*
X53076136Y-93624757D01*
X53003261Y-93544669D01*
X57992001Y-93544669D01*
X57992371Y-93551490D01*
X57997895Y-93602352D01*
X58001521Y-93617604D01*
X58046676Y-93738054D01*
X58055214Y-93753649D01*
X58131715Y-93855724D01*
X58144276Y-93868285D01*
X58246351Y-93944786D01*
X58261946Y-93953324D01*
X58382394Y-93998478D01*
X58397649Y-94002105D01*
X58448514Y-94007631D01*
X58455328Y-94008000D01*
X63227885Y-94008000D01*
X63243124Y-94003525D01*
X63244329Y-94002135D01*
X63246000Y-93994452D01*
X63246000Y-93989884D01*
X63754000Y-93989884D01*
X63758475Y-94005123D01*
X63759865Y-94006328D01*
X63767548Y-94007999D01*
X68544669Y-94007999D01*
X68551490Y-94007629D01*
X68602352Y-94002105D01*
X68617604Y-93998479D01*
X68738054Y-93953324D01*
X68753649Y-93944786D01*
X68855724Y-93868285D01*
X68868285Y-93855724D01*
X68944786Y-93753649D01*
X68953324Y-93738054D01*
X68998478Y-93617606D01*
X69002105Y-93602351D01*
X69007631Y-93551486D01*
X69008000Y-93544672D01*
X69008000Y-92272115D01*
X69003525Y-92256876D01*
X69002135Y-92255671D01*
X68994452Y-92254000D01*
X63772115Y-92254000D01*
X63756876Y-92258475D01*
X63755671Y-92259865D01*
X63754000Y-92267548D01*
X63754000Y-93989884D01*
X63246000Y-93989884D01*
X63246000Y-92272115D01*
X63241525Y-92256876D01*
X63240135Y-92255671D01*
X63232452Y-92254000D01*
X58010116Y-92254000D01*
X57994877Y-92258475D01*
X57993672Y-92259865D01*
X57992001Y-92267548D01*
X57992001Y-93544669D01*
X53003261Y-93544669D01*
X52932806Y-93467240D01*
X52925273Y-93460215D01*
X52758139Y-93328222D01*
X52749552Y-93322517D01*
X52563117Y-93219599D01*
X52553705Y-93215369D01*
X52352959Y-93144280D01*
X52342988Y-93141646D01*
X52271837Y-93128972D01*
X52258540Y-93130432D01*
X52254000Y-93144989D01*
X52254000Y-94187885D01*
X51746000Y-94187885D01*
X51746000Y-93143102D01*
X51742082Y-93129758D01*
X51727806Y-93127771D01*
X51689324Y-93133660D01*
X51679288Y-93136051D01*
X51476868Y-93202212D01*
X51467359Y-93206209D01*
X51278463Y-93304542D01*
X51269738Y-93310036D01*
X51099433Y-93437905D01*
X51091726Y-93444748D01*
X50944590Y-93598717D01*
X50938104Y-93606727D01*
X50818098Y-93782649D01*
X50813000Y-93791623D01*
X50748288Y-93931033D01*
X50701464Y-93984400D01*
X50633221Y-94003981D01*
X50565225Y-93983558D01*
X50519065Y-93929615D01*
X50508000Y-93877983D01*
X50508000Y-91727885D01*
X57992000Y-91727885D01*
X57996475Y-91743124D01*
X57997865Y-91744329D01*
X58005548Y-91746000D01*
X63227885Y-91746000D01*
X63243124Y-91741525D01*
X63244329Y-91740135D01*
X63246000Y-91732452D01*
X63246000Y-91727885D01*
X63754000Y-91727885D01*
X63758475Y-91743124D01*
X63759865Y-91744329D01*
X63767548Y-91746000D01*
X68989884Y-91746000D01*
X69005123Y-91741525D01*
X69006328Y-91740135D01*
X69007999Y-91732452D01*
X69007999Y-90455331D01*
X69007629Y-90448510D01*
X69002105Y-90397648D01*
X68998479Y-90382396D01*
X68953324Y-90261946D01*
X68944786Y-90246351D01*
X68868285Y-90144276D01*
X68855724Y-90131715D01*
X68753649Y-90055214D01*
X68738054Y-90046676D01*
X68617606Y-90001522D01*
X68602351Y-89997895D01*
X68551486Y-89992369D01*
X68544672Y-89992000D01*
X63772115Y-89992000D01*
X63756876Y-89996475D01*
X63755671Y-89997865D01*
X63754000Y-90005548D01*
X63754000Y-91727885D01*
X63246000Y-91727885D01*
X63246000Y-90010116D01*
X63241525Y-89994877D01*
X63240135Y-89993672D01*
X63232452Y-89992001D01*
X58455331Y-89992001D01*
X58448510Y-89992371D01*
X58397648Y-89997895D01*
X58382396Y-90001521D01*
X58261946Y-90046676D01*
X58246351Y-90055214D01*
X58144276Y-90131715D01*
X58131715Y-90144276D01*
X58055214Y-90246351D01*
X58046676Y-90261946D01*
X58001522Y-90382394D01*
X57997895Y-90397649D01*
X57992369Y-90448514D01*
X57992000Y-90455328D01*
X57992000Y-91727885D01*
X50508000Y-91727885D01*
X50508000Y-85620000D01*
X61986685Y-85620000D01*
X62005931Y-85987241D01*
X62063459Y-86350459D01*
X62158639Y-86705674D01*
X62290427Y-87048994D01*
X62457380Y-87376657D01*
X62657668Y-87685075D01*
X62889098Y-87970867D01*
X63149133Y-88230902D01*
X63434925Y-88462332D01*
X63743342Y-88662620D01*
X63746276Y-88664115D01*
X63746283Y-88664119D01*
X64068066Y-88828075D01*
X64071006Y-88829573D01*
X64414326Y-88961361D01*
X64769541Y-89056541D01*
X64962558Y-89087112D01*
X65129511Y-89113555D01*
X65129519Y-89113556D01*
X65132759Y-89114069D01*
X65500000Y-89133315D01*
X65867241Y-89114069D01*
X65870481Y-89113556D01*
X65870489Y-89113555D01*
X66037442Y-89087112D01*
X66230459Y-89056541D01*
X66585674Y-88961361D01*
X66928994Y-88829573D01*
X66931934Y-88828075D01*
X67253717Y-88664119D01*
X67253724Y-88664115D01*
X67256658Y-88662620D01*
X67565075Y-88462332D01*
X67850867Y-88230902D01*
X68110902Y-87970867D01*
X68342332Y-87685075D01*
X68542620Y-87376657D01*
X68709573Y-87048994D01*
X68841361Y-86705674D01*
X68936541Y-86350459D01*
X68994069Y-85987241D01*
X69013315Y-85620000D01*
X68994069Y-85252759D01*
X68936541Y-84889541D01*
X68841361Y-84534326D01*
X68709573Y-84191006D01*
X68542620Y-83863343D01*
X68342332Y-83554925D01*
X68110902Y-83269133D01*
X67850867Y-83009098D01*
X67565075Y-82777668D01*
X67256658Y-82577380D01*
X67253724Y-82575885D01*
X67253717Y-82575881D01*
X66931934Y-82411925D01*
X66928994Y-82410427D01*
X66585674Y-82278639D01*
X66230459Y-82183459D01*
X66037442Y-82152888D01*
X65870489Y-82126445D01*
X65870481Y-82126444D01*
X65867241Y-82125931D01*
X65500000Y-82106685D01*
X65132759Y-82125931D01*
X65129519Y-82126444D01*
X65129511Y-82126445D01*
X64962558Y-82152888D01*
X64769541Y-82183459D01*
X64414326Y-82278639D01*
X64071006Y-82410427D01*
X64068066Y-82411925D01*
X63746284Y-82575881D01*
X63746277Y-82575885D01*
X63743343Y-82577380D01*
X63434925Y-82777668D01*
X63149133Y-83009098D01*
X62889098Y-83269133D01*
X62657668Y-83554925D01*
X62457380Y-83863343D01*
X62290427Y-84191006D01*
X62158639Y-84534326D01*
X62063459Y-84889541D01*
X62005931Y-85252759D01*
X61986685Y-85620000D01*
X50508000Y-85620000D01*
X50508000Y-75270193D01*
X55649410Y-75270193D01*
X55656124Y-75349325D01*
X55657914Y-75359797D01*
X55713130Y-75572535D01*
X55716665Y-75582575D01*
X55806937Y-75782970D01*
X55812106Y-75792256D01*
X55934850Y-75974575D01*
X55941519Y-75982870D01*
X56093228Y-76141900D01*
X56101186Y-76148941D01*
X56277525Y-76280141D01*
X56286562Y-76285745D01*
X56482484Y-76385357D01*
X56492335Y-76389357D01*
X56702240Y-76454534D01*
X56712624Y-76456817D01*
X56728043Y-76458861D01*
X56742207Y-76456665D01*
X56746000Y-76443478D01*
X56746000Y-76441192D01*
X57254000Y-76441192D01*
X57257973Y-76454723D01*
X57268580Y-76456248D01*
X57386421Y-76431523D01*
X57396617Y-76428463D01*
X57601029Y-76347737D01*
X57610561Y-76343006D01*
X57798462Y-76228984D01*
X57807052Y-76222720D01*
X57973052Y-76078673D01*
X57980472Y-76071042D01*
X58119826Y-75901089D01*
X58125850Y-75892323D01*
X58141517Y-75864801D01*
X58192600Y-75815496D01*
X58262230Y-75801635D01*
X58328301Y-75827619D01*
X58355538Y-75856768D01*
X58434850Y-75974575D01*
X58441519Y-75982870D01*
X58593228Y-76141900D01*
X58601186Y-76148941D01*
X58777525Y-76280141D01*
X58786562Y-76285745D01*
X58982484Y-76385357D01*
X58992335Y-76389357D01*
X59202240Y-76454534D01*
X59212624Y-76456817D01*
X59228043Y-76458861D01*
X59242207Y-76456665D01*
X59246000Y-76443478D01*
X59246000Y-75272115D01*
X59241525Y-75256876D01*
X59240135Y-75255671D01*
X59232452Y-75254000D01*
X57272115Y-75254000D01*
X57256876Y-75258475D01*
X57255671Y-75259865D01*
X57254000Y-75267548D01*
X57254000Y-76441192D01*
X56746000Y-76441192D01*
X56746000Y-75272115D01*
X56741525Y-75256876D01*
X56740135Y-75255671D01*
X56732452Y-75254000D01*
X55666151Y-75254000D01*
X55651473Y-75258310D01*
X55649410Y-75270193D01*
X50508000Y-75270193D01*
X50508000Y-74728174D01*
X55646496Y-74728174D01*
X55647915Y-74741414D01*
X55662550Y-74746000D01*
X56727885Y-74746000D01*
X56743124Y-74741525D01*
X56744329Y-74740135D01*
X56746000Y-74732452D01*
X56746000Y-74727885D01*
X57254000Y-74727885D01*
X57258475Y-74743124D01*
X57259865Y-74744329D01*
X57267548Y-74746000D01*
X59227885Y-74746000D01*
X59243124Y-74741525D01*
X59244329Y-74740135D01*
X59246000Y-74732452D01*
X59246000Y-73558808D01*
X59242027Y-73545277D01*
X59231420Y-73543752D01*
X59113579Y-73568477D01*
X59103383Y-73571537D01*
X58898971Y-73652263D01*
X58889439Y-73656994D01*
X58701538Y-73771016D01*
X58692948Y-73777280D01*
X58526948Y-73921327D01*
X58519528Y-73928958D01*
X58380174Y-74098911D01*
X58374150Y-74107677D01*
X58358483Y-74135199D01*
X58307400Y-74184504D01*
X58237770Y-74198365D01*
X58171699Y-74172381D01*
X58144462Y-74143232D01*
X58065150Y-74025425D01*
X58058481Y-74017130D01*
X57906772Y-73858100D01*
X57898814Y-73851059D01*
X57722475Y-73719859D01*
X57713438Y-73714255D01*
X57517516Y-73614643D01*
X57507665Y-73610643D01*
X57297760Y-73545466D01*
X57287376Y-73543183D01*
X57271957Y-73541139D01*
X57257793Y-73543335D01*
X57254000Y-73556522D01*
X57254000Y-74727885D01*
X56746000Y-74727885D01*
X56746000Y-73558808D01*
X56742027Y-73545277D01*
X56731420Y-73543752D01*
X56613579Y-73568477D01*
X56603383Y-73571537D01*
X56398971Y-73652263D01*
X56389439Y-73656994D01*
X56201538Y-73771016D01*
X56192948Y-73777280D01*
X56026948Y-73921327D01*
X56019528Y-73928958D01*
X55880174Y-74098911D01*
X55874150Y-74107678D01*
X55765424Y-74298682D01*
X55760959Y-74308346D01*
X55685969Y-74514941D01*
X55683198Y-74525208D01*
X55646496Y-74728174D01*
X50508000Y-74728174D01*
X50508000Y-58126000D01*
X50528002Y-58057879D01*
X50581658Y-58011386D01*
X50634000Y-58000000D01*
X58000000Y-58000000D01*
X58000000Y-50634000D01*
X58020002Y-50565879D01*
X58073658Y-50519386D01*
X58126000Y-50508000D01*
X72874000Y-50508000D01*
X72942121Y-50528002D01*
G37*
%TD.AperFunction*%
%TD*%
M02*
